<?xml version="1.0" encoding="utf-8" standalone="no"?>
<!DOCTYPE svg PUBLIC "-//W3C//DTD SVG 1.1//EN"
  "http://www.w3.org/Graphics/SVG/1.1/DTD/svg11.dtd">
<!-- Created with matplotlib (http://matplotlib.org/) -->
<svg height="345pt" version="1.1" viewBox="0 0 460 345" width="460pt" xmlns="http://www.w3.org/2000/svg" xmlns:xlink="http://www.w3.org/1999/xlink">
 <defs>
  <style type="text/css">
*{stroke-linecap:butt;stroke-linejoin:round;}
  </style>
 </defs>
 <g id="figure_1">
  <g id="patch_1">
   <path d="M 0 345.6 
L 460.8 345.6 
L 460.8 0 
L 0 0 
z
" style="fill:#ffffff;"/>
  </g>
  <g id="axes_1">
   <g id="patch_2">
    <path d="M 57.6 307.584 
L 414.72 307.584 
L 414.72 41.472 
L 57.6 41.472 
z
" style="fill:#ffffff;"/>
   </g>
   <g id="matplotlib.axis_1">
    <g id="xtick_1">
     <g id="line2d_1">
      <defs>
       <path d="M 0 0 
L 0 3.5 
" id="mc87dde8544" style="stroke:#000000;stroke-width:0.8;"/>
      </defs>
      <g>
       <use style="stroke:#000000;stroke-width:0.8;" x="57.6" xlink:href="#mc87dde8544" y="307.584"/>
      </g>
     </g>
     <g id="text_1">
      <!-- −1.5 -->
      <defs>
       <path d="M 10.59375 35.5 
L 73.1875 35.5 
L 73.1875 27.203125 
L 10.59375 27.203125 
z
" id="DejaVuSans-2212"/>
       <path d="M 12.40625 8.296875 
L 28.515625 8.296875 
L 28.515625 63.921875 
L 10.984375 60.40625 
L 10.984375 69.390625 
L 28.421875 72.90625 
L 38.28125 72.90625 
L 38.28125 8.296875 
L 54.390625 8.296875 
L 54.390625 0 
L 12.40625 0 
z
" id="DejaVuSans-31"/>
       <path d="M 10.6875 12.40625 
L 21 12.40625 
L 21 0 
L 10.6875 0 
z
" id="DejaVuSans-2e"/>
       <path d="M 10.796875 72.90625 
L 49.515625 72.90625 
L 49.515625 64.59375 
L 19.828125 64.59375 
L 19.828125 46.734375 
Q 21.96875 47.46875 24.109375 47.828125 
Q 26.265625 48.1875 28.421875 48.1875 
Q 40.625 48.1875 47.75 41.5 
Q 54.890625 34.8125 54.890625 23.390625 
Q 54.890625 11.625 47.5625 5.09375 
Q 40.234375 -1.421875 26.90625 -1.421875 
Q 22.3125 -1.421875 17.546875 -0.640625 
Q 12.796875 0.140625 7.71875 1.703125 
L 7.71875 11.625 
Q 12.109375 9.234375 16.796875 8.0625 
Q 21.484375 6.890625 26.703125 6.890625 
Q 35.15625 6.890625 40.078125 11.328125 
Q 45.015625 15.765625 45.015625 23.390625 
Q 45.015625 31 40.078125 35.4375 
Q 35.15625 39.890625 26.703125 39.890625 
Q 22.75 39.890625 18.8125 39.015625 
Q 14.890625 38.140625 10.796875 36.28125 
z
" id="DejaVuSans-35"/>
      </defs>
      <g transform="translate(45.458594 322.182437)scale(0.1 -0.1)">
       <use xlink:href="#DejaVuSans-2212"/>
       <use x="83.789062" xlink:href="#DejaVuSans-31"/>
       <use x="147.412109" xlink:href="#DejaVuSans-2e"/>
       <use x="179.199219" xlink:href="#DejaVuSans-35"/>
      </g>
     </g>
    </g>
    <g id="xtick_2">
     <g id="line2d_2">
      <g>
       <use style="stroke:#000000;stroke-width:0.8;" x="117.12" xlink:href="#mc87dde8544" y="307.584"/>
      </g>
     </g>
     <g id="text_2">
      <!-- −1.0 -->
      <defs>
       <path d="M 31.78125 66.40625 
Q 24.171875 66.40625 20.328125 58.90625 
Q 16.5 51.421875 16.5 36.375 
Q 16.5 21.390625 20.328125 13.890625 
Q 24.171875 6.390625 31.78125 6.390625 
Q 39.453125 6.390625 43.28125 13.890625 
Q 47.125 21.390625 47.125 36.375 
Q 47.125 51.421875 43.28125 58.90625 
Q 39.453125 66.40625 31.78125 66.40625 
z
M 31.78125 74.21875 
Q 44.046875 74.21875 50.515625 64.515625 
Q 56.984375 54.828125 56.984375 36.375 
Q 56.984375 17.96875 50.515625 8.265625 
Q 44.046875 -1.421875 31.78125 -1.421875 
Q 19.53125 -1.421875 13.0625 8.265625 
Q 6.59375 17.96875 6.59375 36.375 
Q 6.59375 54.828125 13.0625 64.515625 
Q 19.53125 74.21875 31.78125 74.21875 
z
" id="DejaVuSans-30"/>
      </defs>
      <g transform="translate(104.978594 322.182437)scale(0.1 -0.1)">
       <use xlink:href="#DejaVuSans-2212"/>
       <use x="83.789062" xlink:href="#DejaVuSans-31"/>
       <use x="147.412109" xlink:href="#DejaVuSans-2e"/>
       <use x="179.199219" xlink:href="#DejaVuSans-30"/>
      </g>
     </g>
    </g>
    <g id="xtick_3">
     <g id="line2d_3">
      <g>
       <use style="stroke:#000000;stroke-width:0.8;" x="176.64" xlink:href="#mc87dde8544" y="307.584"/>
      </g>
     </g>
     <g id="text_3">
      <!-- −0.5 -->
      <g transform="translate(164.498594 322.182437)scale(0.1 -0.1)">
       <use xlink:href="#DejaVuSans-2212"/>
       <use x="83.789062" xlink:href="#DejaVuSans-30"/>
       <use x="147.412109" xlink:href="#DejaVuSans-2e"/>
       <use x="179.199219" xlink:href="#DejaVuSans-35"/>
      </g>
     </g>
    </g>
    <g id="xtick_4">
     <g id="line2d_4">
      <g>
       <use style="stroke:#000000;stroke-width:0.8;" x="236.16" xlink:href="#mc87dde8544" y="307.584"/>
      </g>
     </g>
     <g id="text_4">
      <!-- 0.0 -->
      <g transform="translate(228.208438 322.182437)scale(0.1 -0.1)">
       <use xlink:href="#DejaVuSans-30"/>
       <use x="63.623047" xlink:href="#DejaVuSans-2e"/>
       <use x="95.410156" xlink:href="#DejaVuSans-30"/>
      </g>
     </g>
    </g>
    <g id="xtick_5">
     <g id="line2d_5">
      <g>
       <use style="stroke:#000000;stroke-width:0.8;" x="295.68" xlink:href="#mc87dde8544" y="307.584"/>
      </g>
     </g>
     <g id="text_5">
      <!-- 0.5 -->
      <g transform="translate(287.728437 322.182437)scale(0.1 -0.1)">
       <use xlink:href="#DejaVuSans-30"/>
       <use x="63.623047" xlink:href="#DejaVuSans-2e"/>
       <use x="95.410156" xlink:href="#DejaVuSans-35"/>
      </g>
     </g>
    </g>
    <g id="xtick_6">
     <g id="line2d_6">
      <g>
       <use style="stroke:#000000;stroke-width:0.8;" x="355.2" xlink:href="#mc87dde8544" y="307.584"/>
      </g>
     </g>
     <g id="text_6">
      <!-- 1.0 -->
      <g transform="translate(347.248437 322.182437)scale(0.1 -0.1)">
       <use xlink:href="#DejaVuSans-31"/>
       <use x="63.623047" xlink:href="#DejaVuSans-2e"/>
       <use x="95.410156" xlink:href="#DejaVuSans-30"/>
      </g>
     </g>
    </g>
    <g id="xtick_7">
     <g id="line2d_7">
      <g>
       <use style="stroke:#000000;stroke-width:0.8;" x="414.72" xlink:href="#mc87dde8544" y="307.584"/>
      </g>
     </g>
     <g id="text_7">
      <!-- 1.5 -->
      <g transform="translate(406.768438 322.182437)scale(0.1 -0.1)">
       <use xlink:href="#DejaVuSans-31"/>
       <use x="63.623047" xlink:href="#DejaVuSans-2e"/>
       <use x="95.410156" xlink:href="#DejaVuSans-35"/>
      </g>
     </g>
    </g>
    <g id="text_8">
     <!-- X -->
     <defs>
      <path d="M 6.296875 72.90625 
L 16.890625 72.90625 
L 35.015625 45.796875 
L 53.21875 72.90625 
L 63.8125 72.90625 
L 40.375 37.890625 
L 65.375 0 
L 54.78125 0 
L 34.28125 31 
L 13.625 0 
L 2.984375 0 
L 29 38.921875 
z
" id="DejaVuSans-58"/>
     </defs>
     <g transform="translate(232.735 335.860562)scale(0.1 -0.1)">
      <use xlink:href="#DejaVuSans-58"/>
     </g>
    </g>
   </g>
   <g id="matplotlib.axis_2">
    <g id="ytick_1">
     <g id="line2d_8">
      <defs>
       <path d="M 0 0 
L -3.5 0 
" id="mbd29f8b732" style="stroke:#000000;stroke-width:0.8;"/>
      </defs>
      <g>
       <use style="stroke:#000000;stroke-width:0.8;" x="57.6" xlink:href="#mbd29f8b732" y="286.583684"/>
      </g>
     </g>
     <g id="text_9">
      <!-- −1.0 -->
      <g transform="translate(26.317187 290.382902)scale(0.1 -0.1)">
       <use xlink:href="#DejaVuSans-2212"/>
       <use x="83.789062" xlink:href="#DejaVuSans-31"/>
       <use x="147.412109" xlink:href="#DejaVuSans-2e"/>
       <use x="179.199219" xlink:href="#DejaVuSans-30"/>
      </g>
     </g>
    </g>
    <g id="ytick_2">
     <g id="line2d_9">
      <g>
       <use style="stroke:#000000;stroke-width:0.8;" x="57.6" xlink:href="#mbd29f8b732" y="230.555842"/>
      </g>
     </g>
     <g id="text_10">
      <!-- −0.5 -->
      <g transform="translate(26.317187 234.355061)scale(0.1 -0.1)">
       <use xlink:href="#DejaVuSans-2212"/>
       <use x="83.789062" xlink:href="#DejaVuSans-30"/>
       <use x="147.412109" xlink:href="#DejaVuSans-2e"/>
       <use x="179.199219" xlink:href="#DejaVuSans-35"/>
      </g>
     </g>
    </g>
    <g id="ytick_3">
     <g id="line2d_10">
      <g>
       <use style="stroke:#000000;stroke-width:0.8;" x="57.6" xlink:href="#mbd29f8b732" y="174.528"/>
      </g>
     </g>
     <g id="text_11">
      <!-- 0.0 -->
      <g transform="translate(34.696875 178.327219)scale(0.1 -0.1)">
       <use xlink:href="#DejaVuSans-30"/>
       <use x="63.623047" xlink:href="#DejaVuSans-2e"/>
       <use x="95.410156" xlink:href="#DejaVuSans-30"/>
      </g>
     </g>
    </g>
    <g id="ytick_4">
     <g id="line2d_11">
      <g>
       <use style="stroke:#000000;stroke-width:0.8;" x="57.6" xlink:href="#mbd29f8b732" y="118.500158"/>
      </g>
     </g>
     <g id="text_12">
      <!-- 0.5 -->
      <g transform="translate(34.696875 122.299377)scale(0.1 -0.1)">
       <use xlink:href="#DejaVuSans-30"/>
       <use x="63.623047" xlink:href="#DejaVuSans-2e"/>
       <use x="95.410156" xlink:href="#DejaVuSans-35"/>
      </g>
     </g>
    </g>
    <g id="ytick_5">
     <g id="line2d_12">
      <g>
       <use style="stroke:#000000;stroke-width:0.8;" x="57.6" xlink:href="#mbd29f8b732" y="62.472316"/>
      </g>
     </g>
     <g id="text_13">
      <!-- 1.0 -->
      <g transform="translate(34.696875 66.271535)scale(0.1 -0.1)">
       <use xlink:href="#DejaVuSans-31"/>
       <use x="63.623047" xlink:href="#DejaVuSans-2e"/>
       <use x="95.410156" xlink:href="#DejaVuSans-30"/>
      </g>
     </g>
    </g>
    <g id="text_14">
     <!-- Y -->
     <defs>
      <path d="M -0.203125 72.90625 
L 10.40625 72.90625 
L 30.609375 42.921875 
L 50.6875 72.90625 
L 61.28125 72.90625 
L 35.5 34.71875 
L 35.5 0 
L 25.59375 0 
L 25.59375 34.71875 
z
" id="DejaVuSans-59"/>
     </defs>
     <g transform="translate(20.2375 177.581906)rotate(-90)scale(0.1 -0.1)">
      <use xlink:href="#DejaVuSans-59"/>
     </g>
    </g>
   </g>
   <g id="LineCollection_1">
    <path clip-path="url(#p20848382ff)" d="M 197.42071 153.34773 
L 195.032 154.368 
L 194.676364 154.561232 
L 191.069091 156.961892 
L 190.944501 157.056 
L 187.461818 159.683625 
L 187.389354 159.744 
L 184.448127 162.432 
L 183.854545 163.05681 
L 181.913866 165.12 
L 180.247273 166.934637 
L 179.400579 167.808 
L 177.1924 170.496 
L 176.64 171.880811 
L 176.14396 173.184 
L 175.057725 175.872 
L 174.188508 178.56 
L 174.036966 181.248 
L 173.961271 183.936 
L 173.851414 186.624 
L 174.192474 189.312 
L 175.014247 192 
L 175.427612 194.688 
L 176.466854 197.376 
L 176.64 197.684539 
L 177.864396 200.064 
L 179.220026 202.752 
L 180.247273 204.189565 
L 181.116259 205.44 
L 183.538976 208.128 
L 183.854545 208.451704 
L 186.315904 210.816 
L 187.461818 211.732058 
L 189.932176 213.504 
L 191.069091 214.231631 
L 194.676364 215.975975 
L 195.285633 216.192 
L 198.283636 217.542909 
L 201.890909 218.857369 
L 201.9831 218.88 
L 205.498182 219.839266 
L 209.105455 220.534838 
L 212.712727 220.873228 
L 216.32 220.846054 
L 219.927273 220.337582 
L 223.534545 219.228534 
L 224.314049 218.88 
L 227.141818 218.112228 
L 230.749091 216.65447 
L 231.533315 216.192 
L 234.356364 214.136238 
L 235.161988 213.504 
L 237.963636 211.129238 
L 238.335436 210.816 
L 241.216055 208.128 
L 241.570909 207.751062 
L 243.736085 205.44 
L 245.178182 203.513724 
L 245.76433 202.752 
L 247.416696 200.064 
L 248.577375 197.376 
L 248.785455 196.762388 
L 249.560309 194.688 
L 250.42653 192 
L 250.928751 189.312 
L 250.983967 186.624 
L 250.977525 183.936 
L 250.968649 181.248 
L 250.834191 178.56 
L 249.399205 175.872 
L 248.785455 174.879204 
L 247.838756 173.184 
L 246.881936 170.496 
L 245.40131 167.808 
L 245.178182 167.519232 
L 243.338688 165.12 
L 241.570909 163.349213 
L 240.638451 162.432 
L 237.963636 160.177721 
L 237.431625 159.744 
L 234.356364 157.42034 
L 233.805879 157.056 
L 230.749091 155.140727 
L 229.138742 154.368 
L 227.925499 153.8487 
" style="fill:none;stroke:#000000;stroke-width:1.5;"/>
   </g>
   <g id="LineCollection_2">
    <path clip-path="url(#p20848382ff)" d="M 235.842243 201.262505 
L 236.79927 200.064 
L 237.963636 198.156946 
L 238.459559 197.376 
L 239.84622 194.688 
L 240.823461 192 
L 241.394475 189.312 
L 241.570909 186.927757 
L 241.596032 186.624 
L 241.67887 183.936 
L 241.570909 182.743446 
L 241.443242 181.248 
L 240.602905 178.56 
L 239.302805 175.872 
L 237.963636 173.645921 
L 237.71145 173.184 
L 236.003383 170.496 
L 234.356364 168.507108 
L 233.731624 167.808 
L 230.807839 165.12 
L 230.749091 165.077075 
L 227.141818 162.965595 
L 225.916924 162.432 
L 223.534545 161.366012 
L 219.927273 160.17939 
L 218.174755 159.744 
L 216.32 159.231152 
L 212.712727 158.716176 
L 209.105455 158.827232 
L 205.498182 159.520199 
L 204.731775 159.744 
L 201.890909 160.456343 
L 198.283636 161.698036 
L 196.865774 162.432 
L 194.676364 164.221317 
L 193.739707 165.12 
L 191.078695 167.808 
L 191.069091 167.818041 
L 188.8137 170.496 
L 187.461818 172.434637 
L 186.89341 173.184 
L 185.324408 175.872 
L 184.279329 178.56 
L 183.854545 180.374366 
L 183.640994 181.248 
L 183.281887 183.936 
L 183.194879 186.624 
L 183.580121 189.312 
L 183.854545 190.291734 
L 184.266088 192 
L 185.093269 194.688 
L 186.361161 197.376 
L 187.461818 199.120497 
L 188.049438 200.064 
L 189.981118 202.752 
L 191.069091 203.977269 
L 192.531654 205.44 
L 194.676364 206.873734 
L 197.237403 208.128 
L 198.283636 208.831331 
L 201.890909 210.624037 
L 202.502564 210.816 
L 205.498182 211.71163 
L 208.286583 212.339377 
" style="fill:none;stroke:#000000;stroke-width:1.5;"/>
   </g>
   <g id="LineCollection_3">
    <path clip-path="url(#p20848382ff)" d="M 201.204729 204.245779 
L 201.890909 204.616823 
L 204.074361 205.44 
L 205.498182 205.941867 
L 209.105455 206.847361 
L 212.712727 207.11087 
L 216.32 206.682533 
L 219.927273 205.83407 
L 221.093455 205.44 
L 223.534545 204.429993 
L 226.163563 202.752 
L 227.141818 201.83976 
L 228.787049 200.064 
L 230.749091 197.769259 
L 231.033788 197.376 
L 232.860122 194.688 
L 233.867128 192 
L 234.356364 190.079723 
L 234.57595 189.312 
L 234.922195 186.624 
L 234.971798 183.936 
L 234.539756 181.248 
L 234.356364 180.634798 
L 233.828283 178.56 
L 232.601126 175.872 
L 230.749091 173.358136 
L 230.623233 173.184 
L 227.824575 170.496 
L 227.141818 169.894484 
L 224.238623 167.808 
L 223.534545 167.395798 
L 219.927273 165.84731 
L 217.40645 165.12 
L 216.32 164.848619 
L 212.712727 164.418782 
L 209.105455 164.594601 
L 206.876378 165.12 
L 205.498182 165.493694 
L 201.890909 167.382627 
L 201.318705 167.808 
L 198.283636 169.72154 
L 197.277973 170.496 
L 195.133142 173.184 
L 194.676364 173.792189 
L 193.206614 175.872 
L 191.958843 177.983953 
" style="fill:none;stroke:#000000;stroke-width:1.5;"/>
   </g>
   <g id="LineCollection_4">
    <path clip-path="url(#p20848382ff)" d="M 214.01662 169.500878 
L 212.712727 169.326316 
L 209.105455 169.952991 
L 207.834583 170.496 
L 205.498182 171.605521 
L 203.116377 173.184 
L 201.890909 174.256952 
L 200.382127 175.872 
L 198.283636 178.447727 
L 198.199719 178.56 
L 196.997163 181.248 
L 195.303276 183.936 
L 194.857719 186.624 
L 195.752623 189.312 
L 196.825751 192 
L 197.430184 194.688 
L 198.283636 195.611585 
L 200.515709 197.376 
L 201.890909 198.295404 
L 204.972564 200.064 
L 205.498182 200.385128 
L 209.105455 201.680444 
L 212.712727 201.975704 
L 216.32 201.307414 
L 218.970279 200.064 
L 219.927273 199.622269 
L 223.507158 197.376 
L 223.534545 197.358736 
L 226.796716 194.688 
L 227.141818 194.121064 
L 228.197247 192 
L 228.25211 191.756915 
" style="fill:none;stroke:#000000;stroke-width:1.5;"/>
   </g>
   <g id="LineCollection_5">
    <path clip-path="url(#p20848382ff)" d="M 205.498182 194.839732 
L 209.105455 196.250519 
L 212.712727 196.604732 
L 216.32 195.710648 
L 218.542637 194.688 
L 219.927273 193.558531 
L 221.238499 192 
L 221.89107 189.312 
L 222.840211 186.624 
L 223.534545 185.022282 
L 223.932466 183.936 
L 223.534545 181.95514 
L 223.32891 181.248 
L 220.935023 178.56 
L 219.927273 176.908214 
L 218.821213 175.872 
L 216.32 174.685099 
L 212.712727 174.498172 
L 209.182682 175.872 
L 209.105455 175.906369 
L 205.743106 178.56 
L 205.498182 178.78877 
L 203.382399 181.248 
L 201.890909 183.070808 
L 201.249316 183.936 
L 200.676618 186.624 
L 201.890909 188.78471 
L 202.219864 189.312 
L 203.672012 192 
L 205.239746 194.688 
L 205.498182 194.839732 
" style="fill:none;stroke:#000000;stroke-width:1.5;"/>
   </g>
   <g id="LineCollection_6">
    <path clip-path="url(#p20848382ff)" d="M 212.712727 186.666222 
L 212.745585 186.624 
L 212.712727 186.259811 
L 212.637017 186.624 
L 212.712727 186.666222 
" style="fill:none;stroke:#000000;stroke-width:1.5;"/>
   </g>
   <g id="line2d_13">
    <path clip-path="url(#p20848382ff)" d="M 57.6 209.555525 
L 57.6 139.500475 
L 57.6 139.500475 
" style="fill:none;stroke:#000000;stroke-linecap:square;stroke-width:0.1;"/>
   </g>
   <g id="line2d_14">
    <path clip-path="url(#p20848382ff)" d="M 60.184272 209.800185 
L 60.184272 139.255815 
L 60.184272 139.255815 
" style="fill:none;stroke:#000000;stroke-linecap:square;stroke-width:0.1;"/>
   </g>
   <g id="line2d_15">
    <path clip-path="url(#p20848382ff)" d="M 66.2141 210.389864 
L 66.2141 138.666136 
L 66.2141 138.666136 
" style="fill:none;stroke:#000000;stroke-linecap:square;stroke-width:0.1;"/>
   </g>
   <g id="line2d_16">
    <path clip-path="url(#p20848382ff)" d="M 75.55268 211.361973 
L 75.55268 137.694027 
L 75.55268 137.694027 
" style="fill:none;stroke:#000000;stroke-linecap:square;stroke-width:0.1;"/>
   </g>
   <g id="line2d_17">
    <path clip-path="url(#p20848382ff)" d="M 88.017501 212.794096 
L 88.017501 136.261904 
L 88.017501 136.261904 
" style="fill:none;stroke:#000000;stroke-linecap:square;stroke-width:0.1;"/>
   </g>
   <g id="line2d_18">
    <path clip-path="url(#p20848382ff)" d="M 103.365814 214.827182 
L 103.365814 134.228818 
L 103.365814 134.228818 
" style="fill:none;stroke:#000000;stroke-linecap:square;stroke-width:0.1;"/>
   </g>
   <g id="line2d_19">
    <path clip-path="url(#p20848382ff)" d="M 121.298843 217.702901 
L 121.298843 131.353099 
L 121.298843 131.353099 
" style="fill:none;stroke:#000000;stroke-linecap:square;stroke-width:0.1;"/>
   </g>
   <g id="line2d_20">
    <path clip-path="url(#p20848382ff)" d="M 141.46753 221.804628 
L 141.46753 127.251372 
L 141.46753 127.251372 
" style="fill:none;stroke:#000000;stroke-linecap:square;stroke-width:0.1;"/>
   </g>
   <g id="line2d_21">
    <path clip-path="url(#p20848382ff)" d="M 163.479305 227.65974 
L 163.479305 121.39626 
L 163.479305 121.39626 
" style="fill:none;stroke:#000000;stroke-linecap:square;stroke-width:0.1;"/>
   </g>
   <g id="line2d_22">
    <path clip-path="url(#p20848382ff)" d="M 186.905733 235.799223 
L 186.905733 113.256777 
L 186.905733 113.256777 
" style="fill:none;stroke:#000000;stroke-linecap:square;stroke-width:0.1;"/>
   </g>
   <g id="line2d_23">
    <path clip-path="url(#p20848382ff)" d="M 211.290841 246.358462 
L 211.290841 102.697538 
L 211.290841 102.697538 
" style="fill:none;stroke:#000000;stroke-linecap:square;stroke-width:0.1;"/>
   </g>
   <g id="line2d_24">
    <path clip-path="url(#p20848382ff)" d="M 236.16 258.569763 
L 236.16 90.486237 
L 236.16 90.486237 
" style="fill:none;stroke:#000000;stroke-linecap:square;stroke-width:0.1;"/>
   </g>
   <g id="line2d_25">
    <path clip-path="url(#p20848382ff)" d="M 261.029159 270.781063 
L 261.029159 78.274937 
L 261.029159 78.274937 
" style="fill:none;stroke:#000000;stroke-linecap:square;stroke-width:0.1;"/>
   </g>
   <g id="line2d_26">
    <path clip-path="url(#p20848382ff)" d="M 285.414267 281.340302 
L 285.414267 67.715698 
L 285.414267 67.715698 
" style="fill:none;stroke:#000000;stroke-linecap:square;stroke-width:0.1;"/>
   </g>
   <g id="line2d_27">
    <path clip-path="url(#p20848382ff)" d="M 308.840695 289.479785 
L 308.840695 59.576215 
L 308.840695 59.576215 
" style="fill:none;stroke:#000000;stroke-linecap:square;stroke-width:0.1;"/>
   </g>
   <g id="line2d_28">
    <path clip-path="url(#p20848382ff)" d="M 330.85247 295.334897 
L 330.85247 53.721103 
L 330.85247 53.721103 
" style="fill:none;stroke:#000000;stroke-linecap:square;stroke-width:0.1;"/>
   </g>
   <g id="line2d_29">
    <path clip-path="url(#p20848382ff)" d="M 351.021157 299.436624 
L 351.021157 49.619376 
L 351.021157 49.619376 
" style="fill:none;stroke:#000000;stroke-linecap:square;stroke-width:0.1;"/>
   </g>
   <g id="line2d_30">
    <path clip-path="url(#p20848382ff)" d="M 368.954186 302.312344 
L 368.954186 46.743656 
L 368.954186 46.743656 
" style="fill:none;stroke:#000000;stroke-linecap:square;stroke-width:0.1;"/>
   </g>
   <g id="line2d_31">
    <path clip-path="url(#p20848382ff)" d="M 384.302499 304.345429 
L 384.302499 44.710571 
L 384.302499 44.710571 
" style="fill:none;stroke:#000000;stroke-linecap:square;stroke-width:0.1;"/>
   </g>
   <g id="line2d_32">
    <path clip-path="url(#p20848382ff)" d="M 396.76732 305.777553 
L 396.76732 43.278447 
L 396.76732 43.278447 
" style="fill:none;stroke:#000000;stroke-linecap:square;stroke-width:0.1;"/>
   </g>
   <g id="line2d_33">
    <path clip-path="url(#p20848382ff)" d="M 406.1059 306.749661 
L 406.1059 42.306339 
L 406.1059 42.306339 
" style="fill:none;stroke:#000000;stroke-linecap:square;stroke-width:0.1;"/>
   </g>
   <g id="line2d_34">
    <path clip-path="url(#p20848382ff)" d="M 412.135728 307.33934 
L 412.135728 41.71666 
L 412.135728 41.71666 
" style="fill:none;stroke:#000000;stroke-linecap:square;stroke-width:0.1;"/>
   </g>
   <g id="line2d_35">
    <path clip-path="url(#p20848382ff)" d="M 414.72 307.584 
L 414.72 41.472 
L 414.72 41.472 
" style="fill:none;stroke:#000000;stroke-linecap:square;stroke-width:0.1;"/>
   </g>
   <g id="line2d_36">
    <path clip-path="url(#p20848382ff)" d="M 57.6 209.555525 
L 74.776112 211.27813 
L 89.089539 212.925595 
L 101.971623 214.628044 
L 113.422365 216.363103 
L 124.157435 218.222358 
L 133.461162 220.048965 
L 142.76489 222.106507 
L 151.352946 224.2358 
L 159.941002 226.607372 
L 167.813387 229.011318 
L 175.685772 231.644496 
L 183.558156 234.509804 
L 191.430541 237.609086 
L 200.018597 241.242066 
L 209.322325 245.439229 
L 219.341723 250.213637 
L 233.65515 257.313207 
L 255.125291 267.967335 
L 265.144689 272.690992 
L 274.448417 276.828741 
L 283.036473 280.398643 
L 290.908858 283.434344 
L 298.781242 286.236076 
L 306.653627 288.806414 
L 314.526012 291.148883 
L 323.114068 293.45796 
L 331.702124 295.529893 
L 341.005852 297.531496 
L 350.309579 299.309045 
L 360.328978 301.006366 
L 371.779719 302.712697 
L 383.946132 304.301875 
L 398.259559 305.938156 
L 414.72 307.584 
L 414.72 307.584 
" style="fill:none;stroke:#000000;stroke-linecap:square;stroke-width:0.1;"/>
   </g>
   <g id="line2d_37">
    <path clip-path="url(#p20848382ff)" d="M 57.6 209.048578 
L 74.776112 210.746251 
L 89.089539 212.369873 
L 101.971623 214.047682 
L 113.422365 215.757629 
L 124.157435 217.589976 
L 134.176834 219.537674 
L 143.480561 221.584157 
L 152.068617 223.701759 
L 160.656673 226.059818 
L 168.529058 228.449322 
L 176.401443 231.065077 
L 184.273828 233.909845 
L 192.146212 236.984976 
L 200.734269 240.585665 
L 210.037996 244.741132 
L 220.057395 249.462194 
L 235.086493 256.822616 
L 255.125291 266.615002 
L 265.144689 271.270295 
L 274.448417 275.348159 
L 283.036473 278.866393 
L 290.908858 281.858159 
L 298.781242 284.619342 
L 306.653627 287.15248 
L 314.526012 289.461047 
L 323.114068 291.736705 
L 331.702124 293.778651 
L 341.005852 295.751286 
L 351.025251 297.629561 
L 361.760321 299.398614 
L 373.211062 301.052656 
L 386.093146 302.679976 
L 400.406573 304.260415 
L 414.72 305.658302 
L 414.72 305.658302 
" style="fill:none;stroke:#000000;stroke-linecap:square;stroke-width:0.1;"/>
   </g>
   <g id="line2d_38">
    <path clip-path="url(#p20848382ff)" d="M 57.6 207.865726 
L 74.776112 209.505228 
L 89.80521 211.157531 
L 102.687295 212.790452 
L 114.138036 214.455745 
L 124.873106 216.241025 
L 134.892505 218.139198 
L 144.196232 220.1338 
L 152.784289 222.197447 
L 161.372345 224.494941 
L 169.244729 226.822279 
L 177.117114 229.368404 
L 184.989499 232.135929 
L 192.861884 235.125564 
L 201.44994 238.62226 
L 210.753667 242.65351 
L 221.488737 247.561297 
L 238.66485 255.711353 
L 255.840962 263.788155 
L 265.860361 268.267007 
L 275.164088 272.185841 
L 283.752144 275.563093 
L 291.624529 278.432063 
L 299.496914 281.078506 
L 307.369299 283.504953 
L 315.241683 285.715091 
L 323.829739 287.893218 
L 332.417796 289.847273 
L 341.721523 291.734904 
L 351.740922 293.532511 
L 362.475992 295.226095 
L 373.926733 296.810391 
L 386.808818 298.370168 
L 401.837916 299.957221 
L 414.72 301.165106 
L 414.72 301.165106 
" style="fill:none;stroke:#000000;stroke-linecap:square;stroke-width:0.1;"/>
   </g>
   <g id="line2d_39">
    <path clip-path="url(#p20848382ff)" d="M 57.6 206.033807 
L 75.491784 207.6527 
L 90.520882 209.224996 
L 103.402966 210.780255 
L 115.569379 212.473981 
L 126.304449 214.191376 
L 136.323848 216.018291 
L 145.627575 217.938225 
L 154.215631 219.924025 
L 162.803687 222.133899 
L 171.391743 224.584321 
L 179.9798 227.281643 
L 188.567856 230.228983 
L 197.155912 233.420654 
L 206.459639 237.124146 
L 216.479038 241.356884 
L 229.361122 247.056585 
L 257.987976 259.808893 
L 268.007375 263.991555 
L 277.311102 267.639039 
L 285.899158 270.771605 
L 294.487214 273.656173 
L 303.075271 276.291474 
L 311.663327 278.680752 
L 320.251383 280.832876 
L 328.839439 282.765543 
L 338.143166 284.633301 
L 348.162565 286.410901 
L 358.897635 288.083224 
L 370.348377 289.643838 
L 383.230461 291.17512 
L 398.259559 292.72599 
L 414.72 294.206358 
L 414.72 294.206358 
" style="fill:none;stroke:#000000;stroke-linecap:square;stroke-width:0.1;"/>
   </g>
   <g id="line2d_40">
    <path clip-path="url(#p20848382ff)" d="M 57.6 203.588624 
L 76.207455 205.146372 
L 91.952224 206.681879 
L 105.54998 208.226417 
L 117.716393 209.829175 
L 128.451463 211.456278 
L 138.470862 213.18831 
L 147.774589 215.008609 
L 157.078317 217.056463 
L 165.666373 219.167469 
L 174.254429 221.503301 
L 182.842485 224.067843 
L 191.430541 226.863292 
L 200.734269 230.137644 
L 210.753667 233.91327 
L 222.204409 238.482994 
L 242.243206 246.78244 
L 257.987976 253.190196 
L 268.723046 257.314957 
L 278.026774 260.661744 
L 286.61483 263.532664 
L 295.202886 266.174088 
L 303.790942 268.585833 
L 312.378998 270.770973 
L 320.967054 272.73855 
L 330.270782 274.643796 
L 340.29018 276.45716 
L 351.025251 278.159184 
L 362.475992 279.740997 
L 375.358076 281.282467 
L 389.671503 282.760369 
L 406.131944 284.228009 
L 414.72 284.918057 
L 414.72 284.918057 
" style="fill:none;stroke:#000000;stroke-linecap:square;stroke-width:0.1;"/>
   </g>
   <g id="line2d_41">
    <path clip-path="url(#p20848382ff)" d="M 57.6 200.577797 
L 76.923126 202.032341 
L 93.383567 203.486827 
L 107.696994 204.973746 
L 119.863407 206.448096 
L 131.314148 208.053794 
L 142.049218 209.787592 
L 152.068617 211.63533 
L 161.372345 213.571715 
L 170.676072 215.739229 
L 179.9798 218.146043 
L 189.283527 220.795412 
L 198.587255 223.67997 
L 208.606653 227.017695 
L 220.057395 231.074578 
L 237.949178 237.697009 
L 257.272305 244.786116 
L 268.723046 248.737809 
L 278.742445 251.959836 
L 288.046172 254.720365 
L 297.3499 257.238759 
L 306.653627 259.51629 
L 315.957355 261.557476 
L 325.261082 263.37678 
L 335.280481 265.110172 
L 346.015551 266.736203 
L 357.466293 268.24433 
L 370.348377 269.708681 
L 384.661804 271.105119 
L 401.122244 272.481907 
L 414.72 273.481088 
L 414.72 273.481088 
" style="fill:none;stroke:#000000;stroke-linecap:square;stroke-width:0.1;"/>
   </g>
   <g id="line2d_42">
    <path clip-path="url(#p20848382ff)" d="M 57.6 197.059934 
L 78.354469 198.419695 
L 95.530581 199.756299 
L 110.559679 201.145695 
L 123.441764 202.550211 
L 135.608176 204.101531 
L 146.343246 205.686138 
L 157.078317 207.50212 
L 167.097715 209.428499 
L 177.117114 211.592926 
L 187.136513 213.99974 
L 197.155912 216.646119 
L 207.890982 219.716858 
L 220.057395 223.438314 
L 239.380521 229.628101 
L 257.987976 235.518134 
L 269.438717 238.922053 
L 280.173788 241.883715 
L 290.193186 244.41221 
L 300.212585 246.697383 
L 310.231984 248.741969 
L 320.251383 250.553806 
L 330.986453 252.258556 
L 342.437194 253.836491 
L 354.603607 255.279525 
L 368.201363 256.657007 
L 383.230461 257.950244 
L 401.122244 259.25384 
L 414.72 260.118088 
L 414.72 260.118088 
" style="fill:none;stroke:#000000;stroke-linecap:square;stroke-width:0.1;"/>
   </g>
   <g id="line2d_43">
    <path clip-path="url(#p20848382ff)" d="M 57.6 193.103509 
L 80.501483 194.352298 
L 99.108938 195.581805 
L 114.853707 196.83772 
L 128.451463 198.132502 
L 141.333547 199.58297 
L 152.784289 201.089027 
L 163.519359 202.710843 
L 174.254429 204.554544 
L 184.989499 206.626668 
L 195.724569 208.927485 
L 207.175311 211.607682 
L 220.057395 214.85006 
L 242.243206 220.712933 
L 260.13499 225.348935 
L 272.301403 228.285418 
L 283.752144 230.823931 
L 294.487214 232.97298 
L 305.222285 234.892418 
L 315.957355 236.586711 
L 327.408096 238.162383 
L 339.574509 239.603028 
L 352.456593 240.903189 
L 366.77002 242.124693 
L 383.230461 243.301976 
L 402.553587 244.455371 
L 414.72 245.089164 
L 414.72 245.089164 
" style="fill:none;stroke:#000000;stroke-linecap:square;stroke-width:0.1;"/>
   </g>
   <g id="line2d_44">
    <path clip-path="url(#p20848382ff)" d="M 57.6 188.785532 
L 83.364168 189.877946 
L 104.118637 190.9756 
L 121.294749 192.101525 
L 136.323848 193.303876 
L 149.921603 194.609887 
L 162.803687 196.071412 
L 174.9701 197.675256 
L 187.136513 199.504534 
L 199.302926 201.556133 
L 212.900681 204.07474 
L 230.792465 207.641042 
L 262.282004 213.945263 
L 275.87976 216.417608 
L 288.046172 218.418752 
L 300.212585 220.194621 
L 312.378998 221.746091 
L 325.261082 223.156568 
L 338.858838 224.415612 
L 353.887936 225.575179 
L 371.064048 226.663248 
L 391.102846 227.695203 
L 414.72 228.68684 
L 414.72 228.68684 
" style="fill:none;stroke:#000000;stroke-linecap:square;stroke-width:0.1;"/>
   </g>
   <g id="line2d_45">
    <path clip-path="url(#p20848382ff)" d="M 57.6 184.190047 
L 88.373868 185.095394 
L 111.991022 186.004431 
L 131.314148 186.962945 
L 148.490261 188.036548 
L 164.23503 189.247575 
L 179.264128 190.63438 
L 194.293226 192.254761 
L 210.037996 194.180121 
L 230.076794 196.869337 
L 265.860361 201.69574 
L 282.320802 203.652208 
L 296.634228 205.137318 
L 311.663327 206.469056 
L 327.408096 207.62741 
L 343.868537 208.614544 
L 363.191663 209.539624 
L 386.093146 210.396763 
L 414.72 211.230373 
L 414.72 211.230373 
" style="fill:none;stroke:#000000;stroke-linecap:square;stroke-width:0.1;"/>
   </g>
   <g id="line2d_46">
    <path clip-path="url(#p20848382ff)" d="M 57.6 179.406501 
L 99.108938 180.057377 
L 128.451463 180.727269 
L 152.068617 181.477311 
L 173.538758 182.379758 
L 194.293226 183.478486 
L 217.194709 184.92416 
L 284.467816 189.352563 
L 305.222285 190.381555 
L 326.692425 191.216201 
L 350.309579 191.907031 
L 378.936433 192.514743 
L 414.72 193.059535 
L 414.72 193.059535 
" style="fill:none;stroke:#000000;stroke-linecap:square;stroke-width:0.1;"/>
   </g>
   <g id="line2d_47">
    <path clip-path="url(#p20848382ff)" d="M 57.6 174.528 
L 414.72 174.528 
L 414.72 174.528 
" style="fill:none;stroke:#000000;stroke-linecap:square;stroke-width:0.1;"/>
   </g>
   <g id="line2d_48">
    <path clip-path="url(#p20848382ff)" d="M 57.6 169.649499 
L 99.108938 168.998623 
L 128.451463 168.328731 
L 152.068617 167.578689 
L 173.538758 166.676242 
L 194.293226 165.577514 
L 217.194709 164.13184 
L 284.467816 159.703437 
L 305.222285 158.674445 
L 326.692425 157.839799 
L 350.309579 157.148969 
L 378.936433 156.541257 
L 414.72 155.996465 
L 414.72 155.996465 
" style="fill:none;stroke:#000000;stroke-linecap:square;stroke-width:0.1;"/>
   </g>
   <g id="line2d_49">
    <path clip-path="url(#p20848382ff)" d="M 57.6 164.865953 
L 88.373868 163.960606 
L 111.991022 163.051569 
L 131.314148 162.093055 
L 148.490261 161.019452 
L 164.23503 159.808425 
L 179.264128 158.42162 
L 194.293226 156.801239 
L 210.037996 154.875879 
L 230.076794 152.186663 
L 265.860361 147.36026 
L 282.320802 145.403792 
L 296.634228 143.918682 
L 311.663327 142.586944 
L 327.408096 141.42859 
L 343.868537 140.441456 
L 363.191663 139.516376 
L 386.093146 138.659237 
L 414.72 137.825627 
L 414.72 137.825627 
" style="fill:none;stroke:#000000;stroke-linecap:square;stroke-width:0.1;"/>
   </g>
   <g id="line2d_50">
    <path clip-path="url(#p20848382ff)" d="M 57.6 160.270468 
L 83.364168 159.178054 
L 104.118637 158.0804 
L 121.294749 156.954475 
L 136.323848 155.752124 
L 149.921603 154.446113 
L 162.803687 152.984588 
L 174.9701 151.380744 
L 187.136513 149.551466 
L 199.302926 147.499867 
L 212.900681 144.98126 
L 230.792465 141.414958 
L 262.282004 135.110737 
L 275.87976 132.638392 
L 288.046172 130.637248 
L 300.212585 128.861379 
L 312.378998 127.309909 
L 325.261082 125.899432 
L 338.858838 124.640388 
L 353.887936 123.480821 
L 371.064048 122.392752 
L 391.102846 121.360797 
L 414.72 120.36916 
L 414.72 120.36916 
" style="fill:none;stroke:#000000;stroke-linecap:square;stroke-width:0.1;"/>
   </g>
   <g id="line2d_51">
    <path clip-path="url(#p20848382ff)" d="M 57.6 155.952491 
L 80.501483 154.703702 
L 99.108938 153.474195 
L 114.853707 152.21828 
L 128.451463 150.923498 
L 141.333547 149.47303 
L 152.784289 147.966973 
L 163.519359 146.345157 
L 174.254429 144.501456 
L 184.989499 142.429332 
L 195.724569 140.128515 
L 207.175311 137.448318 
L 220.057395 134.20594 
L 242.243206 128.343067 
L 260.13499 123.707065 
L 272.301403 120.770582 
L 283.752144 118.232069 
L 294.487214 116.08302 
L 305.222285 114.163582 
L 315.957355 112.469289 
L 327.408096 110.893617 
L 339.574509 109.452972 
L 352.456593 108.152811 
L 366.77002 106.931307 
L 383.230461 105.754024 
L 402.553587 104.600629 
L 414.72 103.966836 
L 414.72 103.966836 
" style="fill:none;stroke:#000000;stroke-linecap:square;stroke-width:0.1;"/>
   </g>
   <g id="line2d_52">
    <path clip-path="url(#p20848382ff)" d="M 57.6 151.996066 
L 78.354469 150.636305 
L 95.530581 149.299701 
L 110.559679 147.910305 
L 123.441764 146.505789 
L 135.608176 144.954469 
L 146.343246 143.369862 
L 157.078317 141.55388 
L 167.097715 139.627501 
L 177.117114 137.463074 
L 187.136513 135.05626 
L 197.155912 132.409881 
L 207.890982 129.339142 
L 220.057395 125.617686 
L 239.380521 119.427899 
L 257.987976 113.537866 
L 269.438717 110.133947 
L 280.173788 107.172285 
L 290.193186 104.64379 
L 300.212585 102.358617 
L 310.231984 100.314031 
L 320.251383 98.502194 
L 330.986453 96.797444 
L 342.437194 95.219509 
L 354.603607 93.776475 
L 368.201363 92.398993 
L 383.230461 91.105756 
L 401.122244 89.80216 
L 414.72 88.937912 
L 414.72 88.937912 
" style="fill:none;stroke:#000000;stroke-linecap:square;stroke-width:0.1;"/>
   </g>
   <g id="line2d_53">
    <path clip-path="url(#p20848382ff)" d="M 57.6 148.478203 
L 76.923126 147.023659 
L 93.383567 145.569173 
L 107.696994 144.082254 
L 119.863407 142.607904 
L 131.314148 141.002206 
L 142.049218 139.268408 
L 152.068617 137.42067 
L 161.372345 135.484285 
L 170.676072 133.316771 
L 179.9798 130.909957 
L 189.283527 128.260588 
L 198.587255 125.37603 
L 208.606653 122.038305 
L 220.057395 117.981422 
L 237.949178 111.358991 
L 257.272305 104.269884 
L 268.723046 100.318191 
L 278.742445 97.096164 
L 288.046172 94.335635 
L 297.3499 91.817241 
L 306.653627 89.53971 
L 315.957355 87.498524 
L 325.261082 85.67922 
L 335.280481 83.945828 
L 346.015551 82.319797 
L 357.466293 80.81167 
L 370.348377 79.347319 
L 384.661804 77.950881 
L 401.122244 76.574093 
L 414.72 75.574912 
L 414.72 75.574912 
" style="fill:none;stroke:#000000;stroke-linecap:square;stroke-width:0.1;"/>
   </g>
   <g id="line2d_54">
    <path clip-path="url(#p20848382ff)" d="M 57.6 145.467376 
L 76.207455 143.909628 
L 91.952224 142.374121 
L 105.54998 140.829583 
L 117.716393 139.226825 
L 128.451463 137.599722 
L 138.470862 135.86769 
L 147.774589 134.047391 
L 157.078317 131.999537 
L 165.666373 129.888531 
L 174.254429 127.552699 
L 182.842485 124.988157 
L 191.430541 122.192708 
L 200.734269 118.918356 
L 210.753667 115.14273 
L 222.204409 110.573006 
L 242.243206 102.27356 
L 257.987976 95.865804 
L 268.723046 91.741043 
L 278.026774 88.394256 
L 286.61483 85.523336 
L 295.202886 82.881912 
L 303.790942 80.470167 
L 312.378998 78.285027 
L 320.967054 76.31745 
L 330.270782 74.412204 
L 340.29018 72.59884 
L 351.025251 70.896816 
L 362.475992 69.315003 
L 375.358076 67.773533 
L 389.671503 66.295631 
L 406.131944 64.827991 
L 414.72 64.137943 
L 414.72 64.137943 
" style="fill:none;stroke:#000000;stroke-linecap:square;stroke-width:0.1;"/>
   </g>
   <g id="line2d_55">
    <path clip-path="url(#p20848382ff)" d="M 57.6 143.022193 
L 75.491784 141.4033 
L 90.520882 139.831004 
L 103.402966 138.275745 
L 115.569379 136.582019 
L 126.304449 134.864624 
L 136.323848 133.037709 
L 145.627575 131.117775 
L 154.215631 129.131975 
L 162.803687 126.922101 
L 171.391743 124.471679 
L 179.9798 121.774357 
L 188.567856 118.827017 
L 197.155912 115.635346 
L 206.459639 111.931854 
L 216.479038 107.699116 
L 229.361122 101.999415 
L 257.987976 89.247107 
L 268.007375 85.064445 
L 277.311102 81.416961 
L 285.899158 78.284395 
L 294.487214 75.399827 
L 303.075271 72.764526 
L 311.663327 70.375248 
L 320.251383 68.223124 
L 328.839439 66.290457 
L 338.143166 64.422699 
L 348.162565 62.645099 
L 358.897635 60.972776 
L 370.348377 59.412162 
L 383.230461 57.88088 
L 398.259559 56.33001 
L 414.72 54.849642 
L 414.72 54.849642 
" style="fill:none;stroke:#000000;stroke-linecap:square;stroke-width:0.1;"/>
   </g>
   <g id="line2d_56">
    <path clip-path="url(#p20848382ff)" d="M 57.6 141.190274 
L 74.776112 139.550772 
L 89.80521 137.898469 
L 102.687295 136.265548 
L 114.138036 134.600255 
L 124.873106 132.814975 
L 134.892505 130.916802 
L 144.196232 128.9222 
L 152.784289 126.858553 
L 161.372345 124.561059 
L 169.244729 122.233721 
L 177.117114 119.687596 
L 184.989499 116.920071 
L 192.861884 113.930436 
L 201.44994 110.43374 
L 210.753667 106.40249 
L 221.488737 101.494703 
L 238.66485 93.344647 
L 255.840962 85.267845 
L 265.860361 80.788993 
L 275.164088 76.870159 
L 283.752144 73.492907 
L 291.624529 70.623937 
L 299.496914 67.977494 
L 307.369299 65.551047 
L 315.241683 63.340909 
L 323.829739 61.162782 
L 332.417796 59.208727 
L 341.721523 57.321096 
L 351.740922 55.523489 
L 362.475992 53.829905 
L 373.926733 52.245609 
L 386.808818 50.685832 
L 401.837916 49.098779 
L 414.72 47.890894 
L 414.72 47.890894 
" style="fill:none;stroke:#000000;stroke-linecap:square;stroke-width:0.1;"/>
   </g>
   <g id="line2d_57">
    <path clip-path="url(#p20848382ff)" d="M 57.6 140.007422 
L 74.776112 138.309749 
L 89.089539 136.686127 
L 101.971623 135.008318 
L 113.422365 133.298371 
L 124.157435 131.466024 
L 134.176834 129.518326 
L 143.480561 127.471843 
L 152.068617 125.354241 
L 160.656673 122.996182 
L 168.529058 120.606678 
L 176.401443 117.990923 
L 184.273828 115.146155 
L 192.146212 112.071024 
L 200.734269 108.470335 
L 210.037996 104.314868 
L 220.057395 99.593806 
L 235.086493 92.233384 
L 255.125291 82.440998 
L 265.144689 77.785705 
L 274.448417 73.707841 
L 283.036473 70.189607 
L 290.908858 67.197841 
L 298.781242 64.436658 
L 306.653627 61.90352 
L 314.526012 59.594953 
L 323.114068 57.319295 
L 331.702124 55.277349 
L 341.005852 53.304714 
L 351.025251 51.426439 
L 361.760321 49.657386 
L 373.211062 48.003344 
L 386.093146 46.376024 
L 400.406573 44.795585 
L 414.72 43.397698 
L 414.72 43.397698 
" style="fill:none;stroke:#000000;stroke-linecap:square;stroke-width:0.1;"/>
   </g>
   <g id="line2d_58">
    <path clip-path="url(#p20848382ff)" d="M 57.6 139.500475 
L 74.776112 137.77787 
L 89.089539 136.130405 
L 101.971623 134.427956 
L 113.422365 132.692897 
L 124.157435 130.833642 
L 133.461162 129.007035 
L 142.76489 126.949493 
L 151.352946 124.8202 
L 159.941002 122.448628 
L 167.813387 120.044682 
L 175.685772 117.411504 
L 183.558156 114.546196 
L 191.430541 111.446914 
L 200.018597 107.813934 
L 209.322325 103.616771 
L 219.341723 98.842363 
L 233.65515 91.742793 
L 255.125291 81.088665 
L 265.144689 76.365008 
L 274.448417 72.227259 
L 283.036473 68.657357 
L 290.908858 65.621656 
L 298.781242 62.819924 
L 306.653627 60.249586 
L 314.526012 57.907117 
L 323.114068 55.59804 
L 331.702124 53.526107 
L 341.005852 51.524504 
L 350.309579 49.746955 
L 360.328978 48.049634 
L 371.779719 46.343303 
L 383.946132 44.754125 
L 398.259559 43.117844 
L 414.72 41.472 
L 414.72 41.472 
" style="fill:none;stroke:#000000;stroke-linecap:square;stroke-width:0.1;"/>
   </g>
   <g id="patch_3">
    <path d="M 57.6 307.584 
L 57.6 41.472 
" style="fill:none;stroke:#000000;stroke-linecap:square;stroke-linejoin:miter;stroke-width:0.8;"/>
   </g>
   <g id="patch_4">
    <path d="M 414.72 307.584 
L 414.72 41.472 
" style="fill:none;stroke:#000000;stroke-linecap:square;stroke-linejoin:miter;stroke-width:0.8;"/>
   </g>
   <g id="patch_5">
    <path d="M 57.6 307.584 
L 414.72 307.584 
" style="fill:none;stroke:#000000;stroke-linecap:square;stroke-linejoin:miter;stroke-width:0.8;"/>
   </g>
   <g id="patch_6">
    <path d="M 57.6 41.472 
L 414.72 41.472 
" style="fill:none;stroke:#000000;stroke-linecap:square;stroke-linejoin:miter;stroke-width:0.8;"/>
   </g>
   <g id="text_15">
    <g clip-path="url(#p20848382ff)">
     <!-- 0.142 -->
     <defs>
      <path d="M 37.796875 64.3125 
L 12.890625 25.390625 
L 37.796875 25.390625 
z
M 35.203125 72.90625 
L 47.609375 72.90625 
L 47.609375 25.390625 
L 58.015625 25.390625 
L 58.015625 17.1875 
L 47.609375 17.1875 
L 47.609375 0 
L 37.796875 0 
L 37.796875 17.1875 
L 4.890625 17.1875 
L 4.890625 26.703125 
z
" id="DejaVuSans-34"/>
      <path d="M 19.1875 8.296875 
L 53.609375 8.296875 
L 53.609375 0 
L 7.328125 0 
L 7.328125 8.296875 
Q 12.9375 14.109375 22.625 23.890625 
Q 32.328125 33.6875 34.8125 36.53125 
Q 39.546875 41.84375 41.421875 45.53125 
Q 43.3125 49.21875 43.3125 52.78125 
Q 43.3125 58.59375 39.234375 62.25 
Q 35.15625 65.921875 28.609375 65.921875 
Q 23.96875 65.921875 18.8125 64.3125 
Q 13.671875 62.703125 7.8125 59.421875 
L 7.8125 69.390625 
Q 13.765625 71.78125 18.9375 73 
Q 24.125 74.21875 28.421875 74.21875 
Q 39.75 74.21875 46.484375 68.546875 
Q 53.21875 62.890625 53.21875 53.421875 
Q 53.21875 48.921875 51.53125 44.890625 
Q 49.859375 40.875 45.40625 35.40625 
Q 44.1875 33.984375 37.640625 27.21875 
Q 31.109375 20.453125 19.1875 8.296875 
z
" id="DejaVuSans-32"/>
     </defs>
     <g transform="translate(201.225135 152.678173)rotate(-359.01255)scale(0.08 -0.08)">
      <use xlink:href="#DejaVuSans-30"/>
      <use x="63.623047" xlink:href="#DejaVuSans-2e"/>
      <use x="95.410156" xlink:href="#DejaVuSans-31"/>
      <use x="159.033203" xlink:href="#DejaVuSans-34"/>
      <use x="222.65625" xlink:href="#DejaVuSans-32"/>
     </g>
    </g>
   </g>
   <g id="text_16">
    <g clip-path="url(#p20848382ff)">
     <!-- 0.313 -->
     <defs>
      <path d="M 40.578125 39.3125 
Q 47.65625 37.796875 51.625 33 
Q 55.609375 28.21875 55.609375 21.1875 
Q 55.609375 10.40625 48.1875 4.484375 
Q 40.765625 -1.421875 27.09375 -1.421875 
Q 22.515625 -1.421875 17.65625 -0.515625 
Q 12.796875 0.390625 7.625 2.203125 
L 7.625 11.71875 
Q 11.71875 9.328125 16.59375 8.109375 
Q 21.484375 6.890625 26.8125 6.890625 
Q 36.078125 6.890625 40.9375 10.546875 
Q 45.796875 14.203125 45.796875 21.1875 
Q 45.796875 27.640625 41.28125 31.265625 
Q 36.765625 34.90625 28.71875 34.90625 
L 20.21875 34.90625 
L 20.21875 43.015625 
L 29.109375 43.015625 
Q 36.375 43.015625 40.234375 45.921875 
Q 44.09375 48.828125 44.09375 54.296875 
Q 44.09375 59.90625 40.109375 62.90625 
Q 36.140625 65.921875 28.71875 65.921875 
Q 24.65625 65.921875 20.015625 65.03125 
Q 15.375 64.15625 9.8125 62.3125 
L 9.8125 71.09375 
Q 15.4375 72.65625 20.34375 73.4375 
Q 25.25 74.21875 29.59375 74.21875 
Q 40.828125 74.21875 47.359375 69.109375 
Q 53.90625 64.015625 53.90625 55.328125 
Q 53.90625 49.265625 50.4375 45.09375 
Q 46.96875 40.921875 40.578125 39.3125 
z
" id="DejaVuSans-33"/>
     </defs>
     <g transform="translate(213.742306 216.815818)rotate(-21.984)scale(0.08 -0.08)">
      <use xlink:href="#DejaVuSans-30"/>
      <use x="63.623047" xlink:href="#DejaVuSans-2e"/>
      <use x="95.410156" xlink:href="#DejaVuSans-33"/>
      <use x="159.033203" xlink:href="#DejaVuSans-31"/>
      <use x="222.65625" xlink:href="#DejaVuSans-33"/>
     </g>
    </g>
   </g>
   <g id="text_17">
    <g clip-path="url(#p20848382ff)">
     <!-- 0.484 -->
     <defs>
      <path d="M 31.78125 34.625 
Q 24.75 34.625 20.71875 30.859375 
Q 16.703125 27.09375 16.703125 20.515625 
Q 16.703125 13.921875 20.71875 10.15625 
Q 24.75 6.390625 31.78125 6.390625 
Q 38.8125 6.390625 42.859375 10.171875 
Q 46.921875 13.96875 46.921875 20.515625 
Q 46.921875 27.09375 42.890625 30.859375 
Q 38.875 34.625 31.78125 34.625 
z
M 21.921875 38.8125 
Q 15.578125 40.375 12.03125 44.71875 
Q 8.5 49.078125 8.5 55.328125 
Q 8.5 64.0625 14.71875 69.140625 
Q 20.953125 74.21875 31.78125 74.21875 
Q 42.671875 74.21875 48.875 69.140625 
Q 55.078125 64.0625 55.078125 55.328125 
Q 55.078125 49.078125 51.53125 44.71875 
Q 48 40.375 41.703125 38.8125 
Q 48.828125 37.15625 52.796875 32.3125 
Q 56.78125 27.484375 56.78125 20.515625 
Q 56.78125 9.90625 50.3125 4.234375 
Q 43.84375 -1.421875 31.78125 -1.421875 
Q 19.734375 -1.421875 13.25 4.234375 
Q 6.78125 9.90625 6.78125 20.515625 
Q 6.78125 27.484375 10.78125 32.3125 
Q 14.796875 37.15625 21.921875 38.8125 
z
M 18.3125 54.390625 
Q 18.3125 48.734375 21.84375 45.5625 
Q 25.390625 42.390625 31.78125 42.390625 
Q 38.140625 42.390625 41.71875 45.5625 
Q 45.3125 48.734375 45.3125 54.390625 
Q 45.3125 60.0625 41.71875 63.234375 
Q 38.140625 66.40625 31.78125 66.40625 
Q 25.390625 66.40625 21.84375 63.234375 
Q 18.3125 60.0625 18.3125 54.390625 
z
" id="DejaVuSans-38"/>
     </defs>
     <g transform="translate(185.132538 182.956887)rotate(-289.689125)scale(0.08 -0.08)">
      <use xlink:href="#DejaVuSans-30"/>
      <use x="63.623047" xlink:href="#DejaVuSans-2e"/>
      <use x="95.410156" xlink:href="#DejaVuSans-34"/>
      <use x="159.033203" xlink:href="#DejaVuSans-38"/>
      <use x="222.65625" xlink:href="#DejaVuSans-34"/>
     </g>
    </g>
   </g>
   <g id="text_18">
    <g clip-path="url(#p20848382ff)">
     <!-- 0.654 -->
     <defs>
      <path d="M 33.015625 40.375 
Q 26.375 40.375 22.484375 35.828125 
Q 18.609375 31.296875 18.609375 23.390625 
Q 18.609375 15.53125 22.484375 10.953125 
Q 26.375 6.390625 33.015625 6.390625 
Q 39.65625 6.390625 43.53125 10.953125 
Q 47.40625 15.53125 47.40625 23.390625 
Q 47.40625 31.296875 43.53125 35.828125 
Q 39.65625 40.375 33.015625 40.375 
z
M 52.59375 71.296875 
L 52.59375 62.3125 
Q 48.875 64.0625 45.09375 64.984375 
Q 41.3125 65.921875 37.59375 65.921875 
Q 27.828125 65.921875 22.671875 59.328125 
Q 17.53125 52.734375 16.796875 39.40625 
Q 19.671875 43.65625 24.015625 45.921875 
Q 28.375 48.1875 33.59375 48.1875 
Q 44.578125 48.1875 50.953125 41.515625 
Q 57.328125 34.859375 57.328125 23.390625 
Q 57.328125 12.15625 50.6875 5.359375 
Q 44.046875 -1.421875 33.015625 -1.421875 
Q 20.359375 -1.421875 13.671875 8.265625 
Q 6.984375 17.96875 6.984375 36.375 
Q 6.984375 53.65625 15.1875 63.9375 
Q 23.390625 74.21875 37.203125 74.21875 
Q 40.921875 74.21875 44.703125 73.484375 
Q 48.484375 72.75 52.59375 71.296875 
z
" id="DejaVuSans-36"/>
     </defs>
     <g transform="translate(219.157673 168.312903)rotate(-302.294793)scale(0.08 -0.08)">
      <use xlink:href="#DejaVuSans-30"/>
      <use x="63.623047" xlink:href="#DejaVuSans-2e"/>
      <use x="95.410156" xlink:href="#DejaVuSans-36"/>
      <use x="159.033203" xlink:href="#DejaVuSans-35"/>
      <use x="222.65625" xlink:href="#DejaVuSans-34"/>
     </g>
    </g>
   </g>
  </g>
 </g>
 <defs>
  <clipPath id="p20848382ff">
   <rect height="266.112" width="357.12" x="57.6" y="41.472"/>
  </clipPath>
 </defs>
</svg>
