<?xml version="1.0" encoding="utf-8" standalone="no"?>
<!DOCTYPE svg PUBLIC "-//W3C//DTD SVG 1.1//EN"
  "http://www.w3.org/Graphics/SVG/1.1/DTD/svg11.dtd">
<!-- Created with matplotlib (http://matplotlib.org/) -->
<svg height="345pt" version="1.1" viewBox="0 0 460 345" width="460pt" xmlns="http://www.w3.org/2000/svg" xmlns:xlink="http://www.w3.org/1999/xlink">
 <defs>
  <style type="text/css">
*{stroke-linecap:butt;stroke-linejoin:round;}
  </style>
 </defs>
 <g id="figure_1">
  <g id="patch_1">
   <path d="M 0 345.6 
L 460.8 345.6 
L 460.8 0 
L 0 0 
z
" style="fill:#ffffff;"/>
  </g>
  <g id="axes_1">
   <g id="patch_2">
    <path d="M 57.6 307.584 
L 414.72 307.584 
L 414.72 41.472 
L 57.6 41.472 
z
" style="fill:#ffffff;"/>
   </g>
   <g id="matplotlib.axis_1">
    <g id="xtick_1">
     <g id="line2d_1">
      <defs>
       <path d="M 0 0 
L 0 3.5 
" id="mf03f492d46" style="stroke:#000000;stroke-width:0.8;"/>
      </defs>
      <g>
       <use style="stroke:#000000;stroke-width:0.8;" x="75.456" xlink:href="#mf03f492d46" y="307.584"/>
      </g>
     </g>
     <g id="text_1">
      <!-- −0.5 -->
      <defs>
       <path d="M 10.59375 35.5 
L 73.1875 35.5 
L 73.1875 27.203125 
L 10.59375 27.203125 
z
" id="DejaVuSans-2212"/>
       <path d="M 31.78125 66.40625 
Q 24.171875 66.40625 20.328125 58.90625 
Q 16.5 51.421875 16.5 36.375 
Q 16.5 21.390625 20.328125 13.890625 
Q 24.171875 6.390625 31.78125 6.390625 
Q 39.453125 6.390625 43.28125 13.890625 
Q 47.125 21.390625 47.125 36.375 
Q 47.125 51.421875 43.28125 58.90625 
Q 39.453125 66.40625 31.78125 66.40625 
z
M 31.78125 74.21875 
Q 44.046875 74.21875 50.515625 64.515625 
Q 56.984375 54.828125 56.984375 36.375 
Q 56.984375 17.96875 50.515625 8.265625 
Q 44.046875 -1.421875 31.78125 -1.421875 
Q 19.53125 -1.421875 13.0625 8.265625 
Q 6.59375 17.96875 6.59375 36.375 
Q 6.59375 54.828125 13.0625 64.515625 
Q 19.53125 74.21875 31.78125 74.21875 
z
" id="DejaVuSans-30"/>
       <path d="M 10.6875 12.40625 
L 21 12.40625 
L 21 0 
L 10.6875 0 
z
" id="DejaVuSans-2e"/>
       <path d="M 10.796875 72.90625 
L 49.515625 72.90625 
L 49.515625 64.59375 
L 19.828125 64.59375 
L 19.828125 46.734375 
Q 21.96875 47.46875 24.109375 47.828125 
Q 26.265625 48.1875 28.421875 48.1875 
Q 40.625 48.1875 47.75 41.5 
Q 54.890625 34.8125 54.890625 23.390625 
Q 54.890625 11.625 47.5625 5.09375 
Q 40.234375 -1.421875 26.90625 -1.421875 
Q 22.3125 -1.421875 17.546875 -0.640625 
Q 12.796875 0.140625 7.71875 1.703125 
L 7.71875 11.625 
Q 12.109375 9.234375 16.796875 8.0625 
Q 21.484375 6.890625 26.703125 6.890625 
Q 35.15625 6.890625 40.078125 11.328125 
Q 45.015625 15.765625 45.015625 23.390625 
Q 45.015625 31 40.078125 35.4375 
Q 35.15625 39.890625 26.703125 39.890625 
Q 22.75 39.890625 18.8125 39.015625 
Q 14.890625 38.140625 10.796875 36.28125 
z
" id="DejaVuSans-35"/>
      </defs>
      <g transform="translate(63.314594 322.182437)scale(0.1 -0.1)">
       <use xlink:href="#DejaVuSans-2212"/>
       <use x="83.789062" xlink:href="#DejaVuSans-30"/>
       <use x="147.412109" xlink:href="#DejaVuSans-2e"/>
       <use x="179.199219" xlink:href="#DejaVuSans-35"/>
      </g>
     </g>
    </g>
    <g id="xtick_2">
     <g id="line2d_2">
      <g>
       <use style="stroke:#000000;stroke-width:0.8;" x="129.024" xlink:href="#mf03f492d46" y="307.584"/>
      </g>
     </g>
     <g id="text_2">
      <!-- 0.0 -->
      <g transform="translate(121.072438 322.182437)scale(0.1 -0.1)">
       <use xlink:href="#DejaVuSans-30"/>
       <use x="63.623047" xlink:href="#DejaVuSans-2e"/>
       <use x="95.410156" xlink:href="#DejaVuSans-30"/>
      </g>
     </g>
    </g>
    <g id="xtick_3">
     <g id="line2d_3">
      <g>
       <use style="stroke:#000000;stroke-width:0.8;" x="182.592" xlink:href="#mf03f492d46" y="307.584"/>
      </g>
     </g>
     <g id="text_3">
      <!-- 0.5 -->
      <g transform="translate(174.640438 322.182437)scale(0.1 -0.1)">
       <use xlink:href="#DejaVuSans-30"/>
       <use x="63.623047" xlink:href="#DejaVuSans-2e"/>
       <use x="95.410156" xlink:href="#DejaVuSans-35"/>
      </g>
     </g>
    </g>
    <g id="xtick_4">
     <g id="line2d_4">
      <g>
       <use style="stroke:#000000;stroke-width:0.8;" x="236.16" xlink:href="#mf03f492d46" y="307.584"/>
      </g>
     </g>
     <g id="text_4">
      <!-- 1.0 -->
      <defs>
       <path d="M 12.40625 8.296875 
L 28.515625 8.296875 
L 28.515625 63.921875 
L 10.984375 60.40625 
L 10.984375 69.390625 
L 28.421875 72.90625 
L 38.28125 72.90625 
L 38.28125 8.296875 
L 54.390625 8.296875 
L 54.390625 0 
L 12.40625 0 
z
" id="DejaVuSans-31"/>
      </defs>
      <g transform="translate(228.208438 322.182437)scale(0.1 -0.1)">
       <use xlink:href="#DejaVuSans-31"/>
       <use x="63.623047" xlink:href="#DejaVuSans-2e"/>
       <use x="95.410156" xlink:href="#DejaVuSans-30"/>
      </g>
     </g>
    </g>
    <g id="xtick_5">
     <g id="line2d_5">
      <g>
       <use style="stroke:#000000;stroke-width:0.8;" x="289.728" xlink:href="#mf03f492d46" y="307.584"/>
      </g>
     </g>
     <g id="text_5">
      <!-- 1.5 -->
      <g transform="translate(281.776437 322.182437)scale(0.1 -0.1)">
       <use xlink:href="#DejaVuSans-31"/>
       <use x="63.623047" xlink:href="#DejaVuSans-2e"/>
       <use x="95.410156" xlink:href="#DejaVuSans-35"/>
      </g>
     </g>
    </g>
    <g id="xtick_6">
     <g id="line2d_6">
      <g>
       <use style="stroke:#000000;stroke-width:0.8;" x="343.296" xlink:href="#mf03f492d46" y="307.584"/>
      </g>
     </g>
     <g id="text_6">
      <!-- 2.0 -->
      <defs>
       <path d="M 19.1875 8.296875 
L 53.609375 8.296875 
L 53.609375 0 
L 7.328125 0 
L 7.328125 8.296875 
Q 12.9375 14.109375 22.625 23.890625 
Q 32.328125 33.6875 34.8125 36.53125 
Q 39.546875 41.84375 41.421875 45.53125 
Q 43.3125 49.21875 43.3125 52.78125 
Q 43.3125 58.59375 39.234375 62.25 
Q 35.15625 65.921875 28.609375 65.921875 
Q 23.96875 65.921875 18.8125 64.3125 
Q 13.671875 62.703125 7.8125 59.421875 
L 7.8125 69.390625 
Q 13.765625 71.78125 18.9375 73 
Q 24.125 74.21875 28.421875 74.21875 
Q 39.75 74.21875 46.484375 68.546875 
Q 53.21875 62.890625 53.21875 53.421875 
Q 53.21875 48.921875 51.53125 44.890625 
Q 49.859375 40.875 45.40625 35.40625 
Q 44.1875 33.984375 37.640625 27.21875 
Q 31.109375 20.453125 19.1875 8.296875 
z
" id="DejaVuSans-32"/>
      </defs>
      <g transform="translate(335.344437 322.182437)scale(0.1 -0.1)">
       <use xlink:href="#DejaVuSans-32"/>
       <use x="63.623047" xlink:href="#DejaVuSans-2e"/>
       <use x="95.410156" xlink:href="#DejaVuSans-30"/>
      </g>
     </g>
    </g>
    <g id="xtick_7">
     <g id="line2d_7">
      <g>
       <use style="stroke:#000000;stroke-width:0.8;" x="396.864" xlink:href="#mf03f492d46" y="307.584"/>
      </g>
     </g>
     <g id="text_7">
      <!-- 2.5 -->
      <g transform="translate(388.912437 322.182437)scale(0.1 -0.1)">
       <use xlink:href="#DejaVuSans-32"/>
       <use x="63.623047" xlink:href="#DejaVuSans-2e"/>
       <use x="95.410156" xlink:href="#DejaVuSans-35"/>
      </g>
     </g>
    </g>
    <g id="text_8">
     <!-- X -->
     <defs>
      <path d="M 6.296875 72.90625 
L 16.890625 72.90625 
L 35.015625 45.796875 
L 53.21875 72.90625 
L 63.8125 72.90625 
L 40.375 37.890625 
L 65.375 0 
L 54.78125 0 
L 34.28125 31 
L 13.625 0 
L 2.984375 0 
L 29 38.921875 
z
" id="DejaVuSans-58"/>
     </defs>
     <g transform="translate(232.735 335.860562)scale(0.1 -0.1)">
      <use xlink:href="#DejaVuSans-58"/>
     </g>
    </g>
   </g>
   <g id="matplotlib.axis_2">
    <g id="ytick_1">
     <g id="line2d_8">
      <defs>
       <path d="M 0 0 
L -3.5 0 
" id="mc5496fedce" style="stroke:#000000;stroke-width:0.8;"/>
      </defs>
      <g>
       <use style="stroke:#000000;stroke-width:0.8;" x="57.6" xlink:href="#mc5496fedce" y="288.576"/>
      </g>
     </g>
     <g id="text_9">
      <!-- 0.5 -->
      <g transform="translate(34.696875 292.375218)scale(0.1 -0.1)">
       <use xlink:href="#DejaVuSans-30"/>
       <use x="63.623047" xlink:href="#DejaVuSans-2e"/>
       <use x="95.410156" xlink:href="#DejaVuSans-35"/>
      </g>
     </g>
    </g>
    <g id="ytick_2">
     <g id="line2d_9">
      <g>
       <use style="stroke:#000000;stroke-width:0.8;" x="57.6" xlink:href="#mc5496fedce" y="231.552"/>
      </g>
     </g>
     <g id="text_10">
      <!-- 1.0 -->
      <g transform="translate(34.696875 235.351219)scale(0.1 -0.1)">
       <use xlink:href="#DejaVuSans-31"/>
       <use x="63.623047" xlink:href="#DejaVuSans-2e"/>
       <use x="95.410156" xlink:href="#DejaVuSans-30"/>
      </g>
     </g>
    </g>
    <g id="ytick_3">
     <g id="line2d_10">
      <g>
       <use style="stroke:#000000;stroke-width:0.8;" x="57.6" xlink:href="#mc5496fedce" y="174.528"/>
      </g>
     </g>
     <g id="text_11">
      <!-- 1.5 -->
      <g transform="translate(34.696875 178.327219)scale(0.1 -0.1)">
       <use xlink:href="#DejaVuSans-31"/>
       <use x="63.623047" xlink:href="#DejaVuSans-2e"/>
       <use x="95.410156" xlink:href="#DejaVuSans-35"/>
      </g>
     </g>
    </g>
    <g id="ytick_4">
     <g id="line2d_11">
      <g>
       <use style="stroke:#000000;stroke-width:0.8;" x="57.6" xlink:href="#mc5496fedce" y="117.504"/>
      </g>
     </g>
     <g id="text_12">
      <!-- 2.0 -->
      <g transform="translate(34.696875 121.303219)scale(0.1 -0.1)">
       <use xlink:href="#DejaVuSans-32"/>
       <use x="63.623047" xlink:href="#DejaVuSans-2e"/>
       <use x="95.410156" xlink:href="#DejaVuSans-30"/>
      </g>
     </g>
    </g>
    <g id="ytick_5">
     <g id="line2d_12">
      <g>
       <use style="stroke:#000000;stroke-width:0.8;" x="57.6" xlink:href="#mc5496fedce" y="60.48"/>
      </g>
     </g>
     <g id="text_13">
      <!-- 2.5 -->
      <g transform="translate(34.696875 64.279219)scale(0.1 -0.1)">
       <use xlink:href="#DejaVuSans-32"/>
       <use x="63.623047" xlink:href="#DejaVuSans-2e"/>
       <use x="95.410156" xlink:href="#DejaVuSans-35"/>
      </g>
     </g>
    </g>
    <g id="text_14">
     <!-- Y -->
     <defs>
      <path d="M -0.203125 72.90625 
L 10.40625 72.90625 
L 30.609375 42.921875 
L 50.6875 72.90625 
L 61.28125 72.90625 
L 35.5 34.71875 
L 35.5 0 
L 25.59375 0 
L 25.59375 34.71875 
z
" id="DejaVuSans-59"/>
     </defs>
     <g transform="translate(28.617188 177.581906)rotate(-90)scale(0.1 -0.1)">
      <use xlink:href="#DejaVuSans-59"/>
     </g>
    </g>
   </g>
   <g id="LineCollection_1"/>
   <g id="LineCollection_2">
    <path clip-path="url(#p86650075c3)" d="M 212.70263 73.735524 
L 211.408586 76.416 
L 209.784679 79.104 
L 209.105455 79.947146 
L 207.909702 81.792 
L 206.034672 84.48 
L 205.498182 85.161615 
L 204.169765 87.168 
L 202.286442 89.856 
L 201.890909 90.362285 
L 201.838415 90.438497 
" style="fill:none;stroke:#000000;stroke-width:1.5;"/>
    <path clip-path="url(#p86650075c3)" d="M 184.555276 116.408022 
L 184.352063 116.736 
L 183.854545 117.531267 
L 182.702084 119.424 
L 181.092961 122.112 
L 180.247273 123.536112 
L 179.509448 124.8 
L 177.951942 127.488 
L 176.64 129.835434 
L 176.450822 130.176 
L 174.956267 132.864 
L 173.524319 135.552 
L 173.032727 136.48574 
L 172.105204 138.24 
L 170.72238 140.928 
L 169.425455 143.566731 
L 169.400932 143.616 
L 168.077444 146.304 
L 166.818305 148.992 
L 165.818182 151.217705 
L 165.605397 151.68 
L 164.390019 154.368 
L 163.235772 157.056 
L 162.210909 159.56729 
L 162.136594 159.744 
L 161.034355 162.432 
L 159.988974 165.12 
L 158.999655 167.808 
L 158.603636 168.926361 
L 158.026226 170.496 
L 157.078438 173.184 
L 156.183529 175.872 
L 155.339726 178.56 
L 154.996364 179.708387 
L 154.514605 181.248 
L 153.716263 183.936 
L 152.966037 186.624 
L 152.260524 189.312 
L 151.596191 192 
L 151.389091 192.887268 
L 150.945949 194.688 
L 150.328252 197.376 
L 149.756583 200.064 
L 149.226892 202.752 
L 148.734296 205.44 
L 148.278188 208.128 
L 147.862561 210.816 
L 147.781818 211.392991 
L 147.467328 213.504 
L 147.107885 216.192 
L 146.784221 218.88 
L 146.497321 221.568 
L 146.24934 224.256 
L 146.04282 226.944 
L 145.876232 229.632 
L 145.747665 232.32 
L 145.656577 235.008 
L 145.602521 237.696 
L 145.588814 240.384 
L 145.618185 243.072 
L 145.689431 245.76 
L 145.742204 246.928158 
" style="fill:none;stroke:#000000;stroke-width:1.5;"/>
    <path clip-path="url(#p86650075c3)" d="M 251.615662 52.803039 
L 252.055143 54.912 
L 251.460134 57.6 
L 249.778976 60.288 
L 248.785455 61.242768 
L 246.259242 62.976 
L 245.178182 63.573934 
L 241.570909 65.095005 
L 239.583681 65.664 
L 237.963636 66.073617 
L 234.356364 66.754403 
L 230.749091 67.333769 
L 227.141818 67.093799 
L 224.944383 67.301443 
" style="fill:none;stroke:#000000;stroke-width:1.5;"/>
   </g>
   <g id="LineCollection_3">
    <path clip-path="url(#p86650075c3)" d="M 297.787398 69.922351 
L 297.909086 71.04 
L 298.230516 73.728 
L 298.428608 76.416 
L 298.49445 79.104 
L 298.384245 81.792 
L 298.063058 84.48 
L 297.489034 87.168 
L 296.604531 89.856 
L 295.68 91.845942 
L 295.268974 92.544 
L 293.211088 95.232 
L 292.072727 96.39668 
L 290.190161 97.92 
L 288.465455 99.0774 
L 285.64194 100.608 
L 284.858182 100.979363 
L 281.250909 102.440761 
L 278.808568 103.296 
L 277.643636 103.668674 
L 274.036364 104.753891 
L 270.429091 105.786628 
L 269.735503 105.984 
L 266.821818 106.770686 
L 263.214545 107.787746 
L 260.252626 108.672 
L 259.607273 108.857818 
L 256 109.961058 
L 252.392727 111.181542 
L 251.905871 111.36 
L 248.785455 112.48848 
L 245.178182 113.937508 
L 244.925748 114.048 
L 241.570909 115.502765 
L 239.01176 116.736 
L 237.963636 117.243115 
L 234.356364 119.157498 
L 233.894025 119.424 
L 230.749091 121.252909 
L 229.394587 122.112 
L 227.141818 123.560675 
L 225.362292 124.8 
L 223.534545 126.103103 
L 221.723232 127.488 
L 219.927273 128.89529 
L 218.391103 130.176 
L 216.32 131.955728 
L 215.320912 132.864 
L 212.712727 135.325484 
L 212.484045 135.552 
L 209.844603 138.24 
L 209.105455 139.022801 
L 207.374613 140.928 
L 205.498182 143.096963 
L 205.06335 143.616 
L 202.887499 146.304 
L 201.890909 147.595082 
L 200.837224 148.992 
L 198.905087 151.68 
L 198.283636 152.58234 
L 197.07156 154.368 
L 195.345802 157.056 
L 194.676364 158.151032 
L 193.70695 159.744 
L 192.152552 162.432 
L 191.069091 164.4199 
L 190.688586 165.12 
L 189.29016 167.808 
L 187.979069 170.496 
L 187.461818 171.609926 
L 186.725043 173.184 
L 185.536185 175.872 
L 184.427576 178.56 
L 183.854545 180.036801 
L 183.377109 181.248 
L 182.377361 183.936 
L 181.971998 185.102665 
" style="fill:none;stroke:#000000;stroke-width:1.5;"/>
    <path clip-path="url(#p86650075c3)" d="M 174.682103 215.386733 
L 174.567676 216.192 
L 174.230251 218.88 
L 173.936606 221.568 
L 173.688484 224.256 
L 173.487475 226.944 
L 173.331009 229.632 
L 173.216291 232.32 
L 173.142348 235.008 
L 173.110798 237.696 
L 173.123482 240.384 
L 173.180838 243.072 
L 173.280541 245.76 
L 173.42222 248.448 
L 173.607833 251.136 
L 173.839221 253.824 
L 174.117704 256.512 
L 174.442076 259.2 
L 174.812779 261.888 
L 175.231697 264.576 
L 175.700885 267.264 
L 176.221439 269.952 
L 176.64 271.916823 
L 176.788265 272.64 
L 177.392625 275.328 
L 178.049254 278.016 
L 178.759934 280.704 
L 179.339988 282.715927 
" style="fill:none;stroke:#000000;stroke-width:1.5;"/>
   </g>
   <g id="LineCollection_4">
    <path clip-path="url(#p86650075c3)" d="M 319.626955 94.260344 
L 319.812658 95.232 
L 320.439804 97.92 
L 320.930909 100.255868 
L 321.0007 100.608 
L 321.431561 103.296 
L 321.778676 105.984 
L 322.003936 108.672 
L 322.060119 111.36 
L 321.879265 114.048 
L 321.361556 116.736 
L 320.930909 117.978508 
L 320.221619 119.424 
L 318.052853 122.112 
L 317.323636 122.731183 
L 313.716364 124.65315 
L 313.288888 124.8 
L 310.109091 125.686577 
L 306.501818 126.328696 
L 302.894545 126.747181 
L 299.287273 127.057371 
L 295.68 127.309945 
L 293.130298 127.488 
L 292.072727 127.556436 
L 288.465455 127.818808 
L 284.858182 128.122827 
L 281.250909 128.496916 
L 277.643636 128.960184 
L 274.036364 129.508328 
L 270.429091 130.170894 
L 270.405844 130.176 
L 266.821818 130.949868 
L 263.214545 131.857045 
L 259.784208 132.864 
L 259.607273 132.915398 
L 256 134.123179 
L 252.392727 135.506827 
L 252.287635 135.552 
L 248.785455 137.070714 
L 246.397867 138.24 
L 245.178182 138.844502 
L 241.570909 140.829561 
L 241.407262 140.928 
L 239.591394 142.047236 
" style="fill:none;stroke:#000000;stroke-width:1.5;"/>
    <path clip-path="url(#p86650075c3)" d="M 216.538991 162.828594 
L 216.32 163.10811 
L 214.794354 165.12 
L 212.879554 167.808 
L 212.712727 168.053289 
L 211.095817 170.496 
L 209.432902 173.184 
L 209.105455 173.741052 
L 207.875063 175.872 
L 206.422482 178.56 
L 205.498182 180.388179 
L 205.067484 181.248 
L 203.799477 183.936 
L 202.624297 186.624 
L 201.890909 188.420775 
L 201.527016 189.312 
L 200.497158 192 
L 199.546327 194.688 
L 198.673589 197.376 
L 198.283636 198.678397 
L 197.864196 200.064 
L 197.116281 202.752 
L 196.434911 205.44 
L 195.816339 208.128 
L 195.258421 210.816 
L 194.763004 213.504 
L 194.676364 214.034957 
L 194.316115 216.192 
L 193.924799 218.88 
L 193.588567 221.568 
L 193.305715 224.256 
L 193.075826 226.944 
L 192.900598 229.632 
L 192.778252 232.32 
L 192.706291 235.008 
L 192.683613 237.696 
L 192.709373 240.384 
L 192.785785 243.072 
L 192.91362 245.76 
L 193.091635 248.448 
L 193.319004 251.136 
L 193.595792 253.824 
L 193.923299 256.512 
L 194.303079 259.2 
L 194.676364 261.522119 
L 194.73368 261.888 
L 195.203528 264.576 
L 195.725064 267.264 
L 196.299459 269.952 
L 196.928294 272.64 
L 197.612793 275.328 
L 198.283636 277.761452 
L 198.352382 278.016 
L 199.127506 280.704 
L 199.960606 283.392 
L 200.852784 286.08 
L 201.805515 288.768 
L 201.890909 288.99693 
L 202.793922 291.456 
L 203.841003 294.144 
L 204.950589 296.832 
L 205.498182 298.097955 
L 206.106945 299.52 
L 207.311475 302.208 
L 207.76425 303.207414 
" style="fill:none;stroke:#000000;stroke-width:1.5;"/>
   </g>
   <g id="LineCollection_5">
    <path clip-path="url(#p86650075c3)" d="M 372.966941 215.048763 
L 372.185883 213.504 
L 371.432727 212.056176 
L 370.828302 210.816 
L 369.53376 208.128 
L 368.143417 205.44 
L 367.825455 204.829491 
L 366.789286 202.752 
L 365.380629 200.064 
L 364.93503 199.263884 
" style="fill:none;stroke:#000000;stroke-width:1.5;"/>
    <path clip-path="url(#p86650075c3)" d="M 347.551211 173.446633 
L 347.323198 173.184 
L 346.181818 171.974922 
L 344.729874 170.496 
L 342.574545 168.474913 
L 341.828986 167.808 
L 338.967273 165.434096 
L 338.562974 165.12 
L 335.36 162.785328 
L 334.841114 162.432 
L 331.752727 160.459163 
L 330.524931 159.744 
L 328.145455 158.428859 
L 325.39134 157.056 
L 324.538182 156.648928 
L 320.930909 155.058417 
L 319.154434 154.368 
L 317.323636 153.683196 
L 313.716364 152.46214 
L 311.059428 151.68 
L 310.109091 151.406732 
L 306.501818 150.499791 
L 302.894545 149.742871 
L 299.287273 149.146047 
L 298.062143 148.992 
L 295.68 148.694704 
L 292.072727 148.378377 
L 288.465455 148.21575 
L 284.858182 148.210373 
L 281.250909 148.355239 
L 277.643636 148.676809 
L 275.327585 148.992 
L 274.036364 149.166778 
L 270.429091 149.830842 
L 266.821818 150.684084 
L 263.453041 151.68 
L 263.214545 151.751132 
L 259.607273 153.016206 
L 256.342616 154.368 
L 256 154.512722 
L 252.392727 156.259323 
L 250.947069 157.056 
L 248.785455 158.280422 
L 246.467748 159.744 
L 245.178182 160.587516 
L 242.630367 162.432 
L 241.570909 163.230871 
L 239.275766 165.12 
L 237.963636 166.251414 
L 236.290773 167.808 
L 234.356364 169.702919 
L 233.598411 170.496 
L 231.163753 173.184 
L 230.749091 173.666308 
L 228.955416 175.872 
L 227.141818 178.256693 
L 226.921443 178.56 
L 225.070316 181.248 
L 223.534545 183.647203 
L 223.356365 183.936 
L 221.789701 186.624 
L 220.341648 189.312 
L 219.927273 190.135935 
L 219.013958 192 
L 217.792574 194.688 
L 216.670426 197.376 
L 216.32 198.283652 
L 215.643598 200.064 
L 214.70512 202.752 
L 213.853403 205.44 
L 213.084163 208.128 
L 212.712727 209.568285 
L 212.393099 210.816 
L 211.775295 213.504 
L 211.228882 216.192 
L 210.751006 218.88 
L 210.342578 221.568 
L 210.001248 224.256 
L 209.724912 226.944 
L 209.510556 229.632 
L 209.356644 232.32 
L 209.262626 235.008 
L 209.229833 237.696 
L 209.25477 240.384 
L 209.33498 243.072 
L 209.47111 245.76 
L 209.666303 248.448 
L 209.917822 251.136 
L 210.225643 253.824 
L 210.588331 256.512 
L 211.007889 259.2 
L 211.487108 261.888 
L 212.023558 264.576 
L 212.616945 267.264 
L 212.712727 267.660607 
L 213.261096 269.952 
L 213.962885 272.64 
L 214.723793 275.328 
L 215.546552 278.016 
L 216.32 280.366265 
L 216.430558 280.704 
L 217.362896 283.392 
L 218.362832 286.08 
L 219.426116 288.768 
L 219.927273 289.966873 
L 220.549739 291.456 
L 221.735267 294.144 
L 222.188087 295.147329 
" style="fill:none;stroke:#000000;stroke-width:1.5;"/>
    <path clip-path="url(#p86650075c3)" d="M 407.711434 189.465488 
L 409.237165 192 
L 410.736902 194.688 
L 410.8219 194.904713 
" style="fill:none;stroke:#000000;stroke-width:1.5;"/>
    <path clip-path="url(#p86650075c3)" d="M 402.249824 182.707707 
L 403.360165 183.936 
L 403.898182 184.534369 
L 405.546228 186.624 
L 407.505455 189.153455 
" style="fill:none;stroke:#000000;stroke-width:1.5;"/>
    <path clip-path="url(#p86650075c3)" d="M 344.779144 121.066781 
L 345.29722 122.112 
L 346.181818 123.658969 
L 346.808658 124.8 
L 348.35592 127.488 
L 349.789091 129.774298 
L 350.031459 130.176 
L 351.673039 132.864 
L 353.396364 135.338472 
L 353.54167 135.552 
L 354.368806 136.766578 
" style="fill:none;stroke:#000000;stroke-width:1.5;"/>
    <path clip-path="url(#p86650075c3)" d="M 375.580705 159.511758 
L 375.841454 159.744 
L 378.647273 162.051535 
L 379.095001 162.432 
L 382.254545 164.969584 
L 382.429562 165.12 
L 385.728058 167.808 
L 385.861818 167.911969 
L 389.001323 170.496 
L 389.469091 170.865215 
L 392.127571 173.184 
L 393.076364 173.975837 
L 395.213347 175.872 
L 396.683636 177.153687 
L 398.128402 178.56 
L 400.290909 180.635376 
" style="fill:none;stroke:#000000;stroke-width:1.5;"/>
   </g>
   <g id="LineCollection_6">
    <path clip-path="url(#p86650075c3)" d="M 356.93281 224.256 
L 356.556292 221.568 
L 355.214399 218.88 
L 353.795303 216.192 
L 353.396364 215.46397 
L 352.311543 213.504 
L 350.759036 210.816 
L 349.789091 209.208419 
L 349.124822 208.128 
L 347.40855 205.44 
L 346.181818 203.598545 
L 345.601762 202.752 
L 343.682664 200.064 
L 342.574545 198.570226 
L 341.656196 197.376 
L 339.493 194.688 
L 338.967273 194.061463 
L 337.172371 192 
L 335.36 190.0025 
L 334.697223 189.312 
L 331.992975 186.624 
L 331.752727 186.394255 
L 329.035591 183.936 
L 328.145455 183.159724 
L 325.781422 181.248 
L 324.538182 180.28506 
L 322.117689 178.56 
L 320.930909 177.743597 
L 317.934987 175.872 
L 317.323636 175.500694 
L 313.716364 173.54226 
L 312.970358 173.184 
L 310.109091 171.845033 
L 306.75467 170.496 
L 306.501818 170.396427 
L 302.894545 169.195789 
L 299.287273 168.205129 
L 297.3977 167.808 
L 295.68 167.453481 
L 292.072727 166.919772 
L 288.465455 166.600485 
L 284.858182 166.501354 
L 281.250909 166.633511 
L 277.643636 166.983433 
L 274.036364 167.570954 
L 273.011042 167.808 
L 270.429091 168.416636 
L 266.821818 169.519692 
L 264.259403 170.496 
L 263.214545 170.906708 
L 259.607273 172.609882 
L 258.560981 173.184 
L 256 174.647514 
L 254.130452 175.872 
L 252.392727 177.063686 
L 250.45602 178.56 
L 248.785455 179.921108 
L 247.313229 181.248 
L 245.178182 183.292116 
L 244.561461 183.936 
L 242.141555 186.624 
L 241.570909 187.299666 
L 239.991579 189.312 
L 238.03863 192 
L 237.963636 192.110159 
L 236.309581 194.688 
L 234.729907 197.376 
L 234.356364 198.062736 
L 233.320292 200.064 
L 232.044009 202.752 
L 230.8831 205.44 
L 230.749091 205.779643 
L 229.855254 208.128 
L 228.935667 210.816 
L 228.116877 213.504 
L 227.394074 216.192 
L 227.221876 216.917153 
" style="fill:none;stroke:#000000;stroke-width:1.5;"/>
    <path clip-path="url(#p86650075c3)" d="M 224.993018 247.90474 
L 225.033304 248.448 
L 225.2976 251.136 
L 225.630435 253.824 
L 226.029687 256.512 
L 226.489376 259.2 
L 227.016509 261.888 
L 227.141818 262.454902 
L 227.613914 264.576 
L 228.274483 267.264 
L 229.002219 269.952 
L 229.796897 272.64 
L 230.657109 275.328 
L 230.749091 275.595083 
L 231.592694 278.016 
L 232.600394 280.704 
L 233.677527 283.392 
L 234.356364 284.97856 
L 234.830736 286.08 
L 235.607172 287.835946 
" style="fill:none;stroke:#000000;stroke-width:1.5;"/>
   </g>
   <g id="LineCollection_7">
    <path clip-path="url(#p86650075c3)" d="M 343.137572 229.632 
L 342.574545 228.493436 
L 341.787237 226.944 
L 340.340472 224.256 
L 338.967273 221.841077 
L 338.805898 221.568 
L 337.136788 218.88 
L 335.382851 216.192 
L 335.36 216.158319 
L 334.304216 214.674731 
" style="fill:none;stroke:#000000;stroke-width:1.5;"/>
    <path clip-path="url(#p86650075c3)" d="M 312.057868 193.10888 
L 310.247954 192 
L 310.109091 191.917343 
L 306.501818 190.043748 
L 304.828496 189.312 
L 302.894545 188.487481 
L 299.287273 187.260727 
L 296.891414 186.624 
L 295.68 186.306482 
L 292.072727 185.649394 
L 288.465455 185.297556 
L 284.858182 185.237331 
L 281.250909 185.479974 
L 277.643636 186.054595 
L 275.332398 186.624 
L 274.036364 186.955921 
L 270.429091 188.221424 
L 268.031466 189.312 
L 266.821818 189.891795 
L 263.247866 192 
L 263.214545 192.02085 
L 259.607273 194.679955 
L 259.5978 194.688 
L 256.636139 197.376 
L 256 198.000996 
L 254.135045 200.064 
L 252.392727 202.165982 
L 251.952684 202.752 
L 250.090188 205.44 
L 248.785455 207.519864 
L 248.434328 208.128 
L 247.019771 210.816 
L 245.756205 213.504 
L 245.178182 214.877204 
L 244.660083 216.192 
L 243.72336 218.88 
L 242.910443 221.568 
L 242.213181 224.256 
L 241.629513 226.944 
L 241.570909 227.269665 
L 241.165167 229.632 
L 240.805632 232.32 
L 240.544931 235.008 
L 240.374493 237.696 
L 240.291047 240.384 
L 240.298808 243.072 
L 240.392362 245.76 
L 240.571156 248.448 
L 240.827593 251.136 
L 241.161695 253.824 
L 241.570909 256.432538 
L 241.583721 256.512 
L 242.098612 259.2 
L 242.684766 261.888 
L 243.354928 264.576 
L 244.102477 267.264 
L 244.925985 269.952 
L 245.178182 270.697474 
L 245.854142 272.64 
L 246.872682 275.328 
L 247.978861 278.016 
L 248.785455 279.941934 
L 249.031268 280.520829 
" style="fill:none;stroke:#000000;stroke-width:1.5;"/>
   </g>
   <g id="LineCollection_8">
    <path clip-path="url(#p86650075c3)" d="M 327.948425 237.842819 
L 327.889997 237.696 
L 326.61391 235.008 
L 325.130767 232.32 
L 324.538182 231.323435 
L 323.44196 229.632 
L 321.542499 226.944 
L 320.930909 226.117135 
L 319.422782 224.256 
L 317.323636 221.800805 
L 317.102176 221.568 
L 314.438412 218.88 
L 313.716364 218.186037 
L 311.341941 216.192 
L 310.109091 215.19142 
L 307.70658 213.504 
L 306.501818 212.694392 
L 303.100096 210.816 
L 302.894545 210.70615 
L 299.287273 209.165701 
L 295.974479 208.128 
L 295.68 208.039446 
L 292.072727 207.392911 
L 288.465455 207.156301 
L 284.858182 207.378644 
L 281.250909 208.092599 
L 281.143143 208.128 
L 277.643636 209.370441 
L 274.830293 210.816 
L 274.036364 211.260514 
L 270.986948 213.504 
L 270.429091 213.959683 
L 268.207537 216.192 
L 266.821818 217.75667 
L 265.97818 218.88 
L 264.194875 221.568 
L 263.214545 223.269403 
L 262.716388 224.256 
L 261.546143 226.944 
L 260.56452 229.632 
L 259.75815 232.32 
L 259.607273 232.950515 
L 259.162857 235.008 
L 258.72849 237.696 
L 258.66549 238.269297 
" style="fill:none;stroke:#000000;stroke-width:1.5;"/>
    <path clip-path="url(#p86650075c3)" d="M 262.82987 268.868302 
L 263.214545 269.863865 
L 263.250975 269.952 
L 264.093856 271.984772 
" style="fill:none;stroke:#000000;stroke-width:1.5;"/>
   </g>
   <g id="LineCollection_9">
    <path clip-path="url(#p86650075c3)" d="M 299.392976 253.745234 
L 299.287273 253.663195 
L 295.68 252.502647 
L 294.922116 253.824 
L 293.993763 256.512 
" style="fill:none;stroke:#000000;stroke-width:1.5;"/>
   </g>
   <g id="line2d_13">
    <path clip-path="url(#p86650075c3)" d="M 200.448 307.584 
L 57.6 155.52 
L 57.6 155.52 
" style="fill:none;stroke:#000000;stroke-linecap:square;stroke-width:0.1;"/>
   </g>
   <g id="line2d_14">
    <path clip-path="url(#p86650075c3)" d="M 201.756136 306.887734 
L 58.908137 154.823734 
L 58.908137 154.823734 
" style="fill:none;stroke:#000000;stroke-linecap:square;stroke-width:0.1;"/>
   </g>
   <g id="line2d_15">
    <path clip-path="url(#p86650075c3)" d="M 204.812278 305.261078 
L 61.964278 153.197078 
L 61.964278 153.197078 
" style="fill:none;stroke:#000000;stroke-linecap:square;stroke-width:0.1;"/>
   </g>
   <g id="line2d_16">
    <path clip-path="url(#p86650075c3)" d="M 209.556406 302.735977 
L 66.708406 150.671978 
L 66.708406 150.671978 
" style="fill:none;stroke:#000000;stroke-linecap:square;stroke-width:0.1;"/>
   </g>
   <g id="line2d_17">
    <path clip-path="url(#p86650075c3)" d="M 215.910246 299.354094 
L 73.062247 147.290095 
L 73.062247 147.290095 
" style="fill:none;stroke:#000000;stroke-linecap:square;stroke-width:0.1;"/>
   </g>
   <g id="line2d_18">
    <path clip-path="url(#p86650075c3)" d="M 223.769401 295.170996 
L 80.921401 143.106996 
L 80.921401 143.106996 
" style="fill:none;stroke:#000000;stroke-linecap:square;stroke-width:0.1;"/>
   </g>
   <g id="line2d_19">
    <path clip-path="url(#p86650075c3)" d="M 233.004804 290.255378 
L 90.156804 138.191379 
L 90.156804 138.191379 
" style="fill:none;stroke:#000000;stroke-linecap:square;stroke-width:0.1;"/>
   </g>
   <g id="line2d_20">
    <path clip-path="url(#p86650075c3)" d="M 243.464802 284.68796 
L 100.616803 132.62396 
L 100.616803 132.62396 
" style="fill:none;stroke:#000000;stroke-linecap:square;stroke-width:0.1;"/>
   </g>
   <g id="line2d_21">
    <path clip-path="url(#p86650075c3)" d="M 254.97764 278.560158 
L 112.129641 126.496159 
L 112.129641 126.496159 
" style="fill:none;stroke:#000000;stroke-linecap:square;stroke-width:0.1;"/>
   </g>
   <g id="line2d_22">
    <path clip-path="url(#p86650075c3)" d="M 267.354276 271.972595 
L 124.506277 119.908595 
L 124.506277 119.908595 
" style="fill:none;stroke:#000000;stroke-linecap:square;stroke-width:0.1;"/>
   </g>
   <g id="line2d_23">
    <path clip-path="url(#p86650075c3)" d="M 280.391483 265.033436 
L 137.543484 112.969437 
L 137.543484 112.969437 
" style="fill:none;stroke:#000000;stroke-linecap:square;stroke-width:0.1;"/>
   </g>
   <g id="line2d_24">
    <path clip-path="url(#p86650075c3)" d="M 293.875193 257.856624 
L 151.027192 105.792623 
L 151.027192 105.792623 
" style="fill:none;stroke:#000000;stroke-linecap:square;stroke-width:0.1;"/>
   </g>
   <g id="line2d_25">
    <path clip-path="url(#p86650075c3)" d="M 307.584 250.56 
L 164.736 98.496 
L 164.736 98.496 
" style="fill:none;stroke:#000000;stroke-linecap:square;stroke-width:0.1;"/>
   </g>
   <g id="line2d_26">
    <path clip-path="url(#p86650075c3)" d="M 321.292808 243.263377 
L 178.444807 91.199376 
L 178.444807 91.199376 
" style="fill:none;stroke:#000000;stroke-linecap:square;stroke-width:0.1;"/>
   </g>
   <g id="line2d_27">
    <path clip-path="url(#p86650075c3)" d="M 334.776516 236.086563 
L 191.928517 84.022564 
L 191.928517 84.022564 
" style="fill:none;stroke:#000000;stroke-linecap:square;stroke-width:0.1;"/>
   </g>
   <g id="line2d_28">
    <path clip-path="url(#p86650075c3)" d="M 347.813723 229.147405 
L 204.965724 77.083405 
L 204.965724 77.083405 
" style="fill:none;stroke:#000000;stroke-linecap:square;stroke-width:0.1;"/>
   </g>
   <g id="line2d_29">
    <path clip-path="url(#p86650075c3)" d="M 360.190359 222.559841 
L 217.34236 70.495842 
L 217.34236 70.495842 
" style="fill:none;stroke:#000000;stroke-linecap:square;stroke-width:0.1;"/>
   </g>
   <g id="line2d_30">
    <path clip-path="url(#p86650075c3)" d="M 371.703197 216.43204 
L 228.855198 64.36804 
L 228.855198 64.36804 
" style="fill:none;stroke:#000000;stroke-linecap:square;stroke-width:0.1;"/>
   </g>
   <g id="line2d_31">
    <path clip-path="url(#p86650075c3)" d="M 382.163196 210.864621 
L 239.315196 58.800622 
L 239.315196 58.800622 
" style="fill:none;stroke:#000000;stroke-linecap:square;stroke-width:0.1;"/>
   </g>
   <g id="line2d_32">
    <path clip-path="url(#p86650075c3)" d="M 391.398599 205.949004 
L 248.550599 53.885004 
L 248.550599 53.885004 
" style="fill:none;stroke:#000000;stroke-linecap:square;stroke-width:0.1;"/>
   </g>
   <g id="line2d_33">
    <path clip-path="url(#p86650075c3)" d="M 399.257753 201.765905 
L 256.409754 49.701906 
L 256.409754 49.701906 
" style="fill:none;stroke:#000000;stroke-linecap:square;stroke-width:0.1;"/>
   </g>
   <g id="line2d_34">
    <path clip-path="url(#p86650075c3)" d="M 405.611594 198.384022 
L 262.763594 46.320023 
L 262.763594 46.320023 
" style="fill:none;stroke:#000000;stroke-linecap:square;stroke-width:0.1;"/>
   </g>
   <g id="line2d_35">
    <path clip-path="url(#p86650075c3)" d="M 410.355722 195.858922 
L 267.507722 43.794922 
L 267.507722 43.794922 
" style="fill:none;stroke:#000000;stroke-linecap:square;stroke-width:0.1;"/>
   </g>
   <g id="line2d_36">
    <path clip-path="url(#p86650075c3)" d="M 413.411863 194.232266 
L 270.563864 42.168266 
L 270.563864 42.168266 
" style="fill:none;stroke:#000000;stroke-linecap:square;stroke-width:0.1;"/>
   </g>
   <g id="line2d_37">
    <path clip-path="url(#p86650075c3)" d="M 414.72 193.536 
L 271.872 41.472 
L 271.872 41.472 
" style="fill:none;stroke:#000000;stroke-linecap:square;stroke-width:0.1;"/>
   </g>
   <g id="line2d_38">
    <path clip-path="url(#p86650075c3)" d="M 200.448 307.584 
L 414.72 193.536 
L 414.72 193.536 
" style="fill:none;stroke:#000000;stroke-linecap:square;stroke-width:0.1;"/>
   </g>
   <g id="line2d_39">
    <path clip-path="url(#p86650075c3)" d="M 199.575909 306.655645 
L 413.847909 192.607645 
L 413.847909 192.607645 
" style="fill:none;stroke:#000000;stroke-linecap:square;stroke-width:0.1;"/>
   </g>
   <g id="line2d_40">
    <path clip-path="url(#p86650075c3)" d="M 197.538482 304.486771 
L 411.810482 190.438771 
L 411.810482 190.438771 
" style="fill:none;stroke:#000000;stroke-linecap:square;stroke-width:0.1;"/>
   </g>
   <g id="line2d_41">
    <path clip-path="url(#p86650075c3)" d="M 194.375729 301.119969 
L 408.647729 187.07197 
L 408.647729 187.07197 
" style="fill:none;stroke:#000000;stroke-linecap:square;stroke-width:0.1;"/>
   </g>
   <g id="line2d_42">
    <path clip-path="url(#p86650075c3)" d="M 190.139836 296.610793 
L 404.411836 182.562793 
L 404.411836 182.562793 
" style="fill:none;stroke:#000000;stroke-linecap:square;stroke-width:0.1;"/>
   </g>
   <g id="line2d_43">
    <path clip-path="url(#p86650075c3)" d="M 184.900399 291.033328 
L 399.172399 176.985328 
L 399.172399 176.985328 
" style="fill:none;stroke:#000000;stroke-linecap:square;stroke-width:0.1;"/>
   </g>
   <g id="line2d_44">
    <path clip-path="url(#p86650075c3)" d="M 178.743464 284.479171 
L 393.015464 170.431171 
L 393.015464 170.431171 
" style="fill:none;stroke:#000000;stroke-linecap:square;stroke-width:0.1;"/>
   </g>
   <g id="line2d_45">
    <path clip-path="url(#p86650075c3)" d="M 171.770132 277.055946 
L 386.042131 163.007947 
L 386.042131 163.007947 
" style="fill:none;stroke:#000000;stroke-linecap:square;stroke-width:0.1;"/>
   </g>
   <g id="line2d_46">
    <path clip-path="url(#p86650075c3)" d="M 164.094907 268.885545 
L 378.366906 154.837546 
L 378.366906 154.837546 
" style="fill:none;stroke:#000000;stroke-linecap:square;stroke-width:0.1;"/>
   </g>
   <g id="line2d_47">
    <path clip-path="url(#p86650075c3)" d="M 155.843817 260.102127 
L 370.115816 146.054127 
L 370.115816 146.054127 
" style="fill:none;stroke:#000000;stroke-linecap:square;stroke-width:0.1;"/>
   </g>
   <g id="line2d_48">
    <path clip-path="url(#p86650075c3)" d="M 147.152345 250.849915 
L 361.424344 136.801915 
L 361.424344 136.801915 
" style="fill:none;stroke:#000000;stroke-linecap:square;stroke-width:0.1;"/>
   </g>
   <g id="line2d_49">
    <path clip-path="url(#p86650075c3)" d="M 138.163206 241.280831 
L 352.435205 127.232832 
L 352.435205 127.232832 
" style="fill:none;stroke:#000000;stroke-linecap:square;stroke-width:0.1;"/>
   </g>
   <g id="line2d_50">
    <path clip-path="url(#p86650075c3)" d="M 129.024 231.552 
L 343.296 117.504 
L 343.296 117.504 
" style="fill:none;stroke:#000000;stroke-linecap:square;stroke-width:0.1;"/>
   </g>
   <g id="line2d_51">
    <path clip-path="url(#p86650075c3)" d="M 119.884795 221.823168 
L 334.156794 107.775169 
L 334.156794 107.775169 
" style="fill:none;stroke:#000000;stroke-linecap:square;stroke-width:0.1;"/>
   </g>
   <g id="line2d_52">
    <path clip-path="url(#p86650075c3)" d="M 110.895656 212.254085 
L 325.167655 98.206085 
L 325.167655 98.206085 
" style="fill:none;stroke:#000000;stroke-linecap:square;stroke-width:0.1;"/>
   </g>
   <g id="line2d_53">
    <path clip-path="url(#p86650075c3)" d="M 102.204184 203.001873 
L 316.476183 88.953873 
L 316.476183 88.953873 
" style="fill:none;stroke:#000000;stroke-linecap:square;stroke-width:0.1;"/>
   </g>
   <g id="line2d_54">
    <path clip-path="url(#p86650075c3)" d="M 93.953094 194.218454 
L 308.225093 80.170455 
L 308.225093 80.170455 
" style="fill:none;stroke:#000000;stroke-linecap:square;stroke-width:0.1;"/>
   </g>
   <g id="line2d_55">
    <path clip-path="url(#p86650075c3)" d="M 86.277869 186.048053 
L 300.549868 72.000054 
L 300.549868 72.000054 
" style="fill:none;stroke:#000000;stroke-linecap:square;stroke-width:0.1;"/>
   </g>
   <g id="line2d_56">
    <path clip-path="url(#p86650075c3)" d="M 79.304536 178.624829 
L 293.576536 64.576829 
L 293.576536 64.576829 
" style="fill:none;stroke:#000000;stroke-linecap:square;stroke-width:0.1;"/>
   </g>
   <g id="line2d_57">
    <path clip-path="url(#p86650075c3)" d="M 73.147601 172.070672 
L 287.419601 58.022672 
L 287.419601 58.022672 
" style="fill:none;stroke:#000000;stroke-linecap:square;stroke-width:0.1;"/>
   </g>
   <g id="line2d_58">
    <path clip-path="url(#p86650075c3)" d="M 67.908164 166.493207 
L 282.180164 52.445207 
L 282.180164 52.445207 
" style="fill:none;stroke:#000000;stroke-linecap:square;stroke-width:0.1;"/>
   </g>
   <g id="line2d_59">
    <path clip-path="url(#p86650075c3)" d="M 63.672271 161.98403 
L 277.944271 47.936031 
L 277.944271 47.936031 
" style="fill:none;stroke:#000000;stroke-linecap:square;stroke-width:0.1;"/>
   </g>
   <g id="line2d_60">
    <path clip-path="url(#p86650075c3)" d="M 60.509518 158.617229 
L 274.781518 44.569229 
L 274.781518 44.569229 
" style="fill:none;stroke:#000000;stroke-linecap:square;stroke-width:0.1;"/>
   </g>
   <g id="line2d_61">
    <path clip-path="url(#p86650075c3)" d="M 58.472091 156.448355 
L 272.744091 42.400355 
L 272.744091 42.400355 
" style="fill:none;stroke:#000000;stroke-linecap:square;stroke-width:0.1;"/>
   </g>
   <g id="line2d_62">
    <path clip-path="url(#p86650075c3)" d="M 57.6 155.52 
L 271.872 41.472 
L 271.872 41.472 
" style="fill:none;stroke:#000000;stroke-linecap:square;stroke-width:0.1;"/>
   </g>
   <g id="patch_3">
    <path d="M 57.6 307.584 
L 57.6 41.472 
" style="fill:none;stroke:#000000;stroke-linecap:square;stroke-linejoin:miter;stroke-width:0.8;"/>
   </g>
   <g id="patch_4">
    <path d="M 414.72 307.584 
L 414.72 41.472 
" style="fill:none;stroke:#000000;stroke-linecap:square;stroke-linejoin:miter;stroke-width:0.8;"/>
   </g>
   <g id="patch_5">
    <path d="M 57.6 307.584 
L 414.72 307.584 
" style="fill:none;stroke:#000000;stroke-linecap:square;stroke-linejoin:miter;stroke-width:0.8;"/>
   </g>
   <g id="patch_6">
    <path d="M 57.6 41.472 
L 414.72 41.472 
" style="fill:none;stroke:#000000;stroke-linecap:square;stroke-linejoin:miter;stroke-width:0.8;"/>
   </g>
   <g id="text_15">
    <g clip-path="url(#p86650075c3)">
     <!-- 0.124 -->
     <defs>
      <path d="M 37.796875 64.3125 
L 12.890625 25.390625 
L 37.796875 25.390625 
z
M 35.203125 72.90625 
L 47.609375 72.90625 
L 47.609375 25.390625 
L 58.015625 25.390625 
L 58.015625 17.1875 
L 47.609375 17.1875 
L 47.609375 0 
L 37.796875 0 
L 37.796875 17.1875 
L 4.890625 17.1875 
L 4.890625 26.703125 
z
" id="DejaVuSans-34"/>
     </defs>
     <g transform="translate(188.478294 114.043547)rotate(-56.246953)scale(0.08 -0.08)">
      <use xlink:href="#DejaVuSans-30"/>
      <use x="63.623047" xlink:href="#DejaVuSans-2e"/>
      <use x="95.410156" xlink:href="#DejaVuSans-31"/>
      <use x="159.033203" xlink:href="#DejaVuSans-32"/>
      <use x="222.65625" xlink:href="#DejaVuSans-34"/>
     </g>
    </g>
   </g>
   <g id="text_16">
    <g clip-path="url(#p86650075c3)">
     <!-- 0.241 -->
     <g transform="translate(177.044468 211.71385)rotate(-76.464161)scale(0.08 -0.08)">
      <use xlink:href="#DejaVuSans-30"/>
      <use x="63.623047" xlink:href="#DejaVuSans-2e"/>
      <use x="95.410156" xlink:href="#DejaVuSans-32"/>
      <use x="159.033203" xlink:href="#DejaVuSans-34"/>
      <use x="222.65625" xlink:href="#DejaVuSans-31"/>
     </g>
    </g>
   </g>
   <g id="text_17">
    <g clip-path="url(#p86650075c3)">
     <!-- 0.357 -->
     <defs>
      <path d="M 40.578125 39.3125 
Q 47.65625 37.796875 51.625 33 
Q 55.609375 28.21875 55.609375 21.1875 
Q 55.609375 10.40625 48.1875 4.484375 
Q 40.765625 -1.421875 27.09375 -1.421875 
Q 22.515625 -1.421875 17.65625 -0.515625 
Q 12.796875 0.390625 7.625 2.203125 
L 7.625 11.71875 
Q 11.71875 9.328125 16.59375 8.109375 
Q 21.484375 6.890625 26.8125 6.890625 
Q 36.078125 6.890625 40.9375 10.546875 
Q 45.796875 14.203125 45.796875 21.1875 
Q 45.796875 27.640625 41.28125 31.265625 
Q 36.765625 34.90625 28.71875 34.90625 
L 20.21875 34.90625 
L 20.21875 43.015625 
L 29.109375 43.015625 
Q 36.375 43.015625 40.234375 45.921875 
Q 44.09375 48.828125 44.09375 54.296875 
Q 44.09375 59.90625 40.109375 62.90625 
Q 36.140625 65.921875 28.71875 65.921875 
Q 24.65625 65.921875 20.015625 65.03125 
Q 15.375 64.15625 9.8125 62.3125 
L 9.8125 71.09375 
Q 15.4375 72.65625 20.34375 73.4375 
Q 25.25 74.21875 29.59375 74.21875 
Q 40.828125 74.21875 47.359375 69.109375 
Q 53.90625 64.015625 53.90625 55.328125 
Q 53.90625 49.265625 50.4375 45.09375 
Q 46.96875 40.921875 40.578125 39.3125 
z
" id="DejaVuSans-33"/>
      <path d="M 8.203125 72.90625 
L 55.078125 72.90625 
L 55.078125 68.703125 
L 28.609375 0 
L 18.3125 0 
L 43.21875 64.59375 
L 8.203125 64.59375 
z
" id="DejaVuSans-37"/>
     </defs>
     <g transform="translate(220.124317 160.724686)rotate(-42.094361)scale(0.08 -0.08)">
      <use xlink:href="#DejaVuSans-30"/>
      <use x="63.623047" xlink:href="#DejaVuSans-2e"/>
      <use x="95.410156" xlink:href="#DejaVuSans-33"/>
      <use x="159.033203" xlink:href="#DejaVuSans-35"/>
      <use x="222.65625" xlink:href="#DejaVuSans-37"/>
     </g>
    </g>
   </g>
   <g id="text_18">
    <g clip-path="url(#p86650075c3)">
     <!-- 0.474 -->
     <g transform="translate(348.8151 177.532832)rotate(-303.688514)scale(0.08 -0.08)">
      <use xlink:href="#DejaVuSans-30"/>
      <use x="63.623047" xlink:href="#DejaVuSans-2e"/>
      <use x="95.410156" xlink:href="#DejaVuSans-34"/>
      <use x="159.033203" xlink:href="#DejaVuSans-37"/>
      <use x="222.65625" xlink:href="#DejaVuSans-34"/>
     </g>
    </g>
   </g>
   <g id="text_19">
    <g clip-path="url(#p86650075c3)">
     <!-- 0.474 -->
     <g transform="translate(354.784167 141.983971)rotate(-313.081967)scale(0.08 -0.08)">
      <use xlink:href="#DejaVuSans-30"/>
      <use x="63.623047" xlink:href="#DejaVuSans-2e"/>
      <use x="95.410156" xlink:href="#DejaVuSans-34"/>
      <use x="159.033203" xlink:href="#DejaVuSans-37"/>
      <use x="222.65625" xlink:href="#DejaVuSans-34"/>
     </g>
    </g>
   </g>
   <g id="text_20">
    <g clip-path="url(#p86650075c3)">
     <!-- 0.591 -->
     <defs>
      <path d="M 10.984375 1.515625 
L 10.984375 10.5 
Q 14.703125 8.734375 18.5 7.8125 
Q 22.3125 6.890625 25.984375 6.890625 
Q 35.75 6.890625 40.890625 13.453125 
Q 46.046875 20.015625 46.78125 33.40625 
Q 43.953125 29.203125 39.59375 26.953125 
Q 35.25 24.703125 29.984375 24.703125 
Q 19.046875 24.703125 12.671875 31.3125 
Q 6.296875 37.9375 6.296875 49.421875 
Q 6.296875 60.640625 12.9375 67.421875 
Q 19.578125 74.21875 30.609375 74.21875 
Q 43.265625 74.21875 49.921875 64.515625 
Q 56.59375 54.828125 56.59375 36.375 
Q 56.59375 19.140625 48.40625 8.859375 
Q 40.234375 -1.421875 26.421875 -1.421875 
Q 22.703125 -1.421875 18.890625 -0.6875 
Q 15.09375 0.046875 10.984375 1.515625 
z
M 30.609375 32.421875 
Q 37.25 32.421875 41.125 36.953125 
Q 45.015625 41.5 45.015625 49.421875 
Q 45.015625 57.28125 41.125 61.84375 
Q 37.25 66.40625 30.609375 66.40625 
Q 23.96875 66.40625 20.09375 61.84375 
Q 16.21875 57.28125 16.21875 49.421875 
Q 16.21875 41.5 20.09375 36.953125 
Q 23.96875 32.421875 30.609375 32.421875 
z
" id="DejaVuSans-39"/>
     </defs>
     <g transform="translate(226.265578 243.898362)rotate(-85.958278)scale(0.08 -0.08)">
      <use xlink:href="#DejaVuSans-30"/>
      <use x="63.623047" xlink:href="#DejaVuSans-2e"/>
      <use x="95.410156" xlink:href="#DejaVuSans-35"/>
      <use x="159.033203" xlink:href="#DejaVuSans-39"/>
      <use x="222.65625" xlink:href="#DejaVuSans-31"/>
     </g>
    </g>
   </g>
   <g id="text_21">
    <g clip-path="url(#p86650075c3)">
     <!-- 0.708 -->
     <defs>
      <path d="M 31.78125 34.625 
Q 24.75 34.625 20.71875 30.859375 
Q 16.703125 27.09375 16.703125 20.515625 
Q 16.703125 13.921875 20.71875 10.15625 
Q 24.75 6.390625 31.78125 6.390625 
Q 38.8125 6.390625 42.859375 10.171875 
Q 46.921875 13.96875 46.921875 20.515625 
Q 46.921875 27.09375 42.890625 30.859375 
Q 38.875 34.625 31.78125 34.625 
z
M 21.921875 38.8125 
Q 15.578125 40.375 12.03125 44.71875 
Q 8.5 49.078125 8.5 55.328125 
Q 8.5 64.0625 14.71875 69.140625 
Q 20.953125 74.21875 31.78125 74.21875 
Q 42.671875 74.21875 48.875 69.140625 
Q 55.078125 64.0625 55.078125 55.328125 
Q 55.078125 49.078125 51.53125 44.71875 
Q 48 40.375 41.703125 38.8125 
Q 48.828125 37.15625 52.796875 32.3125 
Q 56.78125 27.484375 56.78125 20.515625 
Q 56.78125 9.90625 50.3125 4.234375 
Q 43.84375 -1.421875 31.78125 -1.421875 
Q 19.734375 -1.421875 13.25 4.234375 
Q 6.78125 9.90625 6.78125 20.515625 
Q 6.78125 27.484375 10.78125 32.3125 
Q 14.796875 37.15625 21.921875 38.8125 
z
M 18.3125 54.390625 
Q 18.3125 48.734375 21.84375 45.5625 
Q 25.390625 42.390625 31.78125 42.390625 
Q 38.140625 42.390625 41.71875 45.5625 
Q 45.3125 48.734375 45.3125 54.390625 
Q 45.3125 60.0625 41.71875 63.234375 
Q 38.140625 66.40625 31.78125 66.40625 
Q 25.390625 66.40625 21.84375 63.234375 
Q 18.3125 60.0625 18.3125 54.390625 
z
" id="DejaVuSans-38"/>
     </defs>
     <g transform="translate(314.537757 196.334715)rotate(-315.703243)scale(0.08 -0.08)">
      <use xlink:href="#DejaVuSans-30"/>
      <use x="63.623047" xlink:href="#DejaVuSans-2e"/>
      <use x="95.410156" xlink:href="#DejaVuSans-37"/>
      <use x="159.033203" xlink:href="#DejaVuSans-30"/>
      <use x="222.65625" xlink:href="#DejaVuSans-38"/>
     </g>
    </g>
   </g>
   <g id="text_22">
    <g clip-path="url(#p86650075c3)">
     <!-- 0.824 -->
     <g transform="translate(255.087909 242.782473)rotate(-277.863947)scale(0.08 -0.08)">
      <use xlink:href="#DejaVuSans-30"/>
      <use x="63.623047" xlink:href="#DejaVuSans-2e"/>
      <use x="95.410156" xlink:href="#DejaVuSans-38"/>
      <use x="159.033203" xlink:href="#DejaVuSans-32"/>
      <use x="222.65625" xlink:href="#DejaVuSans-34"/>
     </g>
    </g>
   </g>
  </g>
 </g>
 <defs>
  <clipPath id="p86650075c3">
   <rect height="266.112" width="357.12" x="57.6" y="41.472"/>
  </clipPath>
 </defs>
</svg>
