<?xml version="1.0" encoding="utf-8" standalone="no"?>
<!DOCTYPE svg PUBLIC "-//W3C//DTD SVG 1.1//EN"
  "http://www.w3.org/Graphics/SVG/1.1/DTD/svg11.dtd">
<!-- Created with matplotlib (http://matplotlib.org/) -->
<svg height="345pt" version="1.1" viewBox="0 0 460 345" width="460pt" xmlns="http://www.w3.org/2000/svg" xmlns:xlink="http://www.w3.org/1999/xlink">
 <defs>
  <style type="text/css">
*{stroke-linecap:butt;stroke-linejoin:round;}
  </style>
 </defs>
 <g id="figure_1">
  <g id="patch_1">
   <path d="M 0 345.6 
L 460.8 345.6 
L 460.8 0 
L 0 0 
z
" style="fill:#ffffff;"/>
  </g>
  <g id="axes_1">
   <g id="patch_2">
    <path d="M 57.6 307.584 
L 414.72 307.584 
L 414.72 41.472 
L 57.6 41.472 
z
" style="fill:#ffffff;"/>
   </g>
   <g id="matplotlib.axis_1">
    <g id="xtick_1">
     <g id="line2d_1">
      <defs>
       <path d="M 0 0 
L 0 3.5 
" id="m326d39d134" style="stroke:#000000;stroke-width:0.8;"/>
      </defs>
      <g>
       <use style="stroke:#000000;stroke-width:0.8;" x="57.6" xlink:href="#m326d39d134" y="307.584"/>
      </g>
     </g>
     <g id="text_1">
      <!-- −1.5 -->
      <defs>
       <path d="M 10.59375 35.5 
L 73.1875 35.5 
L 73.1875 27.203125 
L 10.59375 27.203125 
z
" id="DejaVuSans-2212"/>
       <path d="M 12.40625 8.296875 
L 28.515625 8.296875 
L 28.515625 63.921875 
L 10.984375 60.40625 
L 10.984375 69.390625 
L 28.421875 72.90625 
L 38.28125 72.90625 
L 38.28125 8.296875 
L 54.390625 8.296875 
L 54.390625 0 
L 12.40625 0 
z
" id="DejaVuSans-31"/>
       <path d="M 10.6875 12.40625 
L 21 12.40625 
L 21 0 
L 10.6875 0 
z
" id="DejaVuSans-2e"/>
       <path d="M 10.796875 72.90625 
L 49.515625 72.90625 
L 49.515625 64.59375 
L 19.828125 64.59375 
L 19.828125 46.734375 
Q 21.96875 47.46875 24.109375 47.828125 
Q 26.265625 48.1875 28.421875 48.1875 
Q 40.625 48.1875 47.75 41.5 
Q 54.890625 34.8125 54.890625 23.390625 
Q 54.890625 11.625 47.5625 5.09375 
Q 40.234375 -1.421875 26.90625 -1.421875 
Q 22.3125 -1.421875 17.546875 -0.640625 
Q 12.796875 0.140625 7.71875 1.703125 
L 7.71875 11.625 
Q 12.109375 9.234375 16.796875 8.0625 
Q 21.484375 6.890625 26.703125 6.890625 
Q 35.15625 6.890625 40.078125 11.328125 
Q 45.015625 15.765625 45.015625 23.390625 
Q 45.015625 31 40.078125 35.4375 
Q 35.15625 39.890625 26.703125 39.890625 
Q 22.75 39.890625 18.8125 39.015625 
Q 14.890625 38.140625 10.796875 36.28125 
z
" id="DejaVuSans-35"/>
      </defs>
      <g transform="translate(45.458594 322.182437)scale(0.1 -0.1)">
       <use xlink:href="#DejaVuSans-2212"/>
       <use x="83.789062" xlink:href="#DejaVuSans-31"/>
       <use x="147.412109" xlink:href="#DejaVuSans-2e"/>
       <use x="179.199219" xlink:href="#DejaVuSans-35"/>
      </g>
     </g>
    </g>
    <g id="xtick_2">
     <g id="line2d_2">
      <g>
       <use style="stroke:#000000;stroke-width:0.8;" x="117.12" xlink:href="#m326d39d134" y="307.584"/>
      </g>
     </g>
     <g id="text_2">
      <!-- −1.0 -->
      <defs>
       <path d="M 31.78125 66.40625 
Q 24.171875 66.40625 20.328125 58.90625 
Q 16.5 51.421875 16.5 36.375 
Q 16.5 21.390625 20.328125 13.890625 
Q 24.171875 6.390625 31.78125 6.390625 
Q 39.453125 6.390625 43.28125 13.890625 
Q 47.125 21.390625 47.125 36.375 
Q 47.125 51.421875 43.28125 58.90625 
Q 39.453125 66.40625 31.78125 66.40625 
z
M 31.78125 74.21875 
Q 44.046875 74.21875 50.515625 64.515625 
Q 56.984375 54.828125 56.984375 36.375 
Q 56.984375 17.96875 50.515625 8.265625 
Q 44.046875 -1.421875 31.78125 -1.421875 
Q 19.53125 -1.421875 13.0625 8.265625 
Q 6.59375 17.96875 6.59375 36.375 
Q 6.59375 54.828125 13.0625 64.515625 
Q 19.53125 74.21875 31.78125 74.21875 
z
" id="DejaVuSans-30"/>
      </defs>
      <g transform="translate(104.978594 322.182437)scale(0.1 -0.1)">
       <use xlink:href="#DejaVuSans-2212"/>
       <use x="83.789062" xlink:href="#DejaVuSans-31"/>
       <use x="147.412109" xlink:href="#DejaVuSans-2e"/>
       <use x="179.199219" xlink:href="#DejaVuSans-30"/>
      </g>
     </g>
    </g>
    <g id="xtick_3">
     <g id="line2d_3">
      <g>
       <use style="stroke:#000000;stroke-width:0.8;" x="176.64" xlink:href="#m326d39d134" y="307.584"/>
      </g>
     </g>
     <g id="text_3">
      <!-- −0.5 -->
      <g transform="translate(164.498594 322.182437)scale(0.1 -0.1)">
       <use xlink:href="#DejaVuSans-2212"/>
       <use x="83.789062" xlink:href="#DejaVuSans-30"/>
       <use x="147.412109" xlink:href="#DejaVuSans-2e"/>
       <use x="179.199219" xlink:href="#DejaVuSans-35"/>
      </g>
     </g>
    </g>
    <g id="xtick_4">
     <g id="line2d_4">
      <g>
       <use style="stroke:#000000;stroke-width:0.8;" x="236.16" xlink:href="#m326d39d134" y="307.584"/>
      </g>
     </g>
     <g id="text_4">
      <!-- 0.0 -->
      <g transform="translate(228.208438 322.182437)scale(0.1 -0.1)">
       <use xlink:href="#DejaVuSans-30"/>
       <use x="63.623047" xlink:href="#DejaVuSans-2e"/>
       <use x="95.410156" xlink:href="#DejaVuSans-30"/>
      </g>
     </g>
    </g>
    <g id="xtick_5">
     <g id="line2d_5">
      <g>
       <use style="stroke:#000000;stroke-width:0.8;" x="295.68" xlink:href="#m326d39d134" y="307.584"/>
      </g>
     </g>
     <g id="text_5">
      <!-- 0.5 -->
      <g transform="translate(287.728437 322.182437)scale(0.1 -0.1)">
       <use xlink:href="#DejaVuSans-30"/>
       <use x="63.623047" xlink:href="#DejaVuSans-2e"/>
       <use x="95.410156" xlink:href="#DejaVuSans-35"/>
      </g>
     </g>
    </g>
    <g id="xtick_6">
     <g id="line2d_6">
      <g>
       <use style="stroke:#000000;stroke-width:0.8;" x="355.2" xlink:href="#m326d39d134" y="307.584"/>
      </g>
     </g>
     <g id="text_6">
      <!-- 1.0 -->
      <g transform="translate(347.248437 322.182437)scale(0.1 -0.1)">
       <use xlink:href="#DejaVuSans-31"/>
       <use x="63.623047" xlink:href="#DejaVuSans-2e"/>
       <use x="95.410156" xlink:href="#DejaVuSans-30"/>
      </g>
     </g>
    </g>
    <g id="xtick_7">
     <g id="line2d_7">
      <g>
       <use style="stroke:#000000;stroke-width:0.8;" x="414.72" xlink:href="#m326d39d134" y="307.584"/>
      </g>
     </g>
     <g id="text_7">
      <!-- 1.5 -->
      <g transform="translate(406.768438 322.182437)scale(0.1 -0.1)">
       <use xlink:href="#DejaVuSans-31"/>
       <use x="63.623047" xlink:href="#DejaVuSans-2e"/>
       <use x="95.410156" xlink:href="#DejaVuSans-35"/>
      </g>
     </g>
    </g>
    <g id="text_8">
     <!-- X -->
     <defs>
      <path d="M 6.296875 72.90625 
L 16.890625 72.90625 
L 35.015625 45.796875 
L 53.21875 72.90625 
L 63.8125 72.90625 
L 40.375 37.890625 
L 65.375 0 
L 54.78125 0 
L 34.28125 31 
L 13.625 0 
L 2.984375 0 
L 29 38.921875 
z
" id="DejaVuSans-58"/>
     </defs>
     <g transform="translate(232.735 335.860562)scale(0.1 -0.1)">
      <use xlink:href="#DejaVuSans-58"/>
     </g>
    </g>
   </g>
   <g id="matplotlib.axis_2">
    <g id="ytick_1">
     <g id="line2d_8">
      <defs>
       <path d="M 0 0 
L -3.5 0 
" id="mfee3a5ae5d" style="stroke:#000000;stroke-width:0.8;"/>
      </defs>
      <g>
       <use style="stroke:#000000;stroke-width:0.8;" x="57.6" xlink:href="#mfee3a5ae5d" y="286.583684"/>
      </g>
     </g>
     <g id="text_9">
      <!-- −1.0 -->
      <g transform="translate(26.317187 290.382902)scale(0.1 -0.1)">
       <use xlink:href="#DejaVuSans-2212"/>
       <use x="83.789062" xlink:href="#DejaVuSans-31"/>
       <use x="147.412109" xlink:href="#DejaVuSans-2e"/>
       <use x="179.199219" xlink:href="#DejaVuSans-30"/>
      </g>
     </g>
    </g>
    <g id="ytick_2">
     <g id="line2d_9">
      <g>
       <use style="stroke:#000000;stroke-width:0.8;" x="57.6" xlink:href="#mfee3a5ae5d" y="230.555842"/>
      </g>
     </g>
     <g id="text_10">
      <!-- −0.5 -->
      <g transform="translate(26.317187 234.355061)scale(0.1 -0.1)">
       <use xlink:href="#DejaVuSans-2212"/>
       <use x="83.789062" xlink:href="#DejaVuSans-30"/>
       <use x="147.412109" xlink:href="#DejaVuSans-2e"/>
       <use x="179.199219" xlink:href="#DejaVuSans-35"/>
      </g>
     </g>
    </g>
    <g id="ytick_3">
     <g id="line2d_10">
      <g>
       <use style="stroke:#000000;stroke-width:0.8;" x="57.6" xlink:href="#mfee3a5ae5d" y="174.528"/>
      </g>
     </g>
     <g id="text_11">
      <!-- 0.0 -->
      <g transform="translate(34.696875 178.327219)scale(0.1 -0.1)">
       <use xlink:href="#DejaVuSans-30"/>
       <use x="63.623047" xlink:href="#DejaVuSans-2e"/>
       <use x="95.410156" xlink:href="#DejaVuSans-30"/>
      </g>
     </g>
    </g>
    <g id="ytick_4">
     <g id="line2d_11">
      <g>
       <use style="stroke:#000000;stroke-width:0.8;" x="57.6" xlink:href="#mfee3a5ae5d" y="118.500158"/>
      </g>
     </g>
     <g id="text_12">
      <!-- 0.5 -->
      <g transform="translate(34.696875 122.299377)scale(0.1 -0.1)">
       <use xlink:href="#DejaVuSans-30"/>
       <use x="63.623047" xlink:href="#DejaVuSans-2e"/>
       <use x="95.410156" xlink:href="#DejaVuSans-35"/>
      </g>
     </g>
    </g>
    <g id="ytick_5">
     <g id="line2d_12">
      <g>
       <use style="stroke:#000000;stroke-width:0.8;" x="57.6" xlink:href="#mfee3a5ae5d" y="62.472316"/>
      </g>
     </g>
     <g id="text_13">
      <!-- 1.0 -->
      <g transform="translate(34.696875 66.271535)scale(0.1 -0.1)">
       <use xlink:href="#DejaVuSans-31"/>
       <use x="63.623047" xlink:href="#DejaVuSans-2e"/>
       <use x="95.410156" xlink:href="#DejaVuSans-30"/>
      </g>
     </g>
    </g>
    <g id="text_14">
     <!-- Y -->
     <defs>
      <path d="M -0.203125 72.90625 
L 10.40625 72.90625 
L 30.609375 42.921875 
L 50.6875 72.90625 
L 61.28125 72.90625 
L 35.5 34.71875 
L 35.5 0 
L 25.59375 0 
L 25.59375 34.71875 
z
" id="DejaVuSans-59"/>
     </defs>
     <g transform="translate(20.2375 177.581906)rotate(-90)scale(0.1 -0.1)">
      <use xlink:href="#DejaVuSans-59"/>
     </g>
    </g>
   </g>
   <g id="LineCollection_1">
    <path clip-path="url(#p6b7bef2d79)" d="M 265.307987 76.776048 
L 263.584605 79.488 
L 261.668571 83.74748 
L 261.099581 84.918857 
L 258.599971 90.349714 
L 256.562109 95.780571 
L 255.304396 101.211429 
L 254.448009 106.642286 
L 254.380408 107.155693 
L 253.618094 112.073143 
L 253.176602 117.504 
L 253.23816 122.934857 
L 253.433537 128.365714 
L 253.570133 129.336971 
" style="fill:none;stroke:#000000;stroke-width:1.5;"/>
    <path clip-path="url(#p6b7bef2d79)" d="M 262.190823 159.128662 
L 263.027827 160.950857 
L 266.068432 166.381714 
L 268.956735 170.566967 
L 269.782625 171.812571 
L 273.730501 177.243429 
L 276.244898 180.16804 
L 278.549571 182.674286 
L 283.533061 187.183055 
L 284.612468 188.105143 
L 290.821224 193.017547 
L 291.560575 193.536 
L 298.109388 197.815964 
L 300.23493 198.966857 
L 305.397551 201.790962 
L 311.314433 204.397714 
L 312.685714 205.013485 
L 319.973878 207.629142 
L 327.262041 209.488433 
L 329.101374 209.828571 
L 334.550204 210.950105 
L 341.838367 211.821939 
L 349.126531 212.125346 
L 356.414694 211.952634 
L 363.702857 211.194615 
L 370.99102 209.875457 
L 371.173733 209.828571 
L 378.279184 208.178949 
L 385.567347 205.77963 
L 388.888804 204.397714 
L 392.85551 202.778717 
L 400.032039 198.966857 
L 400.143673 198.906785 
L 407.431837 194.328086 
L 408.529211 193.536 
L 414.72 188.66552 
" style="fill:none;stroke:#000000;stroke-width:1.5;"/>
    <path clip-path="url(#p6b7bef2d79)" d="M 414.72 53.105152 
L 413.786342 52.333714 
L 407.431837 47.533381 
L 406.477665 46.902857 
" style="fill:none;stroke:#000000;stroke-width:1.5;"/>
   </g>
   <g id="LineCollection_2">
    <path clip-path="url(#p6b7bef2d79)" d="M 414.72 76.706602 
L 412.629512 74.057143 
L 407.508371 68.626286 
L 407.431837 68.552769 
L 405.879307 67.193537 
" style="fill:none;stroke:#000000;stroke-width:1.5;"/>
    <path clip-path="url(#p6b7bef2d79)" d="M 379.472683 50.957923 
L 378.279184 50.464323 
L 370.99102 48.262777 
L 369.608096 47.933359 
" style="fill:none;stroke:#000000;stroke-width:1.5;"/>
    <path clip-path="url(#p6b7bef2d79)" d="M 298.370773 63.195429 
L 298.109388 63.396605 
L 292.43939 68.626286 
L 290.821224 70.233384 
L 287.382448 74.057143 
L 283.533061 79.111995 
L 283.232421 79.488 
L 279.603044 84.918857 
L 276.881209 90.349714 
L 276.244898 91.977342 
L 274.719522 95.780571 
L 272.806939 101.211429 
L 271.475454 106.642286 
L 270.644187 112.073143 
L 270.137834 117.504 
L 270.060562 122.934857 
L 270.378976 128.365714 
L 271.170242 133.796571 
L 272.376285 139.227429 
L 274.049115 144.658286 
L 276.244898 149.804078 
L 276.35991 150.089143 
L 278.934835 155.52 
L 282.342074 160.950857 
L 283.533061 162.561509 
L 286.400325 166.381714 
L 290.821224 171.29626 
L 291.316478 171.812571 
L 296.961833 177.243429 
L 298.109388 178.218391 
L 304.165834 182.674286 
L 305.397551 183.481798 
L 312.685714 187.5048 
L 314.059785 188.105143 
L 319.973878 190.715383 
L 327.262041 193.065025 
L 329.324681 193.536 
L 334.550204 194.803387 
L 341.838367 195.869776 
L 349.126531 196.24638 
L 356.414694 196.027453 
L 363.702857 195.140614 
L 370.99102 193.547202 
L 371.027394 193.536 
L 378.279184 191.362039 
L 385.567347 188.268795 
L 385.883037 188.105143 
L 386.852031 187.588097 
" style="fill:none;stroke:#000000;stroke-width:1.5;"/>
    <path clip-path="url(#p6b7bef2d79)" d="M 411.597473 168.920824 
L 413.83663 166.381714 
L 414.72 165.201653 
" style="fill:none;stroke:#000000;stroke-width:1.5;"/>
   </g>
   <g id="LineCollection_3">
    <path clip-path="url(#p6b7bef2d79)" d="M 414.72 102.699106 
L 414.271974 101.211429 
L 412.149996 95.780571 
L 409.332213 90.349714 
L 407.431837 87.423947 
L 405.742942 84.918857 
L 401.310158 79.488 
L 400.143673 78.262445 
L 395.681478 74.057143 
L 392.85551 71.72029 
L 388.421472 68.626286 
L 385.567347 66.810846 
L 378.376431 63.195429 
L 378.279184 63.148709 
L 372.901357 61.137165 
" style="fill:none;stroke:#000000;stroke-width:1.5;"/>
    <path clip-path="url(#p6b7bef2d79)" d="M 342.148363 57.825224 
L 341.838367 57.84558 
L 334.550204 58.99796 
L 327.262041 61.046849 
L 321.916898 63.195429 
L 319.973878 64.010175 
L 312.685714 67.965188 
L 311.689927 68.626286 
L 305.397551 73.151555 
L 304.315887 74.057143 
L 298.893191 79.488 
L 298.109388 80.400619 
L 294.466879 84.918857 
L 290.833809 90.349714 
L 290.821224 90.373386 
L 287.961134 95.780571 
L 285.764073 101.211429 
L 284.204844 106.642286 
L 283.533061 110.120377 
L 283.132869 112.073143 
L 282.552625 117.504 
L 282.465538 122.934857 
L 282.916973 128.365714 
L 283.533061 131.76501 
L 283.877387 133.796571 
L 285.295355 139.227429 
L 287.320041 144.658286 
L 289.981037 150.089143 
L 290.821224 151.490838 
L 293.284996 155.52 
L 297.657101 160.950857 
L 298.109388 161.443178 
L 303.041019 166.381714 
L 305.397551 168.487112 
L 309.728437 171.812571 
L 312.685714 173.902782 
L 318.649865 177.243429 
L 319.973878 177.927597 
L 327.262041 180.878574 
L 333.750486 182.674286 
L 334.550204 182.894085 
L 341.838367 184.074893 
L 349.126531 184.567703 
L 356.414694 184.258041 
L 363.702857 183.160844 
L 365.62451 182.674286 
L 370.99102 181.351979 
L 378.279184 178.656731 
L 381.160204 177.243429 
L 385.567347 175.025558 
L 390.660515 171.812571 
L 392.85551 170.253856 
L 397.459673 166.381714 
L 400.143673 163.698395 
L 402.622825 160.950857 
L 406.735611 155.52 
L 407.431837 154.439344 
L 410.142066 150.089143 
L 412.801695 144.658286 
L 414.72 139.368937 
" style="fill:none;stroke:#000000;stroke-width:1.5;"/>
   </g>
   <g id="LineCollection_4">
    <path clip-path="url(#p6b7bef2d79)" d="M 294.229646 110.276309 
L 293.7871 112.073143 
L 293.19642 117.504 
L 293.076697 122.934857 
L 293.584063 128.365714 
L 294.772915 133.796571 
L 296.459406 139.227429 
L 298.109388 142.803351 
L 299.000781 144.658286 
L 302.290181 150.089143 
L 305.397551 154.169106 
L 306.55401 155.52 
L 312.257554 160.950857 
L 312.685714 161.310452 
L 319.973878 166.279442 
L 320.164692 166.381714 
L 327.262041 169.952304 
L 332.501791 171.812571 
L 334.550204 172.521228 
L 341.838367 173.981329 
L 349.126531 174.539771 
L 356.414694 174.257669 
L 363.702857 173.006918 
L 367.822112 171.812571 
L 370.99102 170.861809 
L 378.279184 167.624068 
L 380.389788 166.381714 
L 385.567347 162.929591 
L 387.985018 160.950857 
L 392.85551 156.276569 
L 393.543911 155.52 
L 397.825586 150.089143 
L 400.143673 146.33721 
L 401.1158 144.658286 
L 403.600396 139.227429 
L 405.372831 133.796571 
L 406.4696 128.365714 
L 406.964737 122.934857 
L 406.899195 117.504 
L 406.231587 112.073143 
L 404.968692 106.642286 
L 403.033862 101.211429 
L 400.342795 95.780571 
L 400.143673 95.453912 
L 396.821434 90.349714 
L 392.85551 85.568867 
L 392.243216 84.918857 
L 386.167607 79.488 
L 385.567347 79.018086 
L 378.279184 74.359041 
L 377.655077 74.057143 
L 370.99102 71.048502 
L 363.702857 68.874174 
L 362.254489 68.626286 
L 356.414694 67.62497 
L 349.126531 67.288555 
L 341.838367 67.826502 
L 337.843428 68.626286 
L 334.550204 69.292812 
L 327.262041 71.807435 
L 322.566899 74.057143 
L 319.973878 75.416189 
L 313.964423 79.488 
L 312.685714 80.462504 
L 309.385989 83.542245 
" style="fill:none;stroke:#000000;stroke-width:1.5;"/>
   </g>
   <g id="LineCollection_5">
    <path clip-path="url(#p6b7bef2d79)" d="M 313.071424 148.108645 
L 314.794681 150.089143 
L 319.973878 154.916622 
L 320.785619 155.52 
L 327.262041 159.551053 
L 330.38561 160.950857 
L 334.550204 162.672827 
L 341.838367 164.441125 
L 349.126531 165.136231 
L 356.414694 164.811954 
L 363.702857 163.313105 
L 370.114092 160.950857 
L 370.99102 160.594914 
L 378.279184 156.287692 
L 379.274176 155.52 
L 385.376307 150.089143 
L 385.567347 149.882846 
L 389.629537 144.658286 
L 392.845176 139.227429 
L 392.85551 139.203565 
L 395.017652 133.796571 
L 396.364703 128.365714 
L 396.991004 122.934857 
L 396.897533 117.504 
L 396.083385 112.073143 
L 394.52562 106.642286 
L 392.85551 102.802367 
L 392.104346 101.211429 
L 388.667896 95.780571 
L 385.567347 92.006152 
L 383.957751 90.349714 
L 378.279184 85.546503 
L 377.314878 84.918857 
L 370.99102 81.326073 
L 366.225914 79.488 
L 363.702857 78.588271 
L 356.414694 77.085512 
L 349.126531 76.682166 
L 341.838367 77.356104 
L 334.550204 79.128937 
L 333.651005 79.488 
L 327.262041 82.251303 
L 322.837195 84.918857 
L 319.973878 86.936441 
L 316.156011 90.349714 
L 312.685714 94.104516 
L 311.375978 95.780571 
L 308.003883 101.211429 
L 305.54601 106.642286 
L 305.397551 107.1299 
L 303.966331 112.073143 
L 303.190817 117.504 
L 303.153028 119.286003 
" style="fill:none;stroke:#000000;stroke-width:1.5;"/>
   </g>
   <g id="LineCollection_6">
    <path clip-path="url(#p6b7bef2d79)" d="M 365.499882 152.197824 
L 369.869826 150.089143 
L 370.99102 149.454237 
L 376.791344 144.658286 
L 378.279184 143.104709 
L 381.257009 139.227429 
L 384.232417 133.796571 
L 385.567347 129.93893 
L 386.045311 128.365714 
L 386.813631 122.934857 
L 386.701673 117.504 
L 385.681774 112.073143 
L 385.567347 111.743249 
L 383.559455 106.642286 
L 380.271959 101.211429 
L 378.279184 98.735012 
L 375.277551 95.780571 
L 370.99102 92.43664 
L 367.152077 90.349714 
L 363.702857 88.740289 
L 356.414694 86.786001 
L 349.126531 86.262256 
L 341.838367 87.156205 
L 334.550204 89.456012 
L 332.822327 90.349714 
L 327.262041 93.708437 
L 324.758062 95.780571 
L 319.973878 100.955882 
L 319.78236 101.211429 
L 316.528401 106.642286 
L 314.4724 112.073143 
L 313.406574 117.504 
L 313.27679 122.934857 
L 314.145499 128.365714 
L 315.965295 133.796571 
L 318.777387 139.227429 
L 319.973878 140.851138 
L 323.40398 144.658286 
L 327.262041 148.08007 
L 330.374766 150.089143 
L 334.550204 152.362099 
L 335.180108 152.5639 
" style="fill:none;stroke:#000000;stroke-width:1.5;"/>
   </g>
   <g id="LineCollection_7">
    <path clip-path="url(#p6b7bef2d79)" d="M 341.059095 98.980895 
L 336.320688 101.211429 
L 334.550204 102.291766 
L 330.139979 106.642286 
L 327.262041 110.986461 
L 326.719412 112.073143 
L 325.259298 117.504 
L 325.053544 122.934857 
L 326.236456 128.365714 
L 327.262041 130.687254 
L 329.086416 133.796571 
L 334.050361 139.227429 
L 334.550204 139.629199 
L 341.838367 143.231056 
L 349.126531 144.62021 
L 356.414694 143.832978 
L 363.702857 140.756945 
L 365.8255 139.227429 
L 370.99102 134.151503 
L 371.24892 133.796571 
L 373.816181 128.365714 
L 375.009429 122.934857 
L 374.805795 117.504 
L 373.270829 112.073143 
L 370.99102 107.836322 
L 370.106391 106.642286 
L 369.505694 106.101712 
" style="fill:none;stroke:#000000;stroke-width:1.5;"/>
   </g>
   <g id="LineCollection_8">
    <path clip-path="url(#p6b7bef2d79)" d="M 349.126531 123.272027 
L 349.811547 122.934857 
L 349.126531 120.664027 
L 348.726198 122.934857 
L 349.126531 123.272027 
" style="fill:none;stroke:#000000;stroke-width:1.5;"/>
   </g>
   <g id="line2d_13">
    <path clip-path="url(#p6b7bef2d79)" d="M 57.6 209.555525 
L 57.6 139.500475 
L 57.6 139.500475 
" style="fill:none;stroke:#000000;stroke-linecap:square;stroke-width:0.1;"/>
   </g>
   <g id="line2d_14">
    <path clip-path="url(#p6b7bef2d79)" d="M 60.184272 209.800185 
L 60.184272 139.255815 
L 60.184272 139.255815 
" style="fill:none;stroke:#000000;stroke-linecap:square;stroke-width:0.1;"/>
   </g>
   <g id="line2d_15">
    <path clip-path="url(#p6b7bef2d79)" d="M 66.2141 210.389864 
L 66.2141 138.666136 
L 66.2141 138.666136 
" style="fill:none;stroke:#000000;stroke-linecap:square;stroke-width:0.1;"/>
   </g>
   <g id="line2d_16">
    <path clip-path="url(#p6b7bef2d79)" d="M 75.55268 211.361973 
L 75.55268 137.694027 
L 75.55268 137.694027 
" style="fill:none;stroke:#000000;stroke-linecap:square;stroke-width:0.1;"/>
   </g>
   <g id="line2d_17">
    <path clip-path="url(#p6b7bef2d79)" d="M 88.017501 212.794096 
L 88.017501 136.261904 
L 88.017501 136.261904 
" style="fill:none;stroke:#000000;stroke-linecap:square;stroke-width:0.1;"/>
   </g>
   <g id="line2d_18">
    <path clip-path="url(#p6b7bef2d79)" d="M 103.365814 214.827182 
L 103.365814 134.228818 
L 103.365814 134.228818 
" style="fill:none;stroke:#000000;stroke-linecap:square;stroke-width:0.1;"/>
   </g>
   <g id="line2d_19">
    <path clip-path="url(#p6b7bef2d79)" d="M 121.298843 217.702901 
L 121.298843 131.353099 
L 121.298843 131.353099 
" style="fill:none;stroke:#000000;stroke-linecap:square;stroke-width:0.1;"/>
   </g>
   <g id="line2d_20">
    <path clip-path="url(#p6b7bef2d79)" d="M 141.46753 221.804628 
L 141.46753 127.251372 
L 141.46753 127.251372 
" style="fill:none;stroke:#000000;stroke-linecap:square;stroke-width:0.1;"/>
   </g>
   <g id="line2d_21">
    <path clip-path="url(#p6b7bef2d79)" d="M 163.479305 227.65974 
L 163.479305 121.39626 
L 163.479305 121.39626 
" style="fill:none;stroke:#000000;stroke-linecap:square;stroke-width:0.1;"/>
   </g>
   <g id="line2d_22">
    <path clip-path="url(#p6b7bef2d79)" d="M 186.905733 235.799223 
L 186.905733 113.256777 
L 186.905733 113.256777 
" style="fill:none;stroke:#000000;stroke-linecap:square;stroke-width:0.1;"/>
   </g>
   <g id="line2d_23">
    <path clip-path="url(#p6b7bef2d79)" d="M 211.290841 246.358462 
L 211.290841 102.697538 
L 211.290841 102.697538 
" style="fill:none;stroke:#000000;stroke-linecap:square;stroke-width:0.1;"/>
   </g>
   <g id="line2d_24">
    <path clip-path="url(#p6b7bef2d79)" d="M 236.16 258.569763 
L 236.16 90.486237 
L 236.16 90.486237 
" style="fill:none;stroke:#000000;stroke-linecap:square;stroke-width:0.1;"/>
   </g>
   <g id="line2d_25">
    <path clip-path="url(#p6b7bef2d79)" d="M 261.029159 270.781063 
L 261.029159 78.274937 
L 261.029159 78.274937 
" style="fill:none;stroke:#000000;stroke-linecap:square;stroke-width:0.1;"/>
   </g>
   <g id="line2d_26">
    <path clip-path="url(#p6b7bef2d79)" d="M 285.414267 281.340302 
L 285.414267 67.715698 
L 285.414267 67.715698 
" style="fill:none;stroke:#000000;stroke-linecap:square;stroke-width:0.1;"/>
   </g>
   <g id="line2d_27">
    <path clip-path="url(#p6b7bef2d79)" d="M 308.840695 289.479785 
L 308.840695 59.576215 
L 308.840695 59.576215 
" style="fill:none;stroke:#000000;stroke-linecap:square;stroke-width:0.1;"/>
   </g>
   <g id="line2d_28">
    <path clip-path="url(#p6b7bef2d79)" d="M 330.85247 295.334897 
L 330.85247 53.721103 
L 330.85247 53.721103 
" style="fill:none;stroke:#000000;stroke-linecap:square;stroke-width:0.1;"/>
   </g>
   <g id="line2d_29">
    <path clip-path="url(#p6b7bef2d79)" d="M 351.021157 299.436624 
L 351.021157 49.619376 
L 351.021157 49.619376 
" style="fill:none;stroke:#000000;stroke-linecap:square;stroke-width:0.1;"/>
   </g>
   <g id="line2d_30">
    <path clip-path="url(#p6b7bef2d79)" d="M 368.954186 302.312344 
L 368.954186 46.743656 
L 368.954186 46.743656 
" style="fill:none;stroke:#000000;stroke-linecap:square;stroke-width:0.1;"/>
   </g>
   <g id="line2d_31">
    <path clip-path="url(#p6b7bef2d79)" d="M 384.302499 304.345429 
L 384.302499 44.710571 
L 384.302499 44.710571 
" style="fill:none;stroke:#000000;stroke-linecap:square;stroke-width:0.1;"/>
   </g>
   <g id="line2d_32">
    <path clip-path="url(#p6b7bef2d79)" d="M 396.76732 305.777553 
L 396.76732 43.278447 
L 396.76732 43.278447 
" style="fill:none;stroke:#000000;stroke-linecap:square;stroke-width:0.1;"/>
   </g>
   <g id="line2d_33">
    <path clip-path="url(#p6b7bef2d79)" d="M 406.1059 306.749661 
L 406.1059 42.306339 
L 406.1059 42.306339 
" style="fill:none;stroke:#000000;stroke-linecap:square;stroke-width:0.1;"/>
   </g>
   <g id="line2d_34">
    <path clip-path="url(#p6b7bef2d79)" d="M 412.135728 307.33934 
L 412.135728 41.71666 
L 412.135728 41.71666 
" style="fill:none;stroke:#000000;stroke-linecap:square;stroke-width:0.1;"/>
   </g>
   <g id="line2d_35">
    <path clip-path="url(#p6b7bef2d79)" d="M 414.72 307.584 
L 414.72 41.472 
L 414.72 41.472 
" style="fill:none;stroke:#000000;stroke-linecap:square;stroke-width:0.1;"/>
   </g>
   <g id="line2d_36">
    <path clip-path="url(#p6b7bef2d79)" d="M 57.6 209.555525 
L 74.776112 211.27813 
L 89.089539 212.925595 
L 101.971623 214.628044 
L 113.422365 216.363103 
L 124.157435 218.222358 
L 133.461162 220.048965 
L 142.76489 222.106507 
L 151.352946 224.2358 
L 159.941002 226.607372 
L 167.813387 229.011318 
L 175.685772 231.644496 
L 183.558156 234.509804 
L 191.430541 237.609086 
L 200.018597 241.242066 
L 209.322325 245.439229 
L 219.341723 250.213637 
L 233.65515 257.313207 
L 255.125291 267.967335 
L 265.144689 272.690992 
L 274.448417 276.828741 
L 283.036473 280.398643 
L 290.908858 283.434344 
L 298.781242 286.236076 
L 306.653627 288.806414 
L 314.526012 291.148883 
L 323.114068 293.45796 
L 331.702124 295.529893 
L 341.005852 297.531496 
L 350.309579 299.309045 
L 360.328978 301.006366 
L 371.779719 302.712697 
L 383.946132 304.301875 
L 398.259559 305.938156 
L 414.72 307.584 
L 414.72 307.584 
" style="fill:none;stroke:#000000;stroke-linecap:square;stroke-width:0.1;"/>
   </g>
   <g id="line2d_37">
    <path clip-path="url(#p6b7bef2d79)" d="M 57.6 209.048578 
L 74.776112 210.746251 
L 89.089539 212.369873 
L 101.971623 214.047682 
L 113.422365 215.757629 
L 124.157435 217.589976 
L 134.176834 219.537674 
L 143.480561 221.584157 
L 152.068617 223.701759 
L 160.656673 226.059818 
L 168.529058 228.449322 
L 176.401443 231.065077 
L 184.273828 233.909845 
L 192.146212 236.984976 
L 200.734269 240.585665 
L 210.037996 244.741132 
L 220.057395 249.462194 
L 235.086493 256.822616 
L 255.125291 266.615002 
L 265.144689 271.270295 
L 274.448417 275.348159 
L 283.036473 278.866393 
L 290.908858 281.858159 
L 298.781242 284.619342 
L 306.653627 287.15248 
L 314.526012 289.461047 
L 323.114068 291.736705 
L 331.702124 293.778651 
L 341.005852 295.751286 
L 351.025251 297.629561 
L 361.760321 299.398614 
L 373.211062 301.052656 
L 386.093146 302.679976 
L 400.406573 304.260415 
L 414.72 305.658302 
L 414.72 305.658302 
" style="fill:none;stroke:#000000;stroke-linecap:square;stroke-width:0.1;"/>
   </g>
   <g id="line2d_38">
    <path clip-path="url(#p6b7bef2d79)" d="M 57.6 207.865726 
L 74.776112 209.505228 
L 89.80521 211.157531 
L 102.687295 212.790452 
L 114.138036 214.455745 
L 124.873106 216.241025 
L 134.892505 218.139198 
L 144.196232 220.1338 
L 152.784289 222.197447 
L 161.372345 224.494941 
L 169.244729 226.822279 
L 177.117114 229.368404 
L 184.989499 232.135929 
L 192.861884 235.125564 
L 201.44994 238.62226 
L 210.753667 242.65351 
L 221.488737 247.561297 
L 238.66485 255.711353 
L 255.840962 263.788155 
L 265.860361 268.267007 
L 275.164088 272.185841 
L 283.752144 275.563093 
L 291.624529 278.432063 
L 299.496914 281.078506 
L 307.369299 283.504953 
L 315.241683 285.715091 
L 323.829739 287.893218 
L 332.417796 289.847273 
L 341.721523 291.734904 
L 351.740922 293.532511 
L 362.475992 295.226095 
L 373.926733 296.810391 
L 386.808818 298.370168 
L 401.837916 299.957221 
L 414.72 301.165106 
L 414.72 301.165106 
" style="fill:none;stroke:#000000;stroke-linecap:square;stroke-width:0.1;"/>
   </g>
   <g id="line2d_39">
    <path clip-path="url(#p6b7bef2d79)" d="M 57.6 206.033807 
L 75.491784 207.6527 
L 90.520882 209.224996 
L 103.402966 210.780255 
L 115.569379 212.473981 
L 126.304449 214.191376 
L 136.323848 216.018291 
L 145.627575 217.938225 
L 154.215631 219.924025 
L 162.803687 222.133899 
L 171.391743 224.584321 
L 179.9798 227.281643 
L 188.567856 230.228983 
L 197.155912 233.420654 
L 206.459639 237.124146 
L 216.479038 241.356884 
L 229.361122 247.056585 
L 257.987976 259.808893 
L 268.007375 263.991555 
L 277.311102 267.639039 
L 285.899158 270.771605 
L 294.487214 273.656173 
L 303.075271 276.291474 
L 311.663327 278.680752 
L 320.251383 280.832876 
L 328.839439 282.765543 
L 338.143166 284.633301 
L 348.162565 286.410901 
L 358.897635 288.083224 
L 370.348377 289.643838 
L 383.230461 291.17512 
L 398.259559 292.72599 
L 414.72 294.206358 
L 414.72 294.206358 
" style="fill:none;stroke:#000000;stroke-linecap:square;stroke-width:0.1;"/>
   </g>
   <g id="line2d_40">
    <path clip-path="url(#p6b7bef2d79)" d="M 57.6 203.588624 
L 76.207455 205.146372 
L 91.952224 206.681879 
L 105.54998 208.226417 
L 117.716393 209.829175 
L 128.451463 211.456278 
L 138.470862 213.18831 
L 147.774589 215.008609 
L 157.078317 217.056463 
L 165.666373 219.167469 
L 174.254429 221.503301 
L 182.842485 224.067843 
L 191.430541 226.863292 
L 200.734269 230.137644 
L 210.753667 233.91327 
L 222.204409 238.482994 
L 242.243206 246.78244 
L 257.987976 253.190196 
L 268.723046 257.314957 
L 278.026774 260.661744 
L 286.61483 263.532664 
L 295.202886 266.174088 
L 303.790942 268.585833 
L 312.378998 270.770973 
L 320.967054 272.73855 
L 330.270782 274.643796 
L 340.29018 276.45716 
L 351.025251 278.159184 
L 362.475992 279.740997 
L 375.358076 281.282467 
L 389.671503 282.760369 
L 406.131944 284.228009 
L 414.72 284.918057 
L 414.72 284.918057 
" style="fill:none;stroke:#000000;stroke-linecap:square;stroke-width:0.1;"/>
   </g>
   <g id="line2d_41">
    <path clip-path="url(#p6b7bef2d79)" d="M 57.6 200.577797 
L 76.923126 202.032341 
L 93.383567 203.486827 
L 107.696994 204.973746 
L 119.863407 206.448096 
L 131.314148 208.053794 
L 142.049218 209.787592 
L 152.068617 211.63533 
L 161.372345 213.571715 
L 170.676072 215.739229 
L 179.9798 218.146043 
L 189.283527 220.795412 
L 198.587255 223.67997 
L 208.606653 227.017695 
L 220.057395 231.074578 
L 237.949178 237.697009 
L 257.272305 244.786116 
L 268.723046 248.737809 
L 278.742445 251.959836 
L 288.046172 254.720365 
L 297.3499 257.238759 
L 306.653627 259.51629 
L 315.957355 261.557476 
L 325.261082 263.37678 
L 335.280481 265.110172 
L 346.015551 266.736203 
L 357.466293 268.24433 
L 370.348377 269.708681 
L 384.661804 271.105119 
L 401.122244 272.481907 
L 414.72 273.481088 
L 414.72 273.481088 
" style="fill:none;stroke:#000000;stroke-linecap:square;stroke-width:0.1;"/>
   </g>
   <g id="line2d_42">
    <path clip-path="url(#p6b7bef2d79)" d="M 57.6 197.059934 
L 78.354469 198.419695 
L 95.530581 199.756299 
L 110.559679 201.145695 
L 123.441764 202.550211 
L 135.608176 204.101531 
L 146.343246 205.686138 
L 157.078317 207.50212 
L 167.097715 209.428499 
L 177.117114 211.592926 
L 187.136513 213.99974 
L 197.155912 216.646119 
L 207.890982 219.716858 
L 220.057395 223.438314 
L 239.380521 229.628101 
L 257.987976 235.518134 
L 269.438717 238.922053 
L 280.173788 241.883715 
L 290.193186 244.41221 
L 300.212585 246.697383 
L 310.231984 248.741969 
L 320.251383 250.553806 
L 330.986453 252.258556 
L 342.437194 253.836491 
L 354.603607 255.279525 
L 368.201363 256.657007 
L 383.230461 257.950244 
L 401.122244 259.25384 
L 414.72 260.118088 
L 414.72 260.118088 
" style="fill:none;stroke:#000000;stroke-linecap:square;stroke-width:0.1;"/>
   </g>
   <g id="line2d_43">
    <path clip-path="url(#p6b7bef2d79)" d="M 57.6 193.103509 
L 80.501483 194.352298 
L 99.108938 195.581805 
L 114.853707 196.83772 
L 128.451463 198.132502 
L 141.333547 199.58297 
L 152.784289 201.089027 
L 163.519359 202.710843 
L 174.254429 204.554544 
L 184.989499 206.626668 
L 195.724569 208.927485 
L 207.175311 211.607682 
L 220.057395 214.85006 
L 242.243206 220.712933 
L 260.13499 225.348935 
L 272.301403 228.285418 
L 283.752144 230.823931 
L 294.487214 232.97298 
L 305.222285 234.892418 
L 315.957355 236.586711 
L 327.408096 238.162383 
L 339.574509 239.603028 
L 352.456593 240.903189 
L 366.77002 242.124693 
L 383.230461 243.301976 
L 402.553587 244.455371 
L 414.72 245.089164 
L 414.72 245.089164 
" style="fill:none;stroke:#000000;stroke-linecap:square;stroke-width:0.1;"/>
   </g>
   <g id="line2d_44">
    <path clip-path="url(#p6b7bef2d79)" d="M 57.6 188.785532 
L 83.364168 189.877946 
L 104.118637 190.9756 
L 121.294749 192.101525 
L 136.323848 193.303876 
L 149.921603 194.609887 
L 162.803687 196.071412 
L 174.9701 197.675256 
L 187.136513 199.504534 
L 199.302926 201.556133 
L 212.900681 204.07474 
L 230.792465 207.641042 
L 262.282004 213.945263 
L 275.87976 216.417608 
L 288.046172 218.418752 
L 300.212585 220.194621 
L 312.378998 221.746091 
L 325.261082 223.156568 
L 338.858838 224.415612 
L 353.887936 225.575179 
L 371.064048 226.663248 
L 391.102846 227.695203 
L 414.72 228.68684 
L 414.72 228.68684 
" style="fill:none;stroke:#000000;stroke-linecap:square;stroke-width:0.1;"/>
   </g>
   <g id="line2d_45">
    <path clip-path="url(#p6b7bef2d79)" d="M 57.6 184.190047 
L 88.373868 185.095394 
L 111.991022 186.004431 
L 131.314148 186.962945 
L 148.490261 188.036548 
L 164.23503 189.247575 
L 179.264128 190.63438 
L 194.293226 192.254761 
L 210.037996 194.180121 
L 230.076794 196.869337 
L 265.860361 201.69574 
L 282.320802 203.652208 
L 296.634228 205.137318 
L 311.663327 206.469056 
L 327.408096 207.62741 
L 343.868537 208.614544 
L 363.191663 209.539624 
L 386.093146 210.396763 
L 414.72 211.230373 
L 414.72 211.230373 
" style="fill:none;stroke:#000000;stroke-linecap:square;stroke-width:0.1;"/>
   </g>
   <g id="line2d_46">
    <path clip-path="url(#p6b7bef2d79)" d="M 57.6 179.406501 
L 99.108938 180.057377 
L 128.451463 180.727269 
L 152.068617 181.477311 
L 173.538758 182.379758 
L 194.293226 183.478486 
L 217.194709 184.92416 
L 284.467816 189.352563 
L 305.222285 190.381555 
L 326.692425 191.216201 
L 350.309579 191.907031 
L 378.936433 192.514743 
L 414.72 193.059535 
L 414.72 193.059535 
" style="fill:none;stroke:#000000;stroke-linecap:square;stroke-width:0.1;"/>
   </g>
   <g id="line2d_47">
    <path clip-path="url(#p6b7bef2d79)" d="M 57.6 174.528 
L 414.72 174.528 
L 414.72 174.528 
" style="fill:none;stroke:#000000;stroke-linecap:square;stroke-width:0.1;"/>
   </g>
   <g id="line2d_48">
    <path clip-path="url(#p6b7bef2d79)" d="M 57.6 169.649499 
L 99.108938 168.998623 
L 128.451463 168.328731 
L 152.068617 167.578689 
L 173.538758 166.676242 
L 194.293226 165.577514 
L 217.194709 164.13184 
L 284.467816 159.703437 
L 305.222285 158.674445 
L 326.692425 157.839799 
L 350.309579 157.148969 
L 378.936433 156.541257 
L 414.72 155.996465 
L 414.72 155.996465 
" style="fill:none;stroke:#000000;stroke-linecap:square;stroke-width:0.1;"/>
   </g>
   <g id="line2d_49">
    <path clip-path="url(#p6b7bef2d79)" d="M 57.6 164.865953 
L 88.373868 163.960606 
L 111.991022 163.051569 
L 131.314148 162.093055 
L 148.490261 161.019452 
L 164.23503 159.808425 
L 179.264128 158.42162 
L 194.293226 156.801239 
L 210.037996 154.875879 
L 230.076794 152.186663 
L 265.860361 147.36026 
L 282.320802 145.403792 
L 296.634228 143.918682 
L 311.663327 142.586944 
L 327.408096 141.42859 
L 343.868537 140.441456 
L 363.191663 139.516376 
L 386.093146 138.659237 
L 414.72 137.825627 
L 414.72 137.825627 
" style="fill:none;stroke:#000000;stroke-linecap:square;stroke-width:0.1;"/>
   </g>
   <g id="line2d_50">
    <path clip-path="url(#p6b7bef2d79)" d="M 57.6 160.270468 
L 83.364168 159.178054 
L 104.118637 158.0804 
L 121.294749 156.954475 
L 136.323848 155.752124 
L 149.921603 154.446113 
L 162.803687 152.984588 
L 174.9701 151.380744 
L 187.136513 149.551466 
L 199.302926 147.499867 
L 212.900681 144.98126 
L 230.792465 141.414958 
L 262.282004 135.110737 
L 275.87976 132.638392 
L 288.046172 130.637248 
L 300.212585 128.861379 
L 312.378998 127.309909 
L 325.261082 125.899432 
L 338.858838 124.640388 
L 353.887936 123.480821 
L 371.064048 122.392752 
L 391.102846 121.360797 
L 414.72 120.36916 
L 414.72 120.36916 
" style="fill:none;stroke:#000000;stroke-linecap:square;stroke-width:0.1;"/>
   </g>
   <g id="line2d_51">
    <path clip-path="url(#p6b7bef2d79)" d="M 57.6 155.952491 
L 80.501483 154.703702 
L 99.108938 153.474195 
L 114.853707 152.21828 
L 128.451463 150.923498 
L 141.333547 149.47303 
L 152.784289 147.966973 
L 163.519359 146.345157 
L 174.254429 144.501456 
L 184.989499 142.429332 
L 195.724569 140.128515 
L 207.175311 137.448318 
L 220.057395 134.20594 
L 242.243206 128.343067 
L 260.13499 123.707065 
L 272.301403 120.770582 
L 283.752144 118.232069 
L 294.487214 116.08302 
L 305.222285 114.163582 
L 315.957355 112.469289 
L 327.408096 110.893617 
L 339.574509 109.452972 
L 352.456593 108.152811 
L 366.77002 106.931307 
L 383.230461 105.754024 
L 402.553587 104.600629 
L 414.72 103.966836 
L 414.72 103.966836 
" style="fill:none;stroke:#000000;stroke-linecap:square;stroke-width:0.1;"/>
   </g>
   <g id="line2d_52">
    <path clip-path="url(#p6b7bef2d79)" d="M 57.6 151.996066 
L 78.354469 150.636305 
L 95.530581 149.299701 
L 110.559679 147.910305 
L 123.441764 146.505789 
L 135.608176 144.954469 
L 146.343246 143.369862 
L 157.078317 141.55388 
L 167.097715 139.627501 
L 177.117114 137.463074 
L 187.136513 135.05626 
L 197.155912 132.409881 
L 207.890982 129.339142 
L 220.057395 125.617686 
L 239.380521 119.427899 
L 257.987976 113.537866 
L 269.438717 110.133947 
L 280.173788 107.172285 
L 290.193186 104.64379 
L 300.212585 102.358617 
L 310.231984 100.314031 
L 320.251383 98.502194 
L 330.986453 96.797444 
L 342.437194 95.219509 
L 354.603607 93.776475 
L 368.201363 92.398993 
L 383.230461 91.105756 
L 401.122244 89.80216 
L 414.72 88.937912 
L 414.72 88.937912 
" style="fill:none;stroke:#000000;stroke-linecap:square;stroke-width:0.1;"/>
   </g>
   <g id="line2d_53">
    <path clip-path="url(#p6b7bef2d79)" d="M 57.6 148.478203 
L 76.923126 147.023659 
L 93.383567 145.569173 
L 107.696994 144.082254 
L 119.863407 142.607904 
L 131.314148 141.002206 
L 142.049218 139.268408 
L 152.068617 137.42067 
L 161.372345 135.484285 
L 170.676072 133.316771 
L 179.9798 130.909957 
L 189.283527 128.260588 
L 198.587255 125.37603 
L 208.606653 122.038305 
L 220.057395 117.981422 
L 237.949178 111.358991 
L 257.272305 104.269884 
L 268.723046 100.318191 
L 278.742445 97.096164 
L 288.046172 94.335635 
L 297.3499 91.817241 
L 306.653627 89.53971 
L 315.957355 87.498524 
L 325.261082 85.67922 
L 335.280481 83.945828 
L 346.015551 82.319797 
L 357.466293 80.81167 
L 370.348377 79.347319 
L 384.661804 77.950881 
L 401.122244 76.574093 
L 414.72 75.574912 
L 414.72 75.574912 
" style="fill:none;stroke:#000000;stroke-linecap:square;stroke-width:0.1;"/>
   </g>
   <g id="line2d_54">
    <path clip-path="url(#p6b7bef2d79)" d="M 57.6 145.467376 
L 76.207455 143.909628 
L 91.952224 142.374121 
L 105.54998 140.829583 
L 117.716393 139.226825 
L 128.451463 137.599722 
L 138.470862 135.86769 
L 147.774589 134.047391 
L 157.078317 131.999537 
L 165.666373 129.888531 
L 174.254429 127.552699 
L 182.842485 124.988157 
L 191.430541 122.192708 
L 200.734269 118.918356 
L 210.753667 115.14273 
L 222.204409 110.573006 
L 242.243206 102.27356 
L 257.987976 95.865804 
L 268.723046 91.741043 
L 278.026774 88.394256 
L 286.61483 85.523336 
L 295.202886 82.881912 
L 303.790942 80.470167 
L 312.378998 78.285027 
L 320.967054 76.31745 
L 330.270782 74.412204 
L 340.29018 72.59884 
L 351.025251 70.896816 
L 362.475992 69.315003 
L 375.358076 67.773533 
L 389.671503 66.295631 
L 406.131944 64.827991 
L 414.72 64.137943 
L 414.72 64.137943 
" style="fill:none;stroke:#000000;stroke-linecap:square;stroke-width:0.1;"/>
   </g>
   <g id="line2d_55">
    <path clip-path="url(#p6b7bef2d79)" d="M 57.6 143.022193 
L 75.491784 141.4033 
L 90.520882 139.831004 
L 103.402966 138.275745 
L 115.569379 136.582019 
L 126.304449 134.864624 
L 136.323848 133.037709 
L 145.627575 131.117775 
L 154.215631 129.131975 
L 162.803687 126.922101 
L 171.391743 124.471679 
L 179.9798 121.774357 
L 188.567856 118.827017 
L 197.155912 115.635346 
L 206.459639 111.931854 
L 216.479038 107.699116 
L 229.361122 101.999415 
L 257.987976 89.247107 
L 268.007375 85.064445 
L 277.311102 81.416961 
L 285.899158 78.284395 
L 294.487214 75.399827 
L 303.075271 72.764526 
L 311.663327 70.375248 
L 320.251383 68.223124 
L 328.839439 66.290457 
L 338.143166 64.422699 
L 348.162565 62.645099 
L 358.897635 60.972776 
L 370.348377 59.412162 
L 383.230461 57.88088 
L 398.259559 56.33001 
L 414.72 54.849642 
L 414.72 54.849642 
" style="fill:none;stroke:#000000;stroke-linecap:square;stroke-width:0.1;"/>
   </g>
   <g id="line2d_56">
    <path clip-path="url(#p6b7bef2d79)" d="M 57.6 141.190274 
L 74.776112 139.550772 
L 89.80521 137.898469 
L 102.687295 136.265548 
L 114.138036 134.600255 
L 124.873106 132.814975 
L 134.892505 130.916802 
L 144.196232 128.9222 
L 152.784289 126.858553 
L 161.372345 124.561059 
L 169.244729 122.233721 
L 177.117114 119.687596 
L 184.989499 116.920071 
L 192.861884 113.930436 
L 201.44994 110.43374 
L 210.753667 106.40249 
L 221.488737 101.494703 
L 238.66485 93.344647 
L 255.840962 85.267845 
L 265.860361 80.788993 
L 275.164088 76.870159 
L 283.752144 73.492907 
L 291.624529 70.623937 
L 299.496914 67.977494 
L 307.369299 65.551047 
L 315.241683 63.340909 
L 323.829739 61.162782 
L 332.417796 59.208727 
L 341.721523 57.321096 
L 351.740922 55.523489 
L 362.475992 53.829905 
L 373.926733 52.245609 
L 386.808818 50.685832 
L 401.837916 49.098779 
L 414.72 47.890894 
L 414.72 47.890894 
" style="fill:none;stroke:#000000;stroke-linecap:square;stroke-width:0.1;"/>
   </g>
   <g id="line2d_57">
    <path clip-path="url(#p6b7bef2d79)" d="M 57.6 140.007422 
L 74.776112 138.309749 
L 89.089539 136.686127 
L 101.971623 135.008318 
L 113.422365 133.298371 
L 124.157435 131.466024 
L 134.176834 129.518326 
L 143.480561 127.471843 
L 152.068617 125.354241 
L 160.656673 122.996182 
L 168.529058 120.606678 
L 176.401443 117.990923 
L 184.273828 115.146155 
L 192.146212 112.071024 
L 200.734269 108.470335 
L 210.037996 104.314868 
L 220.057395 99.593806 
L 235.086493 92.233384 
L 255.125291 82.440998 
L 265.144689 77.785705 
L 274.448417 73.707841 
L 283.036473 70.189607 
L 290.908858 67.197841 
L 298.781242 64.436658 
L 306.653627 61.90352 
L 314.526012 59.594953 
L 323.114068 57.319295 
L 331.702124 55.277349 
L 341.005852 53.304714 
L 351.025251 51.426439 
L 361.760321 49.657386 
L 373.211062 48.003344 
L 386.093146 46.376024 
L 400.406573 44.795585 
L 414.72 43.397698 
L 414.72 43.397698 
" style="fill:none;stroke:#000000;stroke-linecap:square;stroke-width:0.1;"/>
   </g>
   <g id="line2d_58">
    <path clip-path="url(#p6b7bef2d79)" d="M 57.6 139.500475 
L 74.776112 137.77787 
L 89.089539 136.130405 
L 101.971623 134.427956 
L 113.422365 132.692897 
L 124.157435 130.833642 
L 133.461162 129.007035 
L 142.76489 126.949493 
L 151.352946 124.8202 
L 159.941002 122.448628 
L 167.813387 120.044682 
L 175.685772 117.411504 
L 183.558156 114.546196 
L 191.430541 111.446914 
L 200.018597 107.813934 
L 209.322325 103.616771 
L 219.341723 98.842363 
L 233.65515 91.742793 
L 255.125291 81.088665 
L 265.144689 76.365008 
L 274.448417 72.227259 
L 283.036473 68.657357 
L 290.908858 65.621656 
L 298.781242 62.819924 
L 306.653627 60.249586 
L 314.526012 57.907117 
L 323.114068 55.59804 
L 331.702124 53.526107 
L 341.005852 51.524504 
L 350.309579 49.746955 
L 360.328978 48.049634 
L 371.779719 46.343303 
L 383.946132 44.754125 
L 398.259559 43.117844 
L 414.72 41.472 
L 414.72 41.472 
" style="fill:none;stroke:#000000;stroke-linecap:square;stroke-width:0.1;"/>
   </g>
   <g id="patch_3">
    <path d="M 57.6 307.584 
L 57.6 41.472 
" style="fill:none;stroke:#000000;stroke-linecap:square;stroke-linejoin:miter;stroke-width:0.8;"/>
   </g>
   <g id="patch_4">
    <path d="M 414.72 307.584 
L 414.72 41.472 
" style="fill:none;stroke:#000000;stroke-linecap:square;stroke-linejoin:miter;stroke-width:0.8;"/>
   </g>
   <g id="patch_5">
    <path d="M 57.6 307.584 
L 414.72 307.584 
" style="fill:none;stroke:#000000;stroke-linecap:square;stroke-linejoin:miter;stroke-width:0.8;"/>
   </g>
   <g id="patch_6">
    <path d="M 57.6 41.472 
L 414.72 41.472 
" style="fill:none;stroke:#000000;stroke-linecap:square;stroke-linejoin:miter;stroke-width:0.8;"/>
   </g>
   <g id="text_15">
    <g clip-path="url(#p6b7bef2d79)">
     <!-- 0.021 -->
     <defs>
      <path d="M 19.1875 8.296875 
L 53.609375 8.296875 
L 53.609375 0 
L 7.328125 0 
L 7.328125 8.296875 
Q 12.9375 14.109375 22.625 23.890625 
Q 32.328125 33.6875 34.8125 36.53125 
Q 39.546875 41.84375 41.421875 45.53125 
Q 43.3125 49.21875 43.3125 52.78125 
Q 43.3125 58.59375 39.234375 62.25 
Q 35.15625 65.921875 28.609375 65.921875 
Q 23.96875 65.921875 18.8125 64.3125 
Q 13.671875 62.703125 7.8125 59.421875 
L 7.8125 69.390625 
Q 13.765625 71.78125 18.9375 73 
Q 24.125 74.21875 28.421875 74.21875 
Q 39.75 74.21875 46.484375 68.546875 
Q 53.21875 62.890625 53.21875 53.421875 
Q 53.21875 48.921875 51.53125 44.890625 
Q 49.859375 40.875 45.40625 35.40625 
Q 44.1875 33.984375 37.640625 27.21875 
Q 31.109375 20.453125 19.1875 8.296875 
z
" id="DejaVuSans-32"/>
     </defs>
     <g transform="translate(251.181502 134.246505)rotate(-285.862882)scale(0.08 -0.08)">
      <use xlink:href="#DejaVuSans-30"/>
      <use x="63.623047" xlink:href="#DejaVuSans-2e"/>
      <use x="95.410156" xlink:href="#DejaVuSans-30"/>
      <use x="159.033203" xlink:href="#DejaVuSans-32"/>
      <use x="222.65625" xlink:href="#DejaVuSans-31"/>
     </g>
    </g>
   </g>
   <g id="text_16">
    <g clip-path="url(#p6b7bef2d79)">
     <!-- 0.039 -->
     <defs>
      <path d="M 40.578125 39.3125 
Q 47.65625 37.796875 51.625 33 
Q 55.609375 28.21875 55.609375 21.1875 
Q 55.609375 10.40625 48.1875 4.484375 
Q 40.765625 -1.421875 27.09375 -1.421875 
Q 22.515625 -1.421875 17.65625 -0.515625 
Q 12.796875 0.390625 7.625 2.203125 
L 7.625 11.71875 
Q 11.71875 9.328125 16.59375 8.109375 
Q 21.484375 6.890625 26.8125 6.890625 
Q 36.078125 6.890625 40.9375 10.546875 
Q 45.796875 14.203125 45.796875 21.1875 
Q 45.796875 27.640625 41.28125 31.265625 
Q 36.765625 34.90625 28.71875 34.90625 
L 20.21875 34.90625 
L 20.21875 43.015625 
L 29.109375 43.015625 
Q 36.375 43.015625 40.234375 45.921875 
Q 44.09375 48.828125 44.09375 54.296875 
Q 44.09375 59.90625 40.109375 62.90625 
Q 36.140625 65.921875 28.71875 65.921875 
Q 24.65625 65.921875 20.015625 65.03125 
Q 15.375 64.15625 9.8125 62.3125 
L 9.8125 71.09375 
Q 15.4375 72.65625 20.34375 73.4375 
Q 25.25 74.21875 29.59375 74.21875 
Q 40.828125 74.21875 47.359375 69.109375 
Q 53.90625 64.015625 53.90625 55.328125 
Q 53.90625 49.265625 50.4375 45.09375 
Q 46.96875 40.921875 40.578125 39.3125 
z
" id="DejaVuSans-33"/>
      <path d="M 10.984375 1.515625 
L 10.984375 10.5 
Q 14.703125 8.734375 18.5 7.8125 
Q 22.3125 6.890625 25.984375 6.890625 
Q 35.75 6.890625 40.890625 13.453125 
Q 46.046875 20.015625 46.78125 33.40625 
Q 43.953125 29.203125 39.59375 26.953125 
Q 35.25 24.703125 29.984375 24.703125 
Q 19.046875 24.703125 12.671875 31.3125 
Q 6.296875 37.9375 6.296875 49.421875 
Q 6.296875 60.640625 12.9375 67.421875 
Q 19.578125 74.21875 30.609375 74.21875 
Q 43.265625 74.21875 49.921875 64.515625 
Q 56.59375 54.828125 56.59375 36.375 
Q 56.59375 19.140625 48.40625 8.859375 
Q 40.234375 -1.421875 26.421875 -1.421875 
Q 22.703125 -1.421875 18.890625 -0.6875 
Q 15.09375 0.046875 10.984375 1.515625 
z
M 30.609375 32.421875 
Q 37.25 32.421875 41.125 36.953125 
Q 45.015625 41.5 45.015625 49.421875 
Q 45.015625 57.28125 41.125 61.84375 
Q 37.25 66.40625 30.609375 66.40625 
Q 23.96875 66.40625 20.09375 61.84375 
Q 16.21875 57.28125 16.21875 49.421875 
Q 16.21875 41.5 20.09375 36.953125 
Q 23.96875 32.421875 30.609375 32.421875 
z
" id="DejaVuSans-39"/>
     </defs>
     <g transform="translate(382.568197 53.661625)rotate(-328.490089)scale(0.08 -0.08)">
      <use xlink:href="#DejaVuSans-30"/>
      <use x="63.623047" xlink:href="#DejaVuSans-2e"/>
      <use x="95.410156" xlink:href="#DejaVuSans-30"/>
      <use x="159.033203" xlink:href="#DejaVuSans-33"/>
      <use x="222.65625" xlink:href="#DejaVuSans-39"/>
     </g>
    </g>
   </g>
   <g id="text_17">
    <g clip-path="url(#p6b7bef2d79)">
     <!-- 0.039 -->
     <g transform="translate(392.272937 188.067792)rotate(-36.642367)scale(0.08 -0.08)">
      <use xlink:href="#DejaVuSans-30"/>
      <use x="63.623047" xlink:href="#DejaVuSans-2e"/>
      <use x="95.410156" xlink:href="#DejaVuSans-30"/>
      <use x="159.033203" xlink:href="#DejaVuSans-33"/>
      <use x="222.65625" xlink:href="#DejaVuSans-39"/>
     </g>
    </g>
   </g>
   <g id="text_18">
    <g clip-path="url(#p6b7bef2d79)">
     <!-- 0.057 -->
     <defs>
      <path d="M 8.203125 72.90625 
L 55.078125 72.90625 
L 55.078125 68.703125 
L 28.609375 0 
L 18.3125 0 
L 43.21875 64.59375 
L 8.203125 64.59375 
z
" id="DejaVuSans-37"/>
     </defs>
     <g transform="translate(346.095881 58.776454)rotate(-354.066361)scale(0.08 -0.08)">
      <use xlink:href="#DejaVuSans-30"/>
      <use x="63.623047" xlink:href="#DejaVuSans-2e"/>
      <use x="95.410156" xlink:href="#DejaVuSans-30"/>
      <use x="159.033203" xlink:href="#DejaVuSans-35"/>
      <use x="222.65625" xlink:href="#DejaVuSans-37"/>
     </g>
    </g>
   </g>
   <g id="text_19">
    <g clip-path="url(#p6b7bef2d79)">
     <!-- 0.075 -->
     <g transform="translate(296.065318 106.824918)rotate(-60.356595)scale(0.08 -0.08)">
      <use xlink:href="#DejaVuSans-30"/>
      <use x="63.623047" xlink:href="#DejaVuSans-2e"/>
      <use x="95.410156" xlink:href="#DejaVuSans-30"/>
      <use x="159.033203" xlink:href="#DejaVuSans-37"/>
      <use x="222.65625" xlink:href="#DejaVuSans-35"/>
     </g>
    </g>
   </g>
   <g id="text_20">
    <g clip-path="url(#p6b7bef2d79)">
     <!-- 0.093 -->
     <g transform="translate(299.536974 124.53554)rotate(-289.256423)scale(0.08 -0.08)">
      <use xlink:href="#DejaVuSans-30"/>
      <use x="63.623047" xlink:href="#DejaVuSans-2e"/>
      <use x="95.410156" xlink:href="#DejaVuSans-30"/>
      <use x="159.033203" xlink:href="#DejaVuSans-39"/>
      <use x="222.65625" xlink:href="#DejaVuSans-33"/>
     </g>
    </g>
   </g>
   <g id="text_21">
    <g clip-path="url(#p6b7bef2d79)">
     <!-- 0.111 -->
     <g transform="translate(338.952404 157.810036)rotate(-0.413254)scale(0.08 -0.08)">
      <use xlink:href="#DejaVuSans-30"/>
      <use x="63.623047" xlink:href="#DejaVuSans-2e"/>
      <use x="95.410156" xlink:href="#DejaVuSans-31"/>
      <use x="159.033203" xlink:href="#DejaVuSans-31"/>
      <use x="222.65625" xlink:href="#DejaVuSans-31"/>
     </g>
    </g>
   </g>
   <g id="text_22">
    <g clip-path="url(#p6b7bef2d79)">
     <!-- 0.129 -->
     <g transform="translate(344.769886 97.428064)rotate(-345.9697)scale(0.08 -0.08)">
      <use xlink:href="#DejaVuSans-30"/>
      <use x="63.623047" xlink:href="#DejaVuSans-2e"/>
      <use x="95.410156" xlink:href="#DejaVuSans-31"/>
      <use x="159.033203" xlink:href="#DejaVuSans-32"/>
      <use x="222.65625" xlink:href="#DejaVuSans-39"/>
     </g>
    </g>
   </g>
  </g>
 </g>
 <defs>
  <clipPath id="p6b7bef2d79">
   <rect height="266.112" width="357.12" x="57.6" y="41.472"/>
  </clipPath>
 </defs>
</svg>
