<?xml version="1.0" encoding="utf-8" standalone="no"?>
<!DOCTYPE svg PUBLIC "-//W3C//DTD SVG 1.1//EN"
  "http://www.w3.org/Graphics/SVG/1.1/DTD/svg11.dtd">
<!-- Created with matplotlib (http://matplotlib.org/) -->
<svg height="345pt" version="1.1" viewBox="0 0 460 345" width="460pt" xmlns="http://www.w3.org/2000/svg" xmlns:xlink="http://www.w3.org/1999/xlink">
 <defs>
  <style type="text/css">
*{stroke-linecap:butt;stroke-linejoin:round;}
  </style>
 </defs>
 <g id="figure_1">
  <g id="patch_1">
   <path d="M 0 345.6 
L 460.8 345.6 
L 460.8 0 
L 0 0 
z
" style="fill:#ffffff;"/>
  </g>
  <g id="axes_1">
   <g id="patch_2">
    <path d="M 57.6 307.584 
L 414.72 307.584 
L 414.72 41.472 
L 57.6 41.472 
z
" style="fill:#ffffff;"/>
   </g>
   <g id="matplotlib.axis_1">
    <g id="xtick_1">
     <g id="line2d_1">
      <defs>
       <path d="M 0 0 
L 0 3.5 
" id="m4f2883b495" style="stroke:#000000;stroke-width:0.8;"/>
      </defs>
      <g>
       <use style="stroke:#000000;stroke-width:0.8;" x="57.6" xlink:href="#m4f2883b495" y="307.584"/>
      </g>
     </g>
     <g id="text_1">
      <!-- −1.00 -->
      <defs>
       <path d="M 10.59375 35.5 
L 73.1875 35.5 
L 73.1875 27.203125 
L 10.59375 27.203125 
z
" id="DejaVuSans-2212"/>
       <path d="M 12.40625 8.296875 
L 28.515625 8.296875 
L 28.515625 63.921875 
L 10.984375 60.40625 
L 10.984375 69.390625 
L 28.421875 72.90625 
L 38.28125 72.90625 
L 38.28125 8.296875 
L 54.390625 8.296875 
L 54.390625 0 
L 12.40625 0 
z
" id="DejaVuSans-31"/>
       <path d="M 10.6875 12.40625 
L 21 12.40625 
L 21 0 
L 10.6875 0 
z
" id="DejaVuSans-2e"/>
       <path d="M 31.78125 66.40625 
Q 24.171875 66.40625 20.328125 58.90625 
Q 16.5 51.421875 16.5 36.375 
Q 16.5 21.390625 20.328125 13.890625 
Q 24.171875 6.390625 31.78125 6.390625 
Q 39.453125 6.390625 43.28125 13.890625 
Q 47.125 21.390625 47.125 36.375 
Q 47.125 51.421875 43.28125 58.90625 
Q 39.453125 66.40625 31.78125 66.40625 
z
M 31.78125 74.21875 
Q 44.046875 74.21875 50.515625 64.515625 
Q 56.984375 54.828125 56.984375 36.375 
Q 56.984375 17.96875 50.515625 8.265625 
Q 44.046875 -1.421875 31.78125 -1.421875 
Q 19.53125 -1.421875 13.0625 8.265625 
Q 6.59375 17.96875 6.59375 36.375 
Q 6.59375 54.828125 13.0625 64.515625 
Q 19.53125 74.21875 31.78125 74.21875 
z
" id="DejaVuSans-30"/>
      </defs>
      <g transform="translate(42.277344 322.182437)scale(0.1 -0.1)">
       <use xlink:href="#DejaVuSans-2212"/>
       <use x="83.789062" xlink:href="#DejaVuSans-31"/>
       <use x="147.412109" xlink:href="#DejaVuSans-2e"/>
       <use x="179.199219" xlink:href="#DejaVuSans-30"/>
       <use x="242.822266" xlink:href="#DejaVuSans-30"/>
      </g>
     </g>
    </g>
    <g id="xtick_2">
     <g id="line2d_2">
      <g>
       <use style="stroke:#000000;stroke-width:0.8;" x="102.24" xlink:href="#m4f2883b495" y="307.584"/>
      </g>
     </g>
     <g id="text_2">
      <!-- −0.75 -->
      <defs>
       <path d="M 8.203125 72.90625 
L 55.078125 72.90625 
L 55.078125 68.703125 
L 28.609375 0 
L 18.3125 0 
L 43.21875 64.59375 
L 8.203125 64.59375 
z
" id="DejaVuSans-37"/>
       <path d="M 10.796875 72.90625 
L 49.515625 72.90625 
L 49.515625 64.59375 
L 19.828125 64.59375 
L 19.828125 46.734375 
Q 21.96875 47.46875 24.109375 47.828125 
Q 26.265625 48.1875 28.421875 48.1875 
Q 40.625 48.1875 47.75 41.5 
Q 54.890625 34.8125 54.890625 23.390625 
Q 54.890625 11.625 47.5625 5.09375 
Q 40.234375 -1.421875 26.90625 -1.421875 
Q 22.3125 -1.421875 17.546875 -0.640625 
Q 12.796875 0.140625 7.71875 1.703125 
L 7.71875 11.625 
Q 12.109375 9.234375 16.796875 8.0625 
Q 21.484375 6.890625 26.703125 6.890625 
Q 35.15625 6.890625 40.078125 11.328125 
Q 45.015625 15.765625 45.015625 23.390625 
Q 45.015625 31 40.078125 35.4375 
Q 35.15625 39.890625 26.703125 39.890625 
Q 22.75 39.890625 18.8125 39.015625 
Q 14.890625 38.140625 10.796875 36.28125 
z
" id="DejaVuSans-35"/>
      </defs>
      <g transform="translate(86.917344 322.182437)scale(0.1 -0.1)">
       <use xlink:href="#DejaVuSans-2212"/>
       <use x="83.789062" xlink:href="#DejaVuSans-30"/>
       <use x="147.412109" xlink:href="#DejaVuSans-2e"/>
       <use x="179.199219" xlink:href="#DejaVuSans-37"/>
       <use x="242.822266" xlink:href="#DejaVuSans-35"/>
      </g>
     </g>
    </g>
    <g id="xtick_3">
     <g id="line2d_3">
      <g>
       <use style="stroke:#000000;stroke-width:0.8;" x="146.88" xlink:href="#m4f2883b495" y="307.584"/>
      </g>
     </g>
     <g id="text_3">
      <!-- −0.50 -->
      <g transform="translate(131.557344 322.182437)scale(0.1 -0.1)">
       <use xlink:href="#DejaVuSans-2212"/>
       <use x="83.789062" xlink:href="#DejaVuSans-30"/>
       <use x="147.412109" xlink:href="#DejaVuSans-2e"/>
       <use x="179.199219" xlink:href="#DejaVuSans-35"/>
       <use x="242.822266" xlink:href="#DejaVuSans-30"/>
      </g>
     </g>
    </g>
    <g id="xtick_4">
     <g id="line2d_4">
      <g>
       <use style="stroke:#000000;stroke-width:0.8;" x="191.52" xlink:href="#m4f2883b495" y="307.584"/>
      </g>
     </g>
     <g id="text_4">
      <!-- −0.25 -->
      <defs>
       <path d="M 19.1875 8.296875 
L 53.609375 8.296875 
L 53.609375 0 
L 7.328125 0 
L 7.328125 8.296875 
Q 12.9375 14.109375 22.625 23.890625 
Q 32.328125 33.6875 34.8125 36.53125 
Q 39.546875 41.84375 41.421875 45.53125 
Q 43.3125 49.21875 43.3125 52.78125 
Q 43.3125 58.59375 39.234375 62.25 
Q 35.15625 65.921875 28.609375 65.921875 
Q 23.96875 65.921875 18.8125 64.3125 
Q 13.671875 62.703125 7.8125 59.421875 
L 7.8125 69.390625 
Q 13.765625 71.78125 18.9375 73 
Q 24.125 74.21875 28.421875 74.21875 
Q 39.75 74.21875 46.484375 68.546875 
Q 53.21875 62.890625 53.21875 53.421875 
Q 53.21875 48.921875 51.53125 44.890625 
Q 49.859375 40.875 45.40625 35.40625 
Q 44.1875 33.984375 37.640625 27.21875 
Q 31.109375 20.453125 19.1875 8.296875 
z
" id="DejaVuSans-32"/>
      </defs>
      <g transform="translate(176.197344 322.182437)scale(0.1 -0.1)">
       <use xlink:href="#DejaVuSans-2212"/>
       <use x="83.789062" xlink:href="#DejaVuSans-30"/>
       <use x="147.412109" xlink:href="#DejaVuSans-2e"/>
       <use x="179.199219" xlink:href="#DejaVuSans-32"/>
       <use x="242.822266" xlink:href="#DejaVuSans-35"/>
      </g>
     </g>
    </g>
    <g id="xtick_5">
     <g id="line2d_5">
      <g>
       <use style="stroke:#000000;stroke-width:0.8;" x="236.16" xlink:href="#m4f2883b495" y="307.584"/>
      </g>
     </g>
     <g id="text_5">
      <!-- 0.00 -->
      <g transform="translate(225.027187 322.182437)scale(0.1 -0.1)">
       <use xlink:href="#DejaVuSans-30"/>
       <use x="63.623047" xlink:href="#DejaVuSans-2e"/>
       <use x="95.410156" xlink:href="#DejaVuSans-30"/>
       <use x="159.033203" xlink:href="#DejaVuSans-30"/>
      </g>
     </g>
    </g>
    <g id="xtick_6">
     <g id="line2d_6">
      <g>
       <use style="stroke:#000000;stroke-width:0.8;" x="280.8" xlink:href="#m4f2883b495" y="307.584"/>
      </g>
     </g>
     <g id="text_6">
      <!-- 0.25 -->
      <g transform="translate(269.667188 322.182437)scale(0.1 -0.1)">
       <use xlink:href="#DejaVuSans-30"/>
       <use x="63.623047" xlink:href="#DejaVuSans-2e"/>
       <use x="95.410156" xlink:href="#DejaVuSans-32"/>
       <use x="159.033203" xlink:href="#DejaVuSans-35"/>
      </g>
     </g>
    </g>
    <g id="xtick_7">
     <g id="line2d_7">
      <g>
       <use style="stroke:#000000;stroke-width:0.8;" x="325.44" xlink:href="#m4f2883b495" y="307.584"/>
      </g>
     </g>
     <g id="text_7">
      <!-- 0.50 -->
      <g transform="translate(314.307187 322.182437)scale(0.1 -0.1)">
       <use xlink:href="#DejaVuSans-30"/>
       <use x="63.623047" xlink:href="#DejaVuSans-2e"/>
       <use x="95.410156" xlink:href="#DejaVuSans-35"/>
       <use x="159.033203" xlink:href="#DejaVuSans-30"/>
      </g>
     </g>
    </g>
    <g id="xtick_8">
     <g id="line2d_8">
      <g>
       <use style="stroke:#000000;stroke-width:0.8;" x="370.08" xlink:href="#m4f2883b495" y="307.584"/>
      </g>
     </g>
     <g id="text_8">
      <!-- 0.75 -->
      <g transform="translate(358.947188 322.182437)scale(0.1 -0.1)">
       <use xlink:href="#DejaVuSans-30"/>
       <use x="63.623047" xlink:href="#DejaVuSans-2e"/>
       <use x="95.410156" xlink:href="#DejaVuSans-37"/>
       <use x="159.033203" xlink:href="#DejaVuSans-35"/>
      </g>
     </g>
    </g>
    <g id="xtick_9">
     <g id="line2d_9">
      <g>
       <use style="stroke:#000000;stroke-width:0.8;" x="414.72" xlink:href="#m4f2883b495" y="307.584"/>
      </g>
     </g>
     <g id="text_9">
      <!-- 1.00 -->
      <g transform="translate(403.587188 322.182437)scale(0.1 -0.1)">
       <use xlink:href="#DejaVuSans-31"/>
       <use x="63.623047" xlink:href="#DejaVuSans-2e"/>
       <use x="95.410156" xlink:href="#DejaVuSans-30"/>
       <use x="159.033203" xlink:href="#DejaVuSans-30"/>
      </g>
     </g>
    </g>
    <g id="text_10">
     <!-- X -->
     <defs>
      <path d="M 6.296875 72.90625 
L 16.890625 72.90625 
L 35.015625 45.796875 
L 53.21875 72.90625 
L 63.8125 72.90625 
L 40.375 37.890625 
L 65.375 0 
L 54.78125 0 
L 34.28125 31 
L 13.625 0 
L 2.984375 0 
L 29 38.921875 
z
" id="DejaVuSans-58"/>
     </defs>
     <g transform="translate(232.735 335.860562)scale(0.1 -0.1)">
      <use xlink:href="#DejaVuSans-58"/>
     </g>
    </g>
   </g>
   <g id="matplotlib.axis_2">
    <g id="ytick_1">
     <g id="line2d_10">
      <defs>
       <path d="M 0 0 
L -3.5 0 
" id="mbc4a66a8e7" style="stroke:#000000;stroke-width:0.8;"/>
      </defs>
      <g>
       <use style="stroke:#000000;stroke-width:0.8;" x="57.6" xlink:href="#mbc4a66a8e7" y="307.584"/>
      </g>
     </g>
     <g id="text_11">
      <!-- −1.00 -->
      <g transform="translate(19.954687 311.383219)scale(0.1 -0.1)">
       <use xlink:href="#DejaVuSans-2212"/>
       <use x="83.789062" xlink:href="#DejaVuSans-31"/>
       <use x="147.412109" xlink:href="#DejaVuSans-2e"/>
       <use x="179.199219" xlink:href="#DejaVuSans-30"/>
       <use x="242.822266" xlink:href="#DejaVuSans-30"/>
      </g>
     </g>
    </g>
    <g id="ytick_2">
     <g id="line2d_11">
      <g>
       <use style="stroke:#000000;stroke-width:0.8;" x="57.6" xlink:href="#mbc4a66a8e7" y="274.32"/>
      </g>
     </g>
     <g id="text_12">
      <!-- −0.75 -->
      <g transform="translate(19.954687 278.119219)scale(0.1 -0.1)">
       <use xlink:href="#DejaVuSans-2212"/>
       <use x="83.789062" xlink:href="#DejaVuSans-30"/>
       <use x="147.412109" xlink:href="#DejaVuSans-2e"/>
       <use x="179.199219" xlink:href="#DejaVuSans-37"/>
       <use x="242.822266" xlink:href="#DejaVuSans-35"/>
      </g>
     </g>
    </g>
    <g id="ytick_3">
     <g id="line2d_12">
      <g>
       <use style="stroke:#000000;stroke-width:0.8;" x="57.6" xlink:href="#mbc4a66a8e7" y="241.056"/>
      </g>
     </g>
     <g id="text_13">
      <!-- −0.50 -->
      <g transform="translate(19.954687 244.855219)scale(0.1 -0.1)">
       <use xlink:href="#DejaVuSans-2212"/>
       <use x="83.789062" xlink:href="#DejaVuSans-30"/>
       <use x="147.412109" xlink:href="#DejaVuSans-2e"/>
       <use x="179.199219" xlink:href="#DejaVuSans-35"/>
       <use x="242.822266" xlink:href="#DejaVuSans-30"/>
      </g>
     </g>
    </g>
    <g id="ytick_4">
     <g id="line2d_13">
      <g>
       <use style="stroke:#000000;stroke-width:0.8;" x="57.6" xlink:href="#mbc4a66a8e7" y="207.792"/>
      </g>
     </g>
     <g id="text_14">
      <!-- −0.25 -->
      <g transform="translate(19.954687 211.591219)scale(0.1 -0.1)">
       <use xlink:href="#DejaVuSans-2212"/>
       <use x="83.789062" xlink:href="#DejaVuSans-30"/>
       <use x="147.412109" xlink:href="#DejaVuSans-2e"/>
       <use x="179.199219" xlink:href="#DejaVuSans-32"/>
       <use x="242.822266" xlink:href="#DejaVuSans-35"/>
      </g>
     </g>
    </g>
    <g id="ytick_5">
     <g id="line2d_14">
      <g>
       <use style="stroke:#000000;stroke-width:0.8;" x="57.6" xlink:href="#mbc4a66a8e7" y="174.528"/>
      </g>
     </g>
     <g id="text_15">
      <!-- 0.00 -->
      <g transform="translate(28.334375 178.327219)scale(0.1 -0.1)">
       <use xlink:href="#DejaVuSans-30"/>
       <use x="63.623047" xlink:href="#DejaVuSans-2e"/>
       <use x="95.410156" xlink:href="#DejaVuSans-30"/>
       <use x="159.033203" xlink:href="#DejaVuSans-30"/>
      </g>
     </g>
    </g>
    <g id="ytick_6">
     <g id="line2d_15">
      <g>
       <use style="stroke:#000000;stroke-width:0.8;" x="57.6" xlink:href="#mbc4a66a8e7" y="141.264"/>
      </g>
     </g>
     <g id="text_16">
      <!-- 0.25 -->
      <g transform="translate(28.334375 145.063219)scale(0.1 -0.1)">
       <use xlink:href="#DejaVuSans-30"/>
       <use x="63.623047" xlink:href="#DejaVuSans-2e"/>
       <use x="95.410156" xlink:href="#DejaVuSans-32"/>
       <use x="159.033203" xlink:href="#DejaVuSans-35"/>
      </g>
     </g>
    </g>
    <g id="ytick_7">
     <g id="line2d_16">
      <g>
       <use style="stroke:#000000;stroke-width:0.8;" x="57.6" xlink:href="#mbc4a66a8e7" y="108"/>
      </g>
     </g>
     <g id="text_17">
      <!-- 0.50 -->
      <g transform="translate(28.334375 111.799219)scale(0.1 -0.1)">
       <use xlink:href="#DejaVuSans-30"/>
       <use x="63.623047" xlink:href="#DejaVuSans-2e"/>
       <use x="95.410156" xlink:href="#DejaVuSans-35"/>
       <use x="159.033203" xlink:href="#DejaVuSans-30"/>
      </g>
     </g>
    </g>
    <g id="ytick_8">
     <g id="line2d_17">
      <g>
       <use style="stroke:#000000;stroke-width:0.8;" x="57.6" xlink:href="#mbc4a66a8e7" y="74.736"/>
      </g>
     </g>
     <g id="text_18">
      <!-- 0.75 -->
      <g transform="translate(28.334375 78.535219)scale(0.1 -0.1)">
       <use xlink:href="#DejaVuSans-30"/>
       <use x="63.623047" xlink:href="#DejaVuSans-2e"/>
       <use x="95.410156" xlink:href="#DejaVuSans-37"/>
       <use x="159.033203" xlink:href="#DejaVuSans-35"/>
      </g>
     </g>
    </g>
    <g id="ytick_9">
     <g id="line2d_18">
      <g>
       <use style="stroke:#000000;stroke-width:0.8;" x="57.6" xlink:href="#mbc4a66a8e7" y="41.472"/>
      </g>
     </g>
     <g id="text_19">
      <!-- 1.00 -->
      <g transform="translate(28.334375 45.271219)scale(0.1 -0.1)">
       <use xlink:href="#DejaVuSans-31"/>
       <use x="63.623047" xlink:href="#DejaVuSans-2e"/>
       <use x="95.410156" xlink:href="#DejaVuSans-30"/>
       <use x="159.033203" xlink:href="#DejaVuSans-30"/>
      </g>
     </g>
    </g>
    <g id="text_20">
     <!-- Y -->
     <defs>
      <path d="M -0.203125 72.90625 
L 10.40625 72.90625 
L 30.609375 42.921875 
L 50.6875 72.90625 
L 61.28125 72.90625 
L 35.5 34.71875 
L 35.5 0 
L 25.59375 0 
L 25.59375 34.71875 
z
" id="DejaVuSans-59"/>
     </defs>
     <g transform="translate(13.875 177.581906)rotate(-90)scale(0.1 -0.1)">
      <use xlink:href="#DejaVuSans-59"/>
     </g>
    </g>
   </g>
   <g id="LineCollection_1">
    <path clip-path="url(#pb038ce5dc1)" d="M 57.6 307.584 
" style="fill:none;stroke:#000000;stroke-width:1.5;"/>
   </g>
   <g id="LineCollection_2">
    <path clip-path="url(#pb038ce5dc1)" d="M 335.060306 222.057507 
L 338.921861 220.690286 
L 341.838367 219.708836 
L 349.126531 216.795853 
L 356.414694 213.39703 
L 363.702857 209.224575 
L 371.109983 204.397714 
L 378.279184 198.964611 
L 384.393542 193.536 
L 389.636061 188.105143 
L 394.052433 182.674286 
L 397.915495 177.243429 
L 401.117425 171.812571 
L 403.887928 166.381714 
L 406.016804 160.950857 
L 407.638278 155.52 
L 408.950204 150.089143 
L 409.837647 144.658286 
L 410.236386 139.227429 
L 410.169125 133.796571 
L 409.656047 128.365714 
L 408.694153 122.934857 
L 407.262365 117.504 
L 405.560608 112.073143 
L 403.264393 106.642286 
L 400.143673 100.956259 
L 397.047955 95.780571 
L 392.85551 90.25247 
L 388.432655 84.918857 
L 383.01249 79.488 
L 376.689502 74.057143 
L 369.08784 68.626286 
L 363.702857 65.156333 
L 356.414694 61.087836 
L 349.126531 57.694565 
L 341.838367 54.644465 
L 334.550204 52.233821 
L 327.262041 50.000811 
L 319.973878 48.294376 
L 311.718525 46.902857 
L 305.397551 45.970373 
L 298.109388 45.246484 
L 290.821224 44.872207 
L 283.533061 44.83536 
L 276.244898 45.119712 
L 268.956735 45.730014 
L 260.629695 46.902857 
L 254.380408 47.967668 
L 247.092245 49.571675 
L 239.804082 51.609844 
L 232.515918 53.992767 
L 223.281257 57.764571 
L 217.939592 60.169249 
L 210.651429 63.990353 
L 203.363265 68.640813 
L 195.882078 74.057143 
L 188.786939 80.063379 
L 184.05377 84.918857 
L 179.482774 90.349714 
L 175.504135 95.780571 
L 172.112344 101.211429 
L 169.143166 106.642286 
L 166.922449 112.081969 
L 165.087183 117.504 
L 163.679444 122.934857 
L 162.822519 128.365714 
L 162.372917 133.796571 
L 162.316439 139.227429 
L 162.68061 144.658286 
L 163.504395 150.089143 
L 164.776089 155.52 
L 166.922449 161.882062 
L 168.591643 166.381714 
L 171.308059 171.812571 
L 178.416229 182.674286 
L 182.8901 188.105143 
L 188.786939 194.101278 
L 194.183994 198.966857 
L 196.075102 200.472898 
L 203.363265 205.754732 
L 210.651429 210.222703 
L 217.939592 214.303109 
L 225.227755 217.715787 
L 239.804082 222.915862 
L 247.092245 224.944142 
L 261.668571 227.736805 
L 268.956735 228.683719 
L 276.244898 229.27975 
L 283.533061 229.547521 
L 290.821224 229.515 
L 298.109388 229.156768 
L 304.590823 228.540445 
L 304.590823 228.540445 
" style="fill:none;stroke:#000000;stroke-width:1.5;"/>
   </g>
   <g id="LineCollection_3">
    <path clip-path="url(#pb038ce5dc1)" d="M 291.832452 211.351495 
L 298.109388 210.941487 
L 305.397551 210.042607 
L 306.582681 209.828571 
L 312.685714 208.789237 
L 319.973878 207.109016 
L 327.262041 204.874206 
L 328.509698 204.397714 
L 334.550204 202.07131 
L 341.129494 198.966857 
L 341.838367 198.628428 
L 349.126531 194.643131 
L 350.903092 193.536 
L 356.414694 189.886533 
L 358.763454 188.105143 
L 363.702857 183.839356 
L 364.969215 182.674286 
L 370.105647 177.243429 
L 370.99102 176.137862 
L 374.400176 171.812571 
L 377.814637 166.381714 
L 378.279184 165.494192 
L 380.691404 160.950857 
L 382.864056 155.52 
L 384.378647 150.089143 
L 385.352619 144.658286 
L 385.567347 142.032578 
L 385.820684 139.227429 
L 385.751909 133.796571 
L 385.567347 132.215301 
L 385.158691 128.365714 
L 384.047045 122.934857 
L 382.351999 117.504 
L 380.000837 112.073143 
L 378.279184 108.97375 
L 377.036594 106.642286 
L 373.414844 101.211429 
L 370.99102 98.226897 
L 368.957373 95.780571 
L 363.702857 90.630422 
L 363.396678 90.349714 
L 356.888103 84.918857 
L 356.414694 84.554285 
L 349.126531 79.543862 
L 349.033442 79.488 
L 341.838367 75.567402 
L 338.568363 74.057143 
L 334.550204 72.241589 
L 327.262041 69.510185 
L 324.369891 68.626286 
L 319.973878 67.271018 
L 312.685714 65.5793 
L 305.397551 64.335588 
L 298.109388 63.501975 
L 292.943203 63.195429 
L 290.821224 63.057244 
L 283.533061 63.004138 
L 279.735171 63.195429 
L 276.244898 63.354651 
L 268.956735 64.087146 
L 261.668571 65.227904 
L 254.380408 66.817958 
L 248.090565 68.626286 
L 247.092245 68.907054 
L 239.804082 71.458579 
L 233.9461 74.057143 
L 232.515918 74.700496 
L 225.227755 78.417918 
L 223.45527 79.488 
L 217.939592 83.136572 
L 215.557283 84.918857 
L 210.651429 88.92758 
L 208.996969 90.349714 
L 203.472787 95.780571 
L 203.363265 95.909185 
L 199.048521 101.211429 
L 196.075102 105.767777 
L 195.498305 106.642286 
L 192.475224 112.073143 
L 190.226355 117.504 
L 188.786939 122.159426 
L 188.532123 122.934857 
L 187.324479 128.365714 
L 186.698138 133.796571 
L 186.648719 139.227429 
L 187.133089 144.658286 
L 188.178845 150.089143 
L 188.786939 152.134596 
L 189.728042 155.52 
L 191.833695 160.950857 
L 194.620469 166.381714 
L 196.075102 168.615635 
L 198.145623 171.812571 
L 202.567457 177.243429 
L 203.363265 178.115669 
L 207.645648 182.674286 
L 210.651429 185.430843 
L 213.779825 188.105143 
L 217.939592 191.215514 
L 221.468364 193.536 
L 225.227755 195.823997 
L 231.251349 198.966857 
L 232.515918 199.605184 
L 239.804082 202.853799 
L 244.147127 204.397714 
L 247.092245 205.447217 
L 254.380408 207.54241 
L 260.799625 208.930589 
" style="fill:none;stroke:#000000;stroke-width:1.5;"/>
   </g>
   <g id="LineCollection_4">
    <path clip-path="url(#pb038ce5dc1)" d="M 268.019626 77.495304 
L 261.668571 78.774741 
L 259.035484 79.488 
L 254.380408 80.760282 
L 247.092245 83.375862 
L 243.664918 84.918857 
L 239.804082 86.732507 
L 233.354491 90.349714 
L 232.515918 90.873328 
L 225.768048 95.780571 
L 225.227755 96.228944 
L 219.807267 101.211429 
L 217.939592 103.263822 
L 215.055192 106.642286 
L 211.353086 112.073143 
L 210.651429 113.366267 
L 208.43379 117.504 
L 206.303227 122.934857 
L 204.931788 128.365714 
L 204.209492 133.796571 
L 204.104651 139.227429 
L 204.654925 144.658286 
L 205.909058 150.089143 
L 207.848409 155.52 
L 210.549197 160.950857 
L 210.651429 161.114322 
L 213.989412 166.381714 
L 217.939592 171.251869 
L 218.419305 171.812571 
L 224.076309 177.243429 
L 225.227755 178.208542 
L 231.309855 182.674286 
L 232.515918 183.47613 
L 239.804082 187.642896 
L 240.764084 188.105143 
L 247.092245 190.963934 
L 254.169377 193.536 
L 254.380408 193.610431 
L 261.668571 195.675821 
L 268.956735 197.071214 
L 276.244898 197.979576 
L 283.533061 198.410561 
L 290.821224 198.33303 
L 298.109388 197.789379 
L 305.397551 196.765816 
L 312.685714 195.192043 
L 318.134588 193.536 
L 319.973878 192.974821 
L 327.262041 190.23472 
L 331.879369 188.105143 
L 334.550204 186.787544 
L 341.43215 182.674286 
L 341.838367 182.394768 
L 348.47647 177.243429 
L 349.126531 176.662739 
L 354.071102 171.812571 
L 356.414694 169.054258 
L 358.528445 166.381714 
L 361.995833 160.950857 
L 363.702857 157.339233 
L 364.578225 155.52 
L 366.565483 150.089143 
L 367.868218 144.658286 
L 368.427862 139.227429 
L 368.333406 133.796571 
L 367.604088 128.365714 
L 366.208584 122.934857 
L 364.068989 117.504 
L 363.702857 116.798197 
L 361.221453 112.073143 
L 357.476123 106.642286 
L 356.414694 105.340765 
L 352.832591 101.211429 
L 349.126531 97.723842 
L 346.819933 95.780571 
L 341.838367 92.195009 
L 338.949409 90.349714 
L 334.550204 87.754322 
L 328.863439 84.918857 
L 327.262041 84.155755 
L 319.973878 81.332947 
L 313.595375 79.488 
L 312.685714 79.227059 
L 305.397551 77.650529 
L 299.102262 76.737138 
" style="fill:none;stroke:#000000;stroke-width:1.5;"/>
   </g>
   <g id="LineCollection_5">
    <path clip-path="url(#pb038ce5dc1)" d="M 328.060931 176.282 
L 334.471415 171.812571 
L 334.550204 171.750429 
L 340.580619 166.381714 
L 341.838367 165.022112 
L 345.26298 160.950857 
L 348.66018 155.52 
L 349.126531 154.526892 
L 351.095545 150.089143 
L 352.567544 144.658286 
L 353.229471 139.227429 
L 353.167326 133.796571 
L 352.30793 128.365714 
L 350.563237 122.934857 
L 349.126531 119.931825 
L 347.91178 117.504 
L 344.200908 112.073143 
L 341.838367 109.383276 
L 339.203099 106.642286 
L 334.550204 102.604052 
L 332.760295 101.211429 
L 327.262041 97.590426 
L 323.776413 95.780571 
L 319.973878 93.973524 
L 312.685714 91.25044 
L 309.443093 90.349714 
L 305.397551 89.280372 
L 298.109388 87.981829 
L 290.821224 87.3207 
L 283.533061 87.247311 
L 276.244898 87.771206 
L 268.956735 88.926453 
L 263.107417 90.349714 
L 261.668571 90.71147 
L 254.380408 93.21672 
L 248.783538 95.780571 
L 247.092245 96.645577 
L 239.804082 101.172849 
L 239.750185 101.211429 
L 233.178544 106.642286 
L 232.515918 107.307144 
L 228.293829 112.073143 
L 225.227755 116.54994 
L 224.61326 117.504 
L 221.97189 122.934857 
L 220.245087 128.365714 
L 219.3549 133.796571 
L 219.2455 139.227429 
L 219.944209 144.658286 
L 221.533391 150.089143 
L 223.904247 155.52 
L 225.227755 157.74767 
L 227.250997 160.950857 
L 231.712383 166.381714 
L 232.515918 167.178089 
L 237.929997 171.812571 
L 239.804082 173.138551 
L 246.443668 177.243429 
L 247.092245 177.604673 
L 254.380408 181.151276 
L 258.567581 182.674286 
L 261.668571 183.741827 
L 268.956735 185.521768 
L 276.244898 186.623029 
L 283.533061 187.12906 
L 290.821224 187.061385 
L 298.109388 186.366605 
L 298.713503 186.256896 
" style="fill:none;stroke:#000000;stroke-width:1.5;"/>
   </g>
   <g id="LineCollection_6">
    <path clip-path="url(#pb038ce5dc1)" d="M 251.252599 166.117207 
L 251.62134 166.381714 
L 254.380408 168.118796 
L 261.668571 171.733567 
L 261.887403 171.812571 
L 268.956735 174.078392 
L 276.244898 175.559782 
L 283.533061 176.23721 
L 290.821224 176.145524 
L 298.109388 175.232804 
L 305.397551 173.514737 
L 310.567941 171.812571 
L 312.685714 171.026595 
L 319.973878 167.090411 
L 321.032592 166.381714 
L 327.262041 161.536505 
L 327.902853 160.950857 
L 332.488782 155.52 
L 334.550204 152.140251 
L 335.694179 150.089143 
L 337.781821 144.658286 
L 338.605782 139.227429 
L 338.474212 133.796571 
L 337.337821 128.365714 
L 335.122693 122.934857 
L 334.550204 121.985165 
L 331.542341 117.504 
L 327.262041 112.890258 
L 326.375414 112.073143 
L 319.973878 107.176083 
L 319.094749 106.642286 
L 312.685714 103.464894 
L 306.337251 101.211429 
L 305.397551 100.901764 
L 298.109388 99.160058 
L 290.821224 98.227255 
L 283.533061 98.151437 
L 276.244898 98.822831 
L 268.956735 100.30325 
L 265.911493 101.211429 
L 261.668571 102.627093 
L 254.380408 106.213553 
L 253.686182 106.642286 
L 247.092245 111.37108 
L 246.253761 112.073143 
L 240.92268 117.504 
L 239.804082 119.119129 
L 237.420979 122.934857 
L 235.153455 128.365714 
L 234.042239 133.796571 
L 233.994416 139.227429 
L 234.286851 141.164048 
" style="fill:none;stroke:#000000;stroke-width:1.5;"/>
   </g>
   <g id="LineCollection_7">
    <path clip-path="url(#pb038ce5dc1)" d="M 304.602954 113.940258 
L 299.549914 112.073143 
L 298.109388 111.619449 
L 290.821224 110.292742 
L 283.533061 110.154585 
L 276.244898 111.00589 
L 272.678047 112.073143 
L 268.956735 113.432487 
L 261.668571 117.285043 
L 261.343692 117.504 
L 255.16669 122.934857 
L 254.380408 124.009698 
L 251.866397 128.365714 
L 250.227277 133.796571 
L 250.058849 139.227429 
L 251.367186 144.658286 
L 254.246973 150.089143 
L 254.380408 150.261819 
L 259.602416 155.52 
L 261.668571 156.994121 
L 268.828294 160.950857 
L 268.956735 161.008529 
L 276.244898 163.222772 
L 283.533061 164.165406 
L 290.821224 164.037231 
L 298.109388 162.823631 
L 304.075399 160.950857 
L 305.397551 160.428274 
L 312.685714 155.79544 
L 313.012588 155.52 
L 317.986385 150.089143 
L 319.973878 146.996713 
L 321.277524 144.658286 
L 322.578458 139.227429 
L 322.522341 137.188719 
" style="fill:none;stroke:#000000;stroke-width:1.5;"/>
   </g>
   <g id="LineCollection_8">
    <path clip-path="url(#pb038ce5dc1)" d="M 283.533061 145.211157 
L 290.821224 144.862793 
L 291.215464 144.658286 
L 295.843401 139.227429 
L 295.790277 133.796571 
L 290.821224 130.54897 
L 283.533061 130.171101 
L 276.244898 133.592818 
L 276.066221 133.796571 
L 275.593805 139.227429 
L 276.244898 140.261298 
L 281.983806 144.658286 
L 283.533061 145.211157 
" style="fill:none;stroke:#000000;stroke-width:1.5;"/>
   </g>
   <g id="line2d_19">
    <path clip-path="url(#pb038ce5dc1)" d="M 57.6 307.584 
L 57.6 41.472 
L 57.6 41.472 
" style="fill:none;stroke:#000000;stroke-linecap:square;stroke-width:0.1;"/>
   </g>
   <g id="line2d_20">
    <path clip-path="url(#pb038ce5dc1)" d="M 59.211863 307.584 
L 59.211863 41.472 
L 59.211863 41.472 
" style="fill:none;stroke:#000000;stroke-linecap:square;stroke-width:0.1;"/>
   </g>
   <g id="line2d_21">
    <path clip-path="url(#pb038ce5dc1)" d="M 62.984332 307.584 
L 62.984332 41.472 
L 62.984332 41.472 
" style="fill:none;stroke:#000000;stroke-linecap:square;stroke-width:0.1;"/>
   </g>
   <g id="line2d_22">
    <path clip-path="url(#pb038ce5dc1)" d="M 68.859508 307.584 
L 68.859508 41.472 
L 68.859508 41.472 
" style="fill:none;stroke:#000000;stroke-linecap:square;stroke-width:0.1;"/>
   </g>
   <g id="line2d_23">
    <path clip-path="url(#pb038ce5dc1)" d="M 76.765609 307.584 
L 76.765609 41.472 
L 76.765609 41.472 
" style="fill:none;stroke:#000000;stroke-linecap:square;stroke-width:0.1;"/>
   </g>
   <g id="line2d_24">
    <path clip-path="url(#pb038ce5dc1)" d="M 86.606583 307.584 
L 86.606583 41.472 
L 86.606583 41.472 
" style="fill:none;stroke:#000000;stroke-linecap:square;stroke-width:0.1;"/>
   </g>
   <g id="line2d_25">
    <path clip-path="url(#pb038ce5dc1)" d="M 98.262951 307.584 
L 98.262951 41.472 
L 98.262951 41.472 
" style="fill:none;stroke:#000000;stroke-linecap:square;stroke-width:0.1;"/>
   </g>
   <g id="line2d_26">
    <path clip-path="url(#pb038ce5dc1)" d="M 111.593212 307.584 
L 111.593212 41.472 
L 111.593212 41.472 
" style="fill:none;stroke:#000000;stroke-linecap:square;stroke-width:0.1;"/>
   </g>
   <g id="line2d_27">
    <path clip-path="url(#pb038ce5dc1)" d="M 126.43555 307.584 
L 126.43555 41.472 
L 126.43555 41.472 
" style="fill:none;stroke:#000000;stroke-linecap:square;stroke-width:0.1;"/>
   </g>
   <g id="line2d_28">
    <path clip-path="url(#pb038ce5dc1)" d="M 142.609797 307.584 
L 142.609797 41.472 
L 142.609797 41.472 
" style="fill:none;stroke:#000000;stroke-linecap:square;stroke-width:0.1;"/>
   </g>
   <g id="line2d_29">
    <path clip-path="url(#pb038ce5dc1)" d="M 159.919617 307.584 
L 159.919617 41.472 
L 159.919617 41.472 
" style="fill:none;stroke:#000000;stroke-linecap:square;stroke-width:0.1;"/>
   </g>
   <g id="line2d_30">
    <path clip-path="url(#pb038ce5dc1)" d="M 178.154895 307.584 
L 178.154895 41.472 
L 178.154895 41.472 
" style="fill:none;stroke:#000000;stroke-linecap:square;stroke-width:0.1;"/>
   </g>
   <g id="line2d_31">
    <path clip-path="url(#pb038ce5dc1)" d="M 197.094275 307.584 
L 197.094275 41.472 
L 197.094275 41.472 
" style="fill:none;stroke:#000000;stroke-linecap:square;stroke-width:0.1;"/>
   </g>
   <g id="line2d_32">
    <path clip-path="url(#pb038ce5dc1)" d="M 216.507863 307.584 
L 216.507863 41.472 
L 216.507863 41.472 
" style="fill:none;stroke:#000000;stroke-linecap:square;stroke-width:0.1;"/>
   </g>
   <g id="line2d_33">
    <path clip-path="url(#pb038ce5dc1)" d="M 236.16 307.584 
L 236.16 41.472 
L 236.16 41.472 
" style="fill:none;stroke:#000000;stroke-linecap:square;stroke-width:0.1;"/>
   </g>
   <g id="line2d_34">
    <path clip-path="url(#pb038ce5dc1)" d="M 255.812137 307.584 
L 255.812137 41.472 
L 255.812137 41.472 
" style="fill:none;stroke:#000000;stroke-linecap:square;stroke-width:0.1;"/>
   </g>
   <g id="line2d_35">
    <path clip-path="url(#pb038ce5dc1)" d="M 275.225725 307.584 
L 275.225725 41.472 
L 275.225725 41.472 
" style="fill:none;stroke:#000000;stroke-linecap:square;stroke-width:0.1;"/>
   </g>
   <g id="line2d_36">
    <path clip-path="url(#pb038ce5dc1)" d="M 294.165105 307.584 
L 294.165105 41.472 
L 294.165105 41.472 
" style="fill:none;stroke:#000000;stroke-linecap:square;stroke-width:0.1;"/>
   </g>
   <g id="line2d_37">
    <path clip-path="url(#pb038ce5dc1)" d="M 312.400383 307.584 
L 312.400383 41.472 
L 312.400383 41.472 
" style="fill:none;stroke:#000000;stroke-linecap:square;stroke-width:0.1;"/>
   </g>
   <g id="line2d_38">
    <path clip-path="url(#pb038ce5dc1)" d="M 329.710203 307.584 
L 329.710203 41.472 
L 329.710203 41.472 
" style="fill:none;stroke:#000000;stroke-linecap:square;stroke-width:0.1;"/>
   </g>
   <g id="line2d_39">
    <path clip-path="url(#pb038ce5dc1)" d="M 345.88445 307.584 
L 345.88445 41.472 
L 345.88445 41.472 
" style="fill:none;stroke:#000000;stroke-linecap:square;stroke-width:0.1;"/>
   </g>
   <g id="line2d_40">
    <path clip-path="url(#pb038ce5dc1)" d="M 360.726788 307.584 
L 360.726788 41.472 
L 360.726788 41.472 
" style="fill:none;stroke:#000000;stroke-linecap:square;stroke-width:0.1;"/>
   </g>
   <g id="line2d_41">
    <path clip-path="url(#pb038ce5dc1)" d="M 374.057049 307.584 
L 374.057049 41.472 
L 374.057049 41.472 
" style="fill:none;stroke:#000000;stroke-linecap:square;stroke-width:0.1;"/>
   </g>
   <g id="line2d_42">
    <path clip-path="url(#pb038ce5dc1)" d="M 385.713417 307.584 
L 385.713417 41.472 
L 385.713417 41.472 
" style="fill:none;stroke:#000000;stroke-linecap:square;stroke-width:0.1;"/>
   </g>
   <g id="line2d_43">
    <path clip-path="url(#pb038ce5dc1)" d="M 395.554391 307.584 
L 395.554391 41.472 
L 395.554391 41.472 
" style="fill:none;stroke:#000000;stroke-linecap:square;stroke-width:0.1;"/>
   </g>
   <g id="line2d_44">
    <path clip-path="url(#pb038ce5dc1)" d="M 403.460492 307.584 
L 403.460492 41.472 
L 403.460492 41.472 
" style="fill:none;stroke:#000000;stroke-linecap:square;stroke-width:0.1;"/>
   </g>
   <g id="line2d_45">
    <path clip-path="url(#pb038ce5dc1)" d="M 409.335668 307.584 
L 409.335668 41.472 
L 409.335668 41.472 
" style="fill:none;stroke:#000000;stroke-linecap:square;stroke-width:0.1;"/>
   </g>
   <g id="line2d_46">
    <path clip-path="url(#pb038ce5dc1)" d="M 413.108137 307.584 
L 413.108137 41.472 
L 413.108137 41.472 
" style="fill:none;stroke:#000000;stroke-linecap:square;stroke-width:0.1;"/>
   </g>
   <g id="line2d_47">
    <path clip-path="url(#pb038ce5dc1)" d="M 414.72 307.584 
L 414.72 41.472 
L 414.72 41.472 
" style="fill:none;stroke:#000000;stroke-linecap:square;stroke-width:0.1;"/>
   </g>
   <g id="line2d_48">
    <path clip-path="url(#pb038ce5dc1)" d="M 57.6 307.584 
L 414.72 307.584 
L 414.72 307.584 
" style="fill:none;stroke:#000000;stroke-linecap:square;stroke-width:0.1;"/>
   </g>
   <g id="line2d_49">
    <path clip-path="url(#pb038ce5dc1)" d="M 57.6 306.382902 
L 414.72 306.382902 
L 414.72 306.382902 
" style="fill:none;stroke:#000000;stroke-linecap:square;stroke-width:0.1;"/>
   </g>
   <g id="line2d_50">
    <path clip-path="url(#pb038ce5dc1)" d="M 57.6 303.571804 
L 414.72 303.571804 
L 414.72 303.571804 
" style="fill:none;stroke:#000000;stroke-linecap:square;stroke-width:0.1;"/>
   </g>
   <g id="line2d_51">
    <path clip-path="url(#pb038ce5dc1)" d="M 57.6 299.193851 
L 414.72 299.193851 
L 414.72 299.193851 
" style="fill:none;stroke:#000000;stroke-linecap:square;stroke-width:0.1;"/>
   </g>
   <g id="line2d_52">
    <path clip-path="url(#pb038ce5dc1)" d="M 57.6 293.30253 
L 414.72 293.30253 
L 414.72 293.30253 
" style="fill:none;stroke:#000000;stroke-linecap:square;stroke-width:0.1;"/>
   </g>
   <g id="line2d_53">
    <path clip-path="url(#pb038ce5dc1)" d="M 57.6 285.969417 
L 414.72 285.969417 
L 414.72 285.969417 
" style="fill:none;stroke:#000000;stroke-linecap:square;stroke-width:0.1;"/>
   </g>
   <g id="line2d_54">
    <path clip-path="url(#pb038ce5dc1)" d="M 57.6 277.283543 
L 414.72 277.283543 
L 414.72 277.283543 
" style="fill:none;stroke:#000000;stroke-linecap:square;stroke-width:0.1;"/>
   </g>
   <g id="line2d_55">
    <path clip-path="url(#pb038ce5dc1)" d="M 57.6 267.350348 
L 414.72 267.350348 
L 414.72 267.350348 
" style="fill:none;stroke:#000000;stroke-linecap:square;stroke-width:0.1;"/>
   </g>
   <g id="line2d_56">
    <path clip-path="url(#pb038ce5dc1)" d="M 57.6 256.290413 
L 414.72 256.290413 
L 414.72 256.290413 
" style="fill:none;stroke:#000000;stroke-linecap:square;stroke-width:0.1;"/>
   </g>
   <g id="line2d_57">
    <path clip-path="url(#pb038ce5dc1)" d="M 57.6 244.23799 
L 414.72 244.23799 
L 414.72 244.23799 
" style="fill:none;stroke:#000000;stroke-linecap:square;stroke-width:0.1;"/>
   </g>
   <g id="line2d_58">
    <path clip-path="url(#pb038ce5dc1)" d="M 57.6 231.339382 
L 414.72 231.339382 
L 414.72 231.339382 
" style="fill:none;stroke:#000000;stroke-linecap:square;stroke-width:0.1;"/>
   </g>
   <g id="line2d_59">
    <path clip-path="url(#pb038ce5dc1)" d="M 57.6 217.751159 
L 414.72 217.751159 
L 414.72 217.751159 
" style="fill:none;stroke:#000000;stroke-linecap:square;stroke-width:0.1;"/>
   </g>
   <g id="line2d_60">
    <path clip-path="url(#pb038ce5dc1)" d="M 57.6 203.638266 
L 414.72 203.638266 
L 414.72 203.638266 
" style="fill:none;stroke:#000000;stroke-linecap:square;stroke-width:0.1;"/>
   </g>
   <g id="line2d_61">
    <path clip-path="url(#pb038ce5dc1)" d="M 57.6 189.172012 
L 414.72 189.172012 
L 414.72 189.172012 
" style="fill:none;stroke:#000000;stroke-linecap:square;stroke-width:0.1;"/>
   </g>
   <g id="line2d_62">
    <path clip-path="url(#pb038ce5dc1)" d="M 57.6 174.528 
L 414.72 174.528 
L 414.72 174.528 
" style="fill:none;stroke:#000000;stroke-linecap:square;stroke-width:0.1;"/>
   </g>
   <g id="line2d_63">
    <path clip-path="url(#pb038ce5dc1)" d="M 57.6 159.883988 
L 414.72 159.883988 
L 414.72 159.883988 
" style="fill:none;stroke:#000000;stroke-linecap:square;stroke-width:0.1;"/>
   </g>
   <g id="line2d_64">
    <path clip-path="url(#pb038ce5dc1)" d="M 57.6 145.417734 
L 414.72 145.417734 
L 414.72 145.417734 
" style="fill:none;stroke:#000000;stroke-linecap:square;stroke-width:0.1;"/>
   </g>
   <g id="line2d_65">
    <path clip-path="url(#pb038ce5dc1)" d="M 57.6 131.304841 
L 414.72 131.304841 
L 414.72 131.304841 
" style="fill:none;stroke:#000000;stroke-linecap:square;stroke-width:0.1;"/>
   </g>
   <g id="line2d_66">
    <path clip-path="url(#pb038ce5dc1)" d="M 57.6 117.716618 
L 414.72 117.716618 
L 414.72 117.716618 
" style="fill:none;stroke:#000000;stroke-linecap:square;stroke-width:0.1;"/>
   </g>
   <g id="line2d_67">
    <path clip-path="url(#pb038ce5dc1)" d="M 57.6 104.81801 
L 414.72 104.81801 
L 414.72 104.81801 
" style="fill:none;stroke:#000000;stroke-linecap:square;stroke-width:0.1;"/>
   </g>
   <g id="line2d_68">
    <path clip-path="url(#pb038ce5dc1)" d="M 57.6 92.765587 
L 414.72 92.765587 
L 414.72 92.765587 
" style="fill:none;stroke:#000000;stroke-linecap:square;stroke-width:0.1;"/>
   </g>
   <g id="line2d_69">
    <path clip-path="url(#pb038ce5dc1)" d="M 57.6 81.705652 
L 414.72 81.705652 
L 414.72 81.705652 
" style="fill:none;stroke:#000000;stroke-linecap:square;stroke-width:0.1;"/>
   </g>
   <g id="line2d_70">
    <path clip-path="url(#pb038ce5dc1)" d="M 57.6 71.772457 
L 414.72 71.772457 
L 414.72 71.772457 
" style="fill:none;stroke:#000000;stroke-linecap:square;stroke-width:0.1;"/>
   </g>
   <g id="line2d_71">
    <path clip-path="url(#pb038ce5dc1)" d="M 57.6 63.086583 
L 414.72 63.086583 
L 414.72 63.086583 
" style="fill:none;stroke:#000000;stroke-linecap:square;stroke-width:0.1;"/>
   </g>
   <g id="line2d_72">
    <path clip-path="url(#pb038ce5dc1)" d="M 57.6 55.75347 
L 414.72 55.75347 
L 414.72 55.75347 
" style="fill:none;stroke:#000000;stroke-linecap:square;stroke-width:0.1;"/>
   </g>
   <g id="line2d_73">
    <path clip-path="url(#pb038ce5dc1)" d="M 57.6 49.862149 
L 414.72 49.862149 
L 414.72 49.862149 
" style="fill:none;stroke:#000000;stroke-linecap:square;stroke-width:0.1;"/>
   </g>
   <g id="line2d_74">
    <path clip-path="url(#pb038ce5dc1)" d="M 57.6 45.484196 
L 414.72 45.484196 
L 414.72 45.484196 
" style="fill:none;stroke:#000000;stroke-linecap:square;stroke-width:0.1;"/>
   </g>
   <g id="line2d_75">
    <path clip-path="url(#pb038ce5dc1)" d="M 57.6 42.673098 
L 414.72 42.673098 
L 414.72 42.673098 
" style="fill:none;stroke:#000000;stroke-linecap:square;stroke-width:0.1;"/>
   </g>
   <g id="line2d_76">
    <path clip-path="url(#pb038ce5dc1)" d="M 57.6 41.472 
L 414.72 41.472 
L 414.72 41.472 
" style="fill:none;stroke:#000000;stroke-linecap:square;stroke-width:0.1;"/>
   </g>
   <g id="patch_3">
    <path d="M 57.6 307.584 
L 57.6 41.472 
" style="fill:none;stroke:#000000;stroke-linecap:square;stroke-linejoin:miter;stroke-width:0.8;"/>
   </g>
   <g id="patch_4">
    <path d="M 414.72 307.584 
L 414.72 41.472 
" style="fill:none;stroke:#000000;stroke-linecap:square;stroke-linejoin:miter;stroke-width:0.8;"/>
   </g>
   <g id="patch_5">
    <path d="M 57.6 307.584 
L 414.72 307.584 
" style="fill:none;stroke:#000000;stroke-linecap:square;stroke-linejoin:miter;stroke-width:0.8;"/>
   </g>
   <g id="patch_6">
    <path d="M 57.6 41.472 
L 414.72 41.472 
" style="fill:none;stroke:#000000;stroke-linecap:square;stroke-linejoin:miter;stroke-width:0.8;"/>
   </g>
   <g id="text_21">
    <g clip-path="url(#pb038ce5dc1)">
     <!-- 0.029 -->
     <defs>
      <path d="M 10.984375 1.515625 
L 10.984375 10.5 
Q 14.703125 8.734375 18.5 7.8125 
Q 22.3125 6.890625 25.984375 6.890625 
Q 35.75 6.890625 40.890625 13.453125 
Q 46.046875 20.015625 46.78125 33.40625 
Q 43.953125 29.203125 39.59375 26.953125 
Q 35.25 24.703125 29.984375 24.703125 
Q 19.046875 24.703125 12.671875 31.3125 
Q 6.296875 37.9375 6.296875 49.421875 
Q 6.296875 60.640625 12.9375 67.421875 
Q 19.578125 74.21875 30.609375 74.21875 
Q 43.265625 74.21875 49.921875 64.515625 
Q 56.59375 54.828125 56.59375 36.375 
Q 56.59375 19.140625 48.40625 8.859375 
Q 40.234375 -1.421875 26.421875 -1.421875 
Q 22.703125 -1.421875 18.890625 -0.6875 
Q 15.09375 0.046875 10.984375 1.515625 
z
M 30.609375 32.421875 
Q 37.25 32.421875 41.125 36.953125 
Q 45.015625 41.5 45.015625 49.421875 
Q 45.015625 57.28125 41.125 61.84375 
Q 37.25 66.40625 30.609375 66.40625 
Q 23.96875 66.40625 20.09375 61.84375 
Q 16.21875 57.28125 16.21875 49.421875 
Q 16.21875 41.5 20.09375 36.953125 
Q 23.96875 32.421875 30.609375 32.421875 
z
" id="DejaVuSans-39"/>
     </defs>
     <g transform="translate(309.23066 230.528824)rotate(-11.985237)scale(0.08 -0.08)">
      <use xlink:href="#DejaVuSans-30"/>
      <use x="63.623047" xlink:href="#DejaVuSans-2e"/>
      <use x="95.410156" xlink:href="#DejaVuSans-30"/>
      <use x="159.033203" xlink:href="#DejaVuSans-32"/>
      <use x="222.65625" xlink:href="#DejaVuSans-39"/>
     </g>
    </g>
   </g>
   <g id="text_22">
    <g clip-path="url(#pb038ce5dc1)">
     <!-- 0.057 -->
     <g transform="translate(264.654832 212.36357)rotate(-355.459506)scale(0.08 -0.08)">
      <use xlink:href="#DejaVuSans-30"/>
      <use x="63.623047" xlink:href="#DejaVuSans-2e"/>
      <use x="95.410156" xlink:href="#DejaVuSans-30"/>
      <use x="159.033203" xlink:href="#DejaVuSans-35"/>
      <use x="222.65625" xlink:href="#DejaVuSans-37"/>
     </g>
    </g>
   </g>
   <g id="text_23">
    <g clip-path="url(#pb038ce5dc1)">
     <!-- 0.086 -->
     <defs>
      <path d="M 31.78125 34.625 
Q 24.75 34.625 20.71875 30.859375 
Q 16.703125 27.09375 16.703125 20.515625 
Q 16.703125 13.921875 20.71875 10.15625 
Q 24.75 6.390625 31.78125 6.390625 
Q 38.8125 6.390625 42.859375 10.171875 
Q 46.921875 13.96875 46.921875 20.515625 
Q 46.921875 27.09375 42.890625 30.859375 
Q 38.875 34.625 31.78125 34.625 
z
M 21.921875 38.8125 
Q 15.578125 40.375 12.03125 44.71875 
Q 8.5 49.078125 8.5 55.328125 
Q 8.5 64.0625 14.71875 69.140625 
Q 20.953125 74.21875 31.78125 74.21875 
Q 42.671875 74.21875 48.875 69.140625 
Q 55.078125 64.0625 55.078125 55.328125 
Q 55.078125 49.078125 51.53125 44.71875 
Q 48 40.375 41.703125 38.8125 
Q 48.828125 37.15625 52.796875 32.3125 
Q 56.78125 27.484375 56.78125 20.515625 
Q 56.78125 9.90625 50.3125 4.234375 
Q 43.84375 -1.421875 31.78125 -1.421875 
Q 19.734375 -1.421875 13.25 4.234375 
Q 6.78125 9.90625 6.78125 20.515625 
Q 6.78125 27.484375 10.78125 32.3125 
Q 14.796875 37.15625 21.921875 38.8125 
z
M 18.3125 54.390625 
Q 18.3125 48.734375 21.84375 45.5625 
Q 25.390625 42.390625 31.78125 42.390625 
Q 38.140625 42.390625 41.71875 45.5625 
Q 45.3125 48.734375 45.3125 54.390625 
Q 45.3125 60.0625 41.71875 63.234375 
Q 38.140625 66.40625 31.78125 66.40625 
Q 25.390625 66.40625 21.84375 63.234375 
Q 18.3125 60.0625 18.3125 54.390625 
z
" id="DejaVuSans-38"/>
      <path d="M 33.015625 40.375 
Q 26.375 40.375 22.484375 35.828125 
Q 18.609375 31.296875 18.609375 23.390625 
Q 18.609375 15.53125 22.484375 10.953125 
Q 26.375 6.390625 33.015625 6.390625 
Q 39.65625 6.390625 43.53125 10.953125 
Q 47.40625 15.53125 47.40625 23.390625 
Q 47.40625 31.296875 43.53125 35.828125 
Q 39.65625 40.375 33.015625 40.375 
z
M 52.59375 71.296875 
L 52.59375 62.3125 
Q 48.875 64.0625 45.09375 64.984375 
Q 41.3125 65.921875 37.59375 65.921875 
Q 27.828125 65.921875 22.671875 59.328125 
Q 17.53125 52.734375 16.796875 39.40625 
Q 19.671875 43.65625 24.015625 45.921875 
Q 28.375 48.1875 33.59375 48.1875 
Q 44.578125 48.1875 50.953125 41.515625 
Q 57.328125 34.859375 57.328125 23.390625 
Q 57.328125 12.15625 50.6875 5.359375 
Q 44.046875 -1.421875 33.015625 -1.421875 
Q 20.359375 -1.421875 13.671875 8.265625 
Q 6.984375 17.96875 6.984375 36.375 
Q 6.984375 53.65625 15.1875 63.9375 
Q 23.390625 74.21875 37.203125 74.21875 
Q 40.921875 74.21875 44.703125 73.484375 
Q 48.484375 72.75 52.59375 71.296875 
z
" id="DejaVuSans-36"/>
     </defs>
     <g transform="translate(272.138497 78.477)rotate(-1.384642)scale(0.08 -0.08)">
      <use xlink:href="#DejaVuSans-30"/>
      <use x="63.623047" xlink:href="#DejaVuSans-2e"/>
      <use x="95.410156" xlink:href="#DejaVuSans-30"/>
      <use x="159.033203" xlink:href="#DejaVuSans-38"/>
      <use x="222.65625" xlink:href="#DejaVuSans-36"/>
     </g>
    </g>
   </g>
   <g id="text_24">
    <g clip-path="url(#pb038ce5dc1)">
     <!-- 0.115 -->
     <g transform="translate(303.715776 188.398007)rotate(-18.481738)scale(0.08 -0.08)">
      <use xlink:href="#DejaVuSans-30"/>
      <use x="63.623047" xlink:href="#DejaVuSans-2e"/>
      <use x="95.410156" xlink:href="#DejaVuSans-31"/>
      <use x="159.033203" xlink:href="#DejaVuSans-31"/>
      <use x="222.65625" xlink:href="#DejaVuSans-35"/>
     </g>
    </g>
   </g>
   <g id="text_25">
    <g clip-path="url(#pb038ce5dc1)">
     <!-- 0.143 -->
     <defs>
      <path d="M 37.796875 64.3125 
L 12.890625 25.390625 
L 37.796875 25.390625 
z
M 35.203125 72.90625 
L 47.609375 72.90625 
L 47.609375 25.390625 
L 58.015625 25.390625 
L 58.015625 17.1875 
L 47.609375 17.1875 
L 47.609375 0 
L 37.796875 0 
L 37.796875 17.1875 
L 4.890625 17.1875 
L 4.890625 26.703125 
z
" id="DejaVuSans-34"/>
      <path d="M 40.578125 39.3125 
Q 47.65625 37.796875 51.625 33 
Q 55.609375 28.21875 55.609375 21.1875 
Q 55.609375 10.40625 48.1875 4.484375 
Q 40.765625 -1.421875 27.09375 -1.421875 
Q 22.515625 -1.421875 17.65625 -0.515625 
Q 12.796875 0.390625 7.625 2.203125 
L 7.625 11.71875 
Q 11.71875 9.328125 16.59375 8.109375 
Q 21.484375 6.890625 26.8125 6.890625 
Q 36.078125 6.890625 40.9375 10.546875 
Q 45.796875 14.203125 45.796875 21.1875 
Q 45.796875 27.640625 41.28125 31.265625 
Q 36.765625 34.90625 28.71875 34.90625 
L 20.21875 34.90625 
L 20.21875 43.015625 
L 29.109375 43.015625 
Q 36.375 43.015625 40.234375 45.921875 
Q 44.09375 48.828125 44.09375 54.296875 
Q 44.09375 59.90625 40.109375 62.90625 
Q 36.140625 65.921875 28.71875 65.921875 
Q 24.65625 65.921875 20.015625 65.03125 
Q 15.375 64.15625 9.8125 62.3125 
L 9.8125 71.09375 
Q 15.4375 72.65625 20.34375 73.4375 
Q 25.25 74.21875 29.59375 74.21875 
Q 40.828125 74.21875 47.359375 69.109375 
Q 53.90625 64.015625 53.90625 55.328125 
Q 53.90625 49.265625 50.4375 45.09375 
Q 46.96875 40.921875 40.578125 39.3125 
z
" id="DejaVuSans-33"/>
     </defs>
     <g transform="translate(231.558431 147.399574)rotate(-304.957022)scale(0.08 -0.08)">
      <use xlink:href="#DejaVuSans-30"/>
      <use x="63.623047" xlink:href="#DejaVuSans-2e"/>
      <use x="95.410156" xlink:href="#DejaVuSans-31"/>
      <use x="159.033203" xlink:href="#DejaVuSans-34"/>
      <use x="222.65625" xlink:href="#DejaVuSans-33"/>
     </g>
    </g>
   </g>
   <g id="text_26">
    <g clip-path="url(#pb038ce5dc1)">
     <!-- 0.172 -->
     <g transform="translate(308.257878 115.417443)rotate(-308.952806)scale(0.08 -0.08)">
      <use xlink:href="#DejaVuSans-30"/>
      <use x="63.623047" xlink:href="#DejaVuSans-2e"/>
      <use x="95.410156" xlink:href="#DejaVuSans-31"/>
      <use x="159.033203" xlink:href="#DejaVuSans-37"/>
      <use x="222.65625" xlink:href="#DejaVuSans-32"/>
     </g>
    </g>
   </g>
  </g>
 </g>
 <defs>
  <clipPath id="pb038ce5dc1">
   <rect height="266.112" width="357.12" x="57.6" y="41.472"/>
  </clipPath>
 </defs>
</svg>
