<?xml version="1.0" encoding="utf-8" standalone="no"?>
<!DOCTYPE svg PUBLIC "-//W3C//DTD SVG 1.1//EN"
  "http://www.w3.org/Graphics/SVG/1.1/DTD/svg11.dtd">
<!-- Created with matplotlib (http://matplotlib.org/) -->
<svg height="345pt" version="1.1" viewBox="0 0 460 345" width="460pt" xmlns="http://www.w3.org/2000/svg" xmlns:xlink="http://www.w3.org/1999/xlink">
 <defs>
  <style type="text/css">
*{stroke-linecap:butt;stroke-linejoin:round;}
  </style>
 </defs>
 <g id="figure_1">
  <g id="patch_1">
   <path d="M 0 345.6 
L 460.8 345.6 
L 460.8 0 
L 0 0 
z
" style="fill:#ffffff;"/>
  </g>
  <g id="axes_1">
   <g id="patch_2">
    <path d="M 57.6 307.584 
L 414.72 307.584 
L 414.72 41.472 
L 57.6 41.472 
z
" style="fill:#ffffff;"/>
   </g>
   <g id="matplotlib.axis_1">
    <g id="xtick_1">
     <g id="line2d_1">
      <defs>
       <path d="M 0 0 
L 0 3.5 
" id="mc450537c2f" style="stroke:#000000;stroke-width:0.8;"/>
      </defs>
      <g>
       <use style="stroke:#000000;stroke-width:0.8;" x="75.456" xlink:href="#mc450537c2f" y="307.584"/>
      </g>
     </g>
     <g id="text_1">
      <!-- −0.5 -->
      <defs>
       <path d="M 10.59375 35.5 
L 73.1875 35.5 
L 73.1875 27.203125 
L 10.59375 27.203125 
z
" id="DejaVuSans-2212"/>
       <path d="M 31.78125 66.40625 
Q 24.171875 66.40625 20.328125 58.90625 
Q 16.5 51.421875 16.5 36.375 
Q 16.5 21.390625 20.328125 13.890625 
Q 24.171875 6.390625 31.78125 6.390625 
Q 39.453125 6.390625 43.28125 13.890625 
Q 47.125 21.390625 47.125 36.375 
Q 47.125 51.421875 43.28125 58.90625 
Q 39.453125 66.40625 31.78125 66.40625 
z
M 31.78125 74.21875 
Q 44.046875 74.21875 50.515625 64.515625 
Q 56.984375 54.828125 56.984375 36.375 
Q 56.984375 17.96875 50.515625 8.265625 
Q 44.046875 -1.421875 31.78125 -1.421875 
Q 19.53125 -1.421875 13.0625 8.265625 
Q 6.59375 17.96875 6.59375 36.375 
Q 6.59375 54.828125 13.0625 64.515625 
Q 19.53125 74.21875 31.78125 74.21875 
z
" id="DejaVuSans-30"/>
       <path d="M 10.6875 12.40625 
L 21 12.40625 
L 21 0 
L 10.6875 0 
z
" id="DejaVuSans-2e"/>
       <path d="M 10.796875 72.90625 
L 49.515625 72.90625 
L 49.515625 64.59375 
L 19.828125 64.59375 
L 19.828125 46.734375 
Q 21.96875 47.46875 24.109375 47.828125 
Q 26.265625 48.1875 28.421875 48.1875 
Q 40.625 48.1875 47.75 41.5 
Q 54.890625 34.8125 54.890625 23.390625 
Q 54.890625 11.625 47.5625 5.09375 
Q 40.234375 -1.421875 26.90625 -1.421875 
Q 22.3125 -1.421875 17.546875 -0.640625 
Q 12.796875 0.140625 7.71875 1.703125 
L 7.71875 11.625 
Q 12.109375 9.234375 16.796875 8.0625 
Q 21.484375 6.890625 26.703125 6.890625 
Q 35.15625 6.890625 40.078125 11.328125 
Q 45.015625 15.765625 45.015625 23.390625 
Q 45.015625 31 40.078125 35.4375 
Q 35.15625 39.890625 26.703125 39.890625 
Q 22.75 39.890625 18.8125 39.015625 
Q 14.890625 38.140625 10.796875 36.28125 
z
" id="DejaVuSans-35"/>
      </defs>
      <g transform="translate(63.314594 322.182437)scale(0.1 -0.1)">
       <use xlink:href="#DejaVuSans-2212"/>
       <use x="83.789062" xlink:href="#DejaVuSans-30"/>
       <use x="147.412109" xlink:href="#DejaVuSans-2e"/>
       <use x="179.199219" xlink:href="#DejaVuSans-35"/>
      </g>
     </g>
    </g>
    <g id="xtick_2">
     <g id="line2d_2">
      <g>
       <use style="stroke:#000000;stroke-width:0.8;" x="129.024" xlink:href="#mc450537c2f" y="307.584"/>
      </g>
     </g>
     <g id="text_2">
      <!-- 0.0 -->
      <g transform="translate(121.072438 322.182437)scale(0.1 -0.1)">
       <use xlink:href="#DejaVuSans-30"/>
       <use x="63.623047" xlink:href="#DejaVuSans-2e"/>
       <use x="95.410156" xlink:href="#DejaVuSans-30"/>
      </g>
     </g>
    </g>
    <g id="xtick_3">
     <g id="line2d_3">
      <g>
       <use style="stroke:#000000;stroke-width:0.8;" x="182.592" xlink:href="#mc450537c2f" y="307.584"/>
      </g>
     </g>
     <g id="text_3">
      <!-- 0.5 -->
      <g transform="translate(174.640438 322.182437)scale(0.1 -0.1)">
       <use xlink:href="#DejaVuSans-30"/>
       <use x="63.623047" xlink:href="#DejaVuSans-2e"/>
       <use x="95.410156" xlink:href="#DejaVuSans-35"/>
      </g>
     </g>
    </g>
    <g id="xtick_4">
     <g id="line2d_4">
      <g>
       <use style="stroke:#000000;stroke-width:0.8;" x="236.16" xlink:href="#mc450537c2f" y="307.584"/>
      </g>
     </g>
     <g id="text_4">
      <!-- 1.0 -->
      <defs>
       <path d="M 12.40625 8.296875 
L 28.515625 8.296875 
L 28.515625 63.921875 
L 10.984375 60.40625 
L 10.984375 69.390625 
L 28.421875 72.90625 
L 38.28125 72.90625 
L 38.28125 8.296875 
L 54.390625 8.296875 
L 54.390625 0 
L 12.40625 0 
z
" id="DejaVuSans-31"/>
      </defs>
      <g transform="translate(228.208438 322.182437)scale(0.1 -0.1)">
       <use xlink:href="#DejaVuSans-31"/>
       <use x="63.623047" xlink:href="#DejaVuSans-2e"/>
       <use x="95.410156" xlink:href="#DejaVuSans-30"/>
      </g>
     </g>
    </g>
    <g id="xtick_5">
     <g id="line2d_5">
      <g>
       <use style="stroke:#000000;stroke-width:0.8;" x="289.728" xlink:href="#mc450537c2f" y="307.584"/>
      </g>
     </g>
     <g id="text_5">
      <!-- 1.5 -->
      <g transform="translate(281.776437 322.182437)scale(0.1 -0.1)">
       <use xlink:href="#DejaVuSans-31"/>
       <use x="63.623047" xlink:href="#DejaVuSans-2e"/>
       <use x="95.410156" xlink:href="#DejaVuSans-35"/>
      </g>
     </g>
    </g>
    <g id="xtick_6">
     <g id="line2d_6">
      <g>
       <use style="stroke:#000000;stroke-width:0.8;" x="343.296" xlink:href="#mc450537c2f" y="307.584"/>
      </g>
     </g>
     <g id="text_6">
      <!-- 2.0 -->
      <defs>
       <path d="M 19.1875 8.296875 
L 53.609375 8.296875 
L 53.609375 0 
L 7.328125 0 
L 7.328125 8.296875 
Q 12.9375 14.109375 22.625 23.890625 
Q 32.328125 33.6875 34.8125 36.53125 
Q 39.546875 41.84375 41.421875 45.53125 
Q 43.3125 49.21875 43.3125 52.78125 
Q 43.3125 58.59375 39.234375 62.25 
Q 35.15625 65.921875 28.609375 65.921875 
Q 23.96875 65.921875 18.8125 64.3125 
Q 13.671875 62.703125 7.8125 59.421875 
L 7.8125 69.390625 
Q 13.765625 71.78125 18.9375 73 
Q 24.125 74.21875 28.421875 74.21875 
Q 39.75 74.21875 46.484375 68.546875 
Q 53.21875 62.890625 53.21875 53.421875 
Q 53.21875 48.921875 51.53125 44.890625 
Q 49.859375 40.875 45.40625 35.40625 
Q 44.1875 33.984375 37.640625 27.21875 
Q 31.109375 20.453125 19.1875 8.296875 
z
" id="DejaVuSans-32"/>
      </defs>
      <g transform="translate(335.344437 322.182437)scale(0.1 -0.1)">
       <use xlink:href="#DejaVuSans-32"/>
       <use x="63.623047" xlink:href="#DejaVuSans-2e"/>
       <use x="95.410156" xlink:href="#DejaVuSans-30"/>
      </g>
     </g>
    </g>
    <g id="xtick_7">
     <g id="line2d_7">
      <g>
       <use style="stroke:#000000;stroke-width:0.8;" x="396.864" xlink:href="#mc450537c2f" y="307.584"/>
      </g>
     </g>
     <g id="text_7">
      <!-- 2.5 -->
      <g transform="translate(388.912437 322.182437)scale(0.1 -0.1)">
       <use xlink:href="#DejaVuSans-32"/>
       <use x="63.623047" xlink:href="#DejaVuSans-2e"/>
       <use x="95.410156" xlink:href="#DejaVuSans-35"/>
      </g>
     </g>
    </g>
    <g id="text_8">
     <!-- X -->
     <defs>
      <path d="M 6.296875 72.90625 
L 16.890625 72.90625 
L 35.015625 45.796875 
L 53.21875 72.90625 
L 63.8125 72.90625 
L 40.375 37.890625 
L 65.375 0 
L 54.78125 0 
L 34.28125 31 
L 13.625 0 
L 2.984375 0 
L 29 38.921875 
z
" id="DejaVuSans-58"/>
     </defs>
     <g transform="translate(232.735 335.860562)scale(0.1 -0.1)">
      <use xlink:href="#DejaVuSans-58"/>
     </g>
    </g>
   </g>
   <g id="matplotlib.axis_2">
    <g id="ytick_1">
     <g id="line2d_8">
      <defs>
       <path d="M 0 0 
L -3.5 0 
" id="m759d3b6486" style="stroke:#000000;stroke-width:0.8;"/>
      </defs>
      <g>
       <use style="stroke:#000000;stroke-width:0.8;" x="57.6" xlink:href="#m759d3b6486" y="288.576"/>
      </g>
     </g>
     <g id="text_9">
      <!-- 0.5 -->
      <g transform="translate(34.696875 292.375218)scale(0.1 -0.1)">
       <use xlink:href="#DejaVuSans-30"/>
       <use x="63.623047" xlink:href="#DejaVuSans-2e"/>
       <use x="95.410156" xlink:href="#DejaVuSans-35"/>
      </g>
     </g>
    </g>
    <g id="ytick_2">
     <g id="line2d_9">
      <g>
       <use style="stroke:#000000;stroke-width:0.8;" x="57.6" xlink:href="#m759d3b6486" y="231.552"/>
      </g>
     </g>
     <g id="text_10">
      <!-- 1.0 -->
      <g transform="translate(34.696875 235.351219)scale(0.1 -0.1)">
       <use xlink:href="#DejaVuSans-31"/>
       <use x="63.623047" xlink:href="#DejaVuSans-2e"/>
       <use x="95.410156" xlink:href="#DejaVuSans-30"/>
      </g>
     </g>
    </g>
    <g id="ytick_3">
     <g id="line2d_10">
      <g>
       <use style="stroke:#000000;stroke-width:0.8;" x="57.6" xlink:href="#m759d3b6486" y="174.528"/>
      </g>
     </g>
     <g id="text_11">
      <!-- 1.5 -->
      <g transform="translate(34.696875 178.327219)scale(0.1 -0.1)">
       <use xlink:href="#DejaVuSans-31"/>
       <use x="63.623047" xlink:href="#DejaVuSans-2e"/>
       <use x="95.410156" xlink:href="#DejaVuSans-35"/>
      </g>
     </g>
    </g>
    <g id="ytick_4">
     <g id="line2d_11">
      <g>
       <use style="stroke:#000000;stroke-width:0.8;" x="57.6" xlink:href="#m759d3b6486" y="117.504"/>
      </g>
     </g>
     <g id="text_12">
      <!-- 2.0 -->
      <g transform="translate(34.696875 121.303219)scale(0.1 -0.1)">
       <use xlink:href="#DejaVuSans-32"/>
       <use x="63.623047" xlink:href="#DejaVuSans-2e"/>
       <use x="95.410156" xlink:href="#DejaVuSans-30"/>
      </g>
     </g>
    </g>
    <g id="ytick_5">
     <g id="line2d_12">
      <g>
       <use style="stroke:#000000;stroke-width:0.8;" x="57.6" xlink:href="#m759d3b6486" y="60.48"/>
      </g>
     </g>
     <g id="text_13">
      <!-- 2.5 -->
      <g transform="translate(34.696875 64.279219)scale(0.1 -0.1)">
       <use xlink:href="#DejaVuSans-32"/>
       <use x="63.623047" xlink:href="#DejaVuSans-2e"/>
       <use x="95.410156" xlink:href="#DejaVuSans-35"/>
      </g>
     </g>
    </g>
    <g id="text_14">
     <!-- Y -->
     <defs>
      <path d="M -0.203125 72.90625 
L 10.40625 72.90625 
L 30.609375 42.921875 
L 50.6875 72.90625 
L 61.28125 72.90625 
L 35.5 34.71875 
L 35.5 0 
L 25.59375 0 
L 25.59375 34.71875 
z
" id="DejaVuSans-59"/>
     </defs>
     <g transform="translate(28.617188 177.581906)rotate(-90)scale(0.1 -0.1)">
      <use xlink:href="#DejaVuSans-59"/>
     </g>
    </g>
   </g>
   <g id="LineCollection_1"/>
   <g id="LineCollection_2">
    <path clip-path="url(#pa8ce731728)" d="M 152.757017 105.984 
L 153.811812 108.672 
L 154.687793 111.36 
L 154.996364 112.548145 
L 155.361574 114.048 
L 155.867399 116.736 
L 156.221562 119.424 
L 156.457919 122.112 
L 156.593609 124.8 
L 156.633031 127.488 
L 156.589032 130.176 
L 156.479266 132.864 
L 156.309103 135.552 
L 156.084651 138.24 
L 155.818101 140.928 
L 155.520296 143.616 
L 155.196777 146.304 
L 154.996364 147.837377 
L 154.841521 148.992 
L 154.457769 151.68 
L 154.065099 154.368 
L 153.665029 157.056 
L 153.259695 159.744 
L 152.852028 162.432 
L 152.447793 165.12 
L 152.053716 167.808 
L 151.671321 170.496 
L 151.389091 172.522032 
L 151.293288 173.184 
L 150.910946 175.872 
L 150.543483 178.56 
L 150.19595 181.248 
L 149.87149 183.936 
L 149.569083 186.624 
L 149.286703 189.312 
L 149.02509 192 
L 148.787969 194.688 
L 148.57875 197.376 
L 148.399268 200.064 
L 148.246717 202.752 
L 148.119732 205.44 
L 148.020403 208.128 
L 147.95215 210.816 
L 147.917455 213.504 
L 147.917161 214.042921 
" style="fill:none;stroke:#000000;stroke-width:1.5;"/>
    <path clip-path="url(#pa8ce731728)" d="M 150.100566 245.134065 
L 150.194464 245.76 
L 150.640424 248.448 
L 151.12912 251.136 
L 151.389091 252.455025 
L 151.645944 253.824 
L 151.693738 254.051011 
" style="fill:none;stroke:#000000;stroke-width:1.5;"/>
   </g>
   <g id="LineCollection_3">
    <path clip-path="url(#pa8ce731728)" d="M 198.283636 303.297641 
L 199.02481 304.896 
" style="fill:none;stroke:#000000;stroke-width:1.5;"/>
    <path clip-path="url(#pa8ce731728)" d="M 214.899497 72.098504 
L 215.532359 73.728 
L 216.32 76.239787 
L 216.370739 76.416 
L 216.855037 79.104 
L 217.059804 81.792 
L 217.022038 84.48 
L 216.780547 87.168 
L 216.375393 89.856 
L 216.32 90.11928 
L 215.814092 92.544 
L 215.130108 95.232 
L 214.347709 97.92 
L 213.474448 100.608 
L 212.712727 102.758423 
L 212.524817 103.296 
L 211.503943 105.984 
L 210.443092 108.672 
L 209.354622 111.36 
L 209.105455 111.946788 
L 208.226323 114.048 
L 207.081329 116.736 
L 205.932064 119.424 
L 205.498182 120.419222 
L 204.77032 122.112 
L 203.60775 124.8 
L 202.457658 127.488 
L 201.890909 128.810797 
L 201.311943 130.176 
L 200.176355 132.864 
L 199.063899 135.552 
L 198.283636 137.463145 
L 197.968342 138.24 
L 196.882741 140.928 
L 195.827723 143.616 
L 194.80419 146.304 
L 194.676364 146.643864 
L 193.794245 148.992 
L 192.815709 151.68 
L 191.869795 154.368 
L 191.069091 156.721571 
L 190.95471 157.056 
L 190.055173 159.744 
L 189.692613 160.877037 
" style="fill:none;stroke:#000000;stroke-width:1.5;"/>
    <path clip-path="url(#pa8ce731728)" d="M 182.155688 191.127991 
L 182.000696 192 
L 181.564004 194.688 
L 181.168247 197.376 
L 180.812221 200.064 
L 180.493412 202.752 
L 180.247273 205.097335 
L 180.210302 205.44 
L 179.958662 208.128 
L 179.748984 210.816 
L 179.581226 213.504 
L 179.454431 216.192 
L 179.367017 218.88 
L 179.319088 221.568 
L 179.312841 224.256 
L 179.34865 226.944 
L 179.42641 229.632 
L 179.545625 232.32 
L 179.707181 235.008 
L 179.912281 237.696 
L 180.16068 240.384 
L 180.247273 241.181926 
L 180.444913 243.072 
L 180.768242 245.76 
L 181.13565 248.448 
L 181.548288 251.136 
L 182.005939 253.824 
L 182.509112 256.512 
L 183.058966 259.2 
L 183.656768 261.888 
L 183.854545 262.712873 
L 184.288063 264.576 
L 184.960442 267.264 
L 185.681376 269.952 
L 186.451872 272.64 
L 187.273238 275.328 
L 187.461818 275.911938 
L 188.123474 278.016 
L 189.01866 280.704 
L 189.965526 283.392 
L 190.96517 286.08 
L 191.069091 286.347432 
L 191.98773 288.768 
L 193.058945 291.456 
L 194.183296 294.144 
L 194.676364 295.275645 
L 195.339289 296.832 
L 196.528112 299.52 
L 197.500186 301.624203 
" style="fill:none;stroke:#000000;stroke-width:1.5;"/>
   </g>
   <g id="LineCollection_4">
    <path clip-path="url(#pa8ce731728)" d="M 255.441114 52.224 
L 256 53.4762 
L 256.574711 54.912 
L 257.550861 57.6 
L 258.440222 60.288 
L 259.232987 62.976 
L 259.607273 64.447902 
L 259.89003 65.664 
L 260.400836 68.352 
L 260.80098 71.04 
L 261.089542 73.728 
L 261.241559 76.416 
L 261.259596 79.104 
L 261.143651 81.792 
L 260.883427 84.48 
L 260.47215 87.168 
L 259.91104 89.856 
L 259.607273 91.027789 
L 259.179246 92.544 
L 258.275604 95.232 
L 257.224791 97.92 
L 256.031927 100.608 
L 256 100.673035 
L 254.646243 103.296 
L 253.147196 105.984 
L 252.392727 107.249634 
L 251.514156 108.672 
L 249.775164 111.36 
L 248.785455 112.835713 
L 247.958915 114.048 
L 246.059283 116.736 
L 245.178182 117.953366 
L 244.113959 119.424 
L 242.150922 122.112 
L 241.570909 122.897642 
L 240.182928 124.8 
L 238.231111 127.488 
L 237.963636 127.855209 
L 236.296779 130.176 
L 234.403358 132.864 
L 234.356364 132.930925 
L 232.550013 135.552 
L 231.758178 136.7346 
" style="fill:none;stroke:#000000;stroke-width:1.5;"/>
    <path clip-path="url(#pa8ce731728)" d="M 216.489925 163.898614 
L 216.32 164.275518 
L 215.942308 165.12 
L 214.784807 167.808 
L 213.689323 170.496 
L 212.712727 173.028642 
L 212.653122 173.184 
L 211.665015 175.872 
L 210.733611 178.56 
L 209.858536 181.248 
L 209.105455 183.719169 
L 209.039456 183.936 
L 208.266269 186.624 
L 207.546385 189.312 
L 206.879179 192 
L 206.263516 194.688 
L 205.70029 197.376 
L 205.498182 198.432915 
L 205.184303 200.064 
L 204.71633 202.752 
L 204.297759 205.44 
L 203.928536 208.128 
L 203.608483 210.816 
L 203.337534 213.504 
L 203.115282 216.192 
L 202.941216 218.88 
L 202.815101 221.568 
L 202.737324 224.256 
L 202.707499 226.944 
L 202.724847 229.632 
L 202.788465 232.32 
L 202.898456 235.008 
L 203.057184 237.696 
L 203.264923 240.384 
L 203.520833 243.072 
L 203.824788 245.76 
L 204.176516 248.448 
L 204.577721 251.136 
L 205.029514 253.824 
L 205.498182 256.33552 
L 205.53054 256.512 
L 206.0703 259.2 
L 206.660799 261.888 
L 207.301759 264.576 
L 207.993455 267.264 
L 208.736289 269.952 
L 209.105455 271.203795 
L 209.523889 272.64 
L 210.356701 275.328 
L 211.240841 278.016 
L 212.17827 280.704 
L 212.712727 282.160909 
L 213.160672 283.392 
L 214.187063 286.08 
L 215.266143 288.768 
L 216.32 291.270707 
L 216.397772 291.456 
L 217.568072 294.144 
L 218.79144 296.832 
" style="fill:none;stroke:#000000;stroke-width:1.5;"/>
   </g>
   <g id="LineCollection_5">
    <path clip-path="url(#pa8ce731728)" d="M 270.48799 44.16 
L 271.667916 46.848 
L 272.857723 49.536 
L 274.035035 52.224 
L 274.036364 52.227201 
L 275.068117 54.912 
L 276.075775 57.6 
L 277.052697 60.288 
L 277.643636 62.005159 
L 277.953158 62.976 
L 278.751769 65.664 
L 279.504711 68.352 
L 280.206114 71.04 
L 280.850141 73.728 
L 281.250909 75.608653 
L 281.411328 76.416 
L 281.868491 79.104 
L 282.257533 81.792 
L 282.572126 84.48 
L 282.801259 87.168 
L 282.94034 89.856 
L 282.978781 92.544 
L 282.914731 95.232 
L 282.736472 97.92 
L 282.433834 100.608 
L 282.002213 103.296 
L 281.432988 105.984 
L 281.250909 106.695274 
L 280.689199 108.672 
L 279.778451 111.36 
L 278.702383 114.048 
L 277.643636 116.362427 
L 277.458803 116.736 
L 275.997283 119.424 
L 274.389555 122.112 
L 274.036364 122.66446 
L 272.603993 124.8 
L 270.674289 127.488 
L 270.429091 127.812606 
L 268.600752 130.176 
L 266.821818 132.398994 
L 266.443024 132.864 
L 265.169137 134.385444 
" style="fill:none;stroke:#000000;stroke-width:1.5;"/>
    <path clip-path="url(#pa8ce731728)" d="M 245.674146 158.725219 
L 245.178182 159.434792 
L 244.967985 159.744 
L 243.195165 162.432 
L 241.570909 165.009113 
L 241.502807 165.12 
L 239.904109 167.808 
L 238.386253 170.496 
L 237.963636 171.276206 
L 236.954118 173.184 
L 235.604077 175.872 
L 234.356364 178.504007 
L 234.330365 178.56 
L 233.139992 181.248 
L 232.022215 183.936 
L 230.976765 186.624 
L 230.749091 187.246458 
L 230.005874 189.312 
L 229.104715 192 
L 228.271291 194.688 
L 227.503655 197.376 
L 227.141818 198.754225 
L 226.801705 200.064 
L 226.165878 202.752 
L 225.593479 205.44 
L 225.082863 208.128 
L 224.632496 210.816 
L 224.241727 213.504 
L 223.911292 216.192 
L 223.640904 218.88 
L 223.534545 220.227015 
L 223.428801 221.568 
L 223.272526 224.256 
L 223.174017 226.944 
L 223.133434 229.632 
L 223.149318 232.32 
L 223.220284 235.008 
L 223.345791 237.696 
L 223.52935 240.384 
L 223.534545 240.441897 
L 223.769056 243.072 
L 224.06341 245.76 
L 224.414004 248.448 
L 224.819458 251.136 
L 225.28286 253.824 
L 225.8035 256.512 
L 226.378204 259.2 
L 227.011319 261.888 
L 227.141818 262.396222 
L 227.702025 264.576 
L 228.448393 267.264 
L 229.25427 269.952 
L 230.119004 272.64 
L 230.749091 274.477577 
L 231.042188 275.328 
L 232.027584 278.016 
L 233.076528 280.704 
L 234.186771 283.392 
L 234.356364 283.782866 
L 235.357431 286.08 
L 236.007906 287.537335 
" style="fill:none;stroke:#000000;stroke-width:1.5;"/>
   </g>
   <g id="LineCollection_6">
    <path clip-path="url(#pa8ce731728)" d="M 290.107133 64.199315 
L 290.605797 65.664 
L 291.539392 68.352 
L 292.072727 69.945238 
L 292.413092 71.04 
L 293.212844 73.728 
L 293.99126 76.416 
L 294.744967 79.104 
L 295.470417 81.792 
L 295.68 82.628438 
L 296.115669 84.48 
L 296.705653 87.168 
L 297.258833 89.856 
L 297.770487 92.544 
L 298.232109 95.232 
L 298.637232 97.92 
L 298.983043 100.608 
L 299.260244 103.296 
L 299.287273 103.677542 
L 299.442956 105.984 
L 299.544257 108.672 
L 299.5573 111.36 
L 299.480289 114.048 
L 299.295492 116.736 
L 299.287273 116.811862 
L 298.964577 119.424 
L 298.493608 122.112 
L 297.874074 124.8 
L 297.105831 127.488 
L 296.173751 130.176 
L 295.68 131.384259 
L 295.012706 132.864 
L 293.633452 135.552 
L 292.072727 138.222399 
L 292.061763 138.24 
L 290.260626 140.928 
L 288.465455 143.366927 
L 288.271878 143.616 
L 286.07228 146.304 
L 284.858182 147.72077 
L 283.742722 148.992 
L 281.307404 151.68 
L 281.250909 151.740506 
L 278.797747 154.368 
L 277.643636 155.587007 
L 276.278552 157.056 
L 274.036364 159.464635 
L 273.782205 159.744 
L 271.350418 162.432 
L 270.429091 163.462426 
L 268.993072 165.12 
L 266.821818 167.687044 
L 266.72324 167.808 
L 264.585109 170.496 
L 263.214545 172.281581 
L 262.549697 173.184 
L 260.641173 175.872 
L 259.607273 177.386545 
L 258.839145 178.56 
L 257.159255 181.248 
L 256 183.201893 
L 255.580919 183.936 
L 254.123119 186.624 
L 252.755774 189.312 
L 252.392727 190.070398 
L 251.501193 192 
L 250.343205 194.688 
L 249.273179 197.376 
L 248.785455 198.69952 
L 248.297549 200.064 
L 247.413817 202.752 
L 246.612588 205.44 
L 245.892074 208.128 
L 245.250886 210.816 
L 245.178182 211.159808 
L 244.69409 213.504 
L 244.213212 216.192 
L 244.123708 216.785964 
" style="fill:none;stroke:#000000;stroke-width:1.5;"/>
    <path clip-path="url(#pa8ce731728)" d="M 243.952519 247.868151 
L 244.031366 248.448 
L 244.464355 251.136 
L 244.967318 253.824 
L 245.178182 254.816484 
L 245.54306 256.512 
L 246.186114 259.2 
L 246.904631 261.888 
L 247.692729 264.576 
L 248.543493 267.264 
L 248.785455 267.967279 
L 249.483702 269.952 
L 250.504867 272.64 
L 251.598547 275.328 
L 252.392727 277.178543 
L 252.761385 278.016 
" style="fill:none;stroke:#000000;stroke-width:1.5;"/>
   </g>
   <g id="LineCollection_7">
    <path clip-path="url(#pa8ce731728)" d="M 303.305361 76.722124 
L 304.074264 79.104 
L 304.961337 81.792 
L 305.83812 84.48 
L 306.501818 86.536989 
L 306.693483 87.168 
L 307.475615 89.856 
L 308.249924 92.544 
L 309.017099 95.232 
L 309.774245 97.92 
L 310.109091 99.164024 
L 310.478939 100.608 
L 311.136117 103.296 
L 311.770666 105.984 
L 312.380929 108.672 
L 312.963171 111.36 
L 313.509815 114.048 
L 313.716364 115.17771 
L 313.990385 116.736 
L 314.410168 119.424 
L 314.778775 122.112 
L 315.087924 124.8 
L 315.328556 127.488 
L 315.493291 130.176 
L 315.576621 132.864 
L 315.557557 135.552 
L 315.417111 138.24 
L 315.142584 140.928 
L 314.720391 143.616 
L 314.143121 146.304 
L 313.716364 147.878254 
L 313.373769 148.992 
L 312.343378 151.68 
L 311.073196 154.368 
L 310.109091 156.108606 
L 309.539264 157.056 
L 307.726329 159.744 
L 306.501818 161.355434 
L 305.618305 162.432 
L 303.218407 165.12 
L 302.894545 165.46333 
L 300.612618 167.808 
L 299.680307 168.724994 
" style="fill:none;stroke:#000000;stroke-width:1.5;"/>
    <path clip-path="url(#pa8ce731728)" d="M 278.316898 191.394207 
L 277.865341 192 
L 277.643636 192.312243 
L 276.056966 194.688 
L 274.374403 197.376 
L 274.036364 197.951801 
L 272.868885 200.064 
L 271.491245 202.752 
L 270.429091 205.002493 
L 270.233633 205.44 
L 269.133448 208.128 
L 268.143237 210.816 
L 267.26129 213.504 
L 266.821818 215.022918 
L 266.500203 216.192 
L 265.857777 218.88 
L 265.316371 221.568 
L 264.873982 224.256 
L 264.52899 226.944 
L 264.28068 229.632 
L 264.130646 232.32 
L 264.076174 235.008 
L 264.112098 237.696 
L 264.238046 240.384 
L 264.460985 243.072 
L 264.776851 245.76 
L 265.182046 248.448 
L 265.679363 251.136 
L 266.268815 253.824 
L 266.821818 256.041415 
L 266.944237 256.512 
L 267.742747 259.2 
L 268.645699 261.888 
L 269.6649 264.576 
L 270.429091 266.415303 
L 270.783185 267.264 
L 271.55711 269.111444 
" style="fill:none;stroke:#000000;stroke-width:1.5;"/>
   </g>
   <g id="LineCollection_8">
    <path clip-path="url(#pa8ce731728)" d="M 316.017869 91.570993 
L 316.340346 92.544 
L 317.323636 95.191642 
L 317.337875 95.232 
L 318.250277 97.92 
L 319.178479 100.608 
L 320.121548 103.296 
L 320.930909 105.578399 
L 321.068274 105.984 
L 321.951585 108.672 
L 322.380591 109.960519 
" style="fill:none;stroke:#000000;stroke-width:1.5;"/>
    <path clip-path="url(#pa8ce731728)" d="M 331.541986 139.779465 
L 331.752727 140.550549 
L 331.853438 140.928 
L 332.508369 143.616 
L 333.142062 146.304 
L 333.749017 148.992 
L 334.328381 151.68 
L 334.865457 154.368 
L 335.343532 157.056 
L 335.36 157.174528 
L 335.710918 159.744 
L 336.003862 162.432 
L 336.216692 165.12 
L 336.329072 167.808 
L 336.312035 170.496 
L 336.14323 173.184 
L 335.788958 175.872 
L 335.36 177.881403 
L 335.184157 178.56 
L 334.254885 181.248 
L 332.991899 183.936 
L 331.752727 185.967324 
L 331.267103 186.624 
L 328.888539 189.312 
L 328.145455 190.029705 
L 325.853024 192 
L 324.538182 193.02408 
L 322.301518 194.688 
L 320.930909 195.638843 
L 318.416937 197.376 
L 317.323636 198.10636 
L 314.508108 200.064 
L 313.716364 200.618908 
L 310.912429 202.752 
L 310.109091 203.369351 
L 307.704571 205.44 
L 306.501818 206.504415 
L 304.885156 208.128 
L 302.894545 210.247943 
L 302.419545 210.816 
L 300.330677 213.504 
L 299.287273 214.975507 
L 298.516431 216.192 
L 296.997211 218.88 
L 295.68 221.549162 
L 295.671694 221.568 
L 294.661647 224.256 
L 293.824119 226.944 
L 293.164143 229.632 
L 292.686584 232.32 
L 292.389642 235.008 
L 292.274872 237.696 
L 292.337033 240.384 
L 292.558833 243.072 
L 292.941917 245.76 
L 293.53372 248.448 
L 294.296876 251.136 
L 295.331995 253.824 
L 295.68 254.719646 
L 296.232429 256.100351 
" style="fill:none;stroke:#000000;stroke-width:1.5;"/>
   </g>
   <g id="LineCollection_9">
    <path clip-path="url(#pa8ce731728)" d="M 326.987121 102.432854 
L 327.316324 103.296 
L 328.145455 105.25833 
L 328.438651 105.984 
L 329.52421 108.672 
L 330.64381 111.36 
L 331.752727 113.933779 
L 331.799965 114.048 
L 332.895455 116.736 
L 334.029596 119.424 
L 335.204379 122.112 
L 335.36 122.474166 
L 336.326336 124.8 
L 337.482661 127.488 
L 338.683191 130.176 
L 338.967273 130.818383 
L 339.84343 132.864 
L 341.021826 135.552 
L 342.256061 138.24 
L 342.574545 138.941006 
L 343.448093 140.928 
L 344.66076 143.616 
L 345.92475 146.304 
L 346.181818 146.856875 
L 347.150858 148.992 
L 348.410261 151.68 
L 349.733089 154.368 
L 349.789091 154.484664 
L 350.992404 157.056 
L 352.31027 159.744 
L 353.396364 161.87872 
L 353.668785 162.432 
L 354.973422 165.12 
L 356.353765 167.808 
L 357.003636 169.065143 
L 357.720806 170.496 
L 359.094378 173.184 
L 360.54959 175.872 
L 360.610909 175.987091 
L 361.92289 178.56 
L 363.359736 181.248 
L 364.218182 182.812478 
L 364.642924 183.621629 
" style="fill:none;stroke:#000000;stroke-width:1.5;"/>
   </g>
   <g id="LineCollection_10">
    <path clip-path="url(#pa8ce731728)" d="M 340.095993 117.577079 
L 340.957081 119.424 
L 342.324756 122.112 
L 342.574545 122.604207 
L 343.649483 124.8 
L 345.024877 127.488 
L 346.181818 129.667109 
L 346.443176 130.176 
L 347.827568 132.864 
L 349.21821 135.40886 
" style="fill:none;stroke:#000000;stroke-width:1.5;"/>
    <path clip-path="url(#pa8ce731728)" d="M 364.996624 162.316466 
L 365.067822 162.432 
L 366.768784 165.12 
L 367.825455 166.732783 
L 368.500327 167.808 
L 370.215984 170.496 
L 371.432727 172.33947 
L 371.965802 173.184 
L 373.680785 175.872 
L 375.04 177.925305 
L 375.438178 178.56 
L 377.120223 181.248 
L 378.647273 183.597246 
L 378.854818 183.936 
L 380.476483 186.624 
L 382.159414 189.312 
L 382.254545 189.467344 
L 383.690356 192 
L 385.25714 194.688 
L 385.861818 195.736292 
L 386.7268 197.376 
L 388.156556 200.064 
L 389.469091 202.535222 
L 389.570839 202.752 
L 390.422531 204.729533 
" style="fill:none;stroke:#000000;stroke-width:1.5;"/>
    <path clip-path="url(#pa8ce731728)" d="M 338.067714 113.377684 
L 338.369287 114.048 
L 338.967273 115.2647 
" style="fill:none;stroke:#000000;stroke-width:1.5;"/>
   </g>
   <g id="LineCollection_11">
    <path clip-path="url(#pa8ce731728)" d="M 352.459038 129.477541 
L 352.839142 130.176 
L 353.396364 131.114584 
L 354.406361 132.864 
L 356.01223 135.552 
L 357.003636 137.158078 
L 357.648419 138.24 
L 359.29291 140.928 
L 360.610909 142.98456 
L 361.002743 143.616 
L 361.256213 144.018184 
" style="fill:none;stroke:#000000;stroke-width:1.5;"/>
    <path clip-path="url(#pa8ce731728)" d="M 378.677088 169.896991 
L 379.081958 170.496 
L 380.904231 173.184 
L 382.254545 175.121917 
L 382.749489 175.872 
L 384.520616 178.56 
L 385.861818 180.541998 
L 386.312675 181.248 
L 388.006596 183.936 
L 389.469091 186.20749 
L 389.719675 186.624 
L 391.296251 189.312 
L 392.897882 192 
L 393.076364 192.307077 
L 394.350052 194.688 
L 395.794771 197.376 
L 396.683636 199.088447 
L 397.137774 200.064 
L 397.931794 201.821922 
" style="fill:none;stroke:#000000;stroke-width:1.5;"/>
   </g>
   <g id="LineCollection_12">
    <path clip-path="url(#pa8ce731728)" d="M 369.991185 147.917818 
L 370.703762 148.992 
L 371.432727 150.022787 
L 372.57236 151.68 
L 374.494863 154.368 
L 375.04 155.123537 
L 376.37637 157.056 
L 378.324838 159.744 
L 378.647273 160.187024 
L 378.833771 160.452518 
" style="fill:none;stroke:#000000;stroke-width:1.5;"/>
    <path clip-path="url(#pa8ce731728)" d="M 396.408833 186.220095 
L 396.663459 186.624 
L 396.683636 186.657095 
L 398.182672 189.312 
L 399.720174 192 
L 400.290909 193.02481 
L 401.141395 194.688 
L 402.48375 197.376 
L 402.833822 198.16912 
" style="fill:none;stroke:#000000;stroke-width:1.5;"/>
   </g>
   <g id="LineCollection_13">
    <path clip-path="url(#pa8ce731728)" d="M 394.117877 173.960096 
L 395.406635 175.872 
L 396.683636 177.722555 
L 397.225976 178.56 
L 398.943906 181.248 
L 400.290909 183.337856 
L 400.652068 183.936 
L 402.2236 186.624 
L 403.803897 189.312 
L 403.898182 189.477777 
L 405.220506 192 
L 406.596618 194.688 
L 407.505455 196.590914 
L 407.759074 197.187012 
" style="fill:none;stroke:#000000;stroke-width:1.5;"/>
   </g>
   <g id="LineCollection_14">
    <path clip-path="url(#pa8ce731728)" d="M 409.130568 190.522971 
L 409.882484 192 
L 411.112727 194.424717 
" style="fill:none;stroke:#000000;stroke-width:1.5;"/>
    <path clip-path="url(#pa8ce731728)" d="M 406.630619 185.972106 
L 407.002968 186.624 
L 407.505455 187.49351 
" style="fill:none;stroke:#000000;stroke-width:1.5;"/>
   </g>
   <g id="LineCollection_15"/>
   <g id="line2d_13">
    <path clip-path="url(#pa8ce731728)" d="M 200.448 307.584 
L 57.6 155.52 
L 57.6 155.52 
" style="fill:none;stroke:#000000;stroke-linecap:square;stroke-width:0.1;"/>
   </g>
   <g id="line2d_14">
    <path clip-path="url(#pa8ce731728)" d="M 201.756136 306.887734 
L 58.908137 154.823734 
L 58.908137 154.823734 
" style="fill:none;stroke:#000000;stroke-linecap:square;stroke-width:0.1;"/>
   </g>
   <g id="line2d_15">
    <path clip-path="url(#pa8ce731728)" d="M 204.812278 305.261078 
L 61.964278 153.197078 
L 61.964278 153.197078 
" style="fill:none;stroke:#000000;stroke-linecap:square;stroke-width:0.1;"/>
   </g>
   <g id="line2d_16">
    <path clip-path="url(#pa8ce731728)" d="M 209.556406 302.735977 
L 66.708406 150.671978 
L 66.708406 150.671978 
" style="fill:none;stroke:#000000;stroke-linecap:square;stroke-width:0.1;"/>
   </g>
   <g id="line2d_17">
    <path clip-path="url(#pa8ce731728)" d="M 215.910246 299.354094 
L 73.062247 147.290095 
L 73.062247 147.290095 
" style="fill:none;stroke:#000000;stroke-linecap:square;stroke-width:0.1;"/>
   </g>
   <g id="line2d_18">
    <path clip-path="url(#pa8ce731728)" d="M 223.769401 295.170996 
L 80.921401 143.106996 
L 80.921401 143.106996 
" style="fill:none;stroke:#000000;stroke-linecap:square;stroke-width:0.1;"/>
   </g>
   <g id="line2d_19">
    <path clip-path="url(#pa8ce731728)" d="M 233.004804 290.255378 
L 90.156804 138.191379 
L 90.156804 138.191379 
" style="fill:none;stroke:#000000;stroke-linecap:square;stroke-width:0.1;"/>
   </g>
   <g id="line2d_20">
    <path clip-path="url(#pa8ce731728)" d="M 243.464802 284.68796 
L 100.616803 132.62396 
L 100.616803 132.62396 
" style="fill:none;stroke:#000000;stroke-linecap:square;stroke-width:0.1;"/>
   </g>
   <g id="line2d_21">
    <path clip-path="url(#pa8ce731728)" d="M 254.97764 278.560158 
L 112.129641 126.496159 
L 112.129641 126.496159 
" style="fill:none;stroke:#000000;stroke-linecap:square;stroke-width:0.1;"/>
   </g>
   <g id="line2d_22">
    <path clip-path="url(#pa8ce731728)" d="M 267.354276 271.972595 
L 124.506277 119.908595 
L 124.506277 119.908595 
" style="fill:none;stroke:#000000;stroke-linecap:square;stroke-width:0.1;"/>
   </g>
   <g id="line2d_23">
    <path clip-path="url(#pa8ce731728)" d="M 280.391483 265.033436 
L 137.543484 112.969437 
L 137.543484 112.969437 
" style="fill:none;stroke:#000000;stroke-linecap:square;stroke-width:0.1;"/>
   </g>
   <g id="line2d_24">
    <path clip-path="url(#pa8ce731728)" d="M 293.875193 257.856624 
L 151.027192 105.792623 
L 151.027192 105.792623 
" style="fill:none;stroke:#000000;stroke-linecap:square;stroke-width:0.1;"/>
   </g>
   <g id="line2d_25">
    <path clip-path="url(#pa8ce731728)" d="M 307.584 250.56 
L 164.736 98.496 
L 164.736 98.496 
" style="fill:none;stroke:#000000;stroke-linecap:square;stroke-width:0.1;"/>
   </g>
   <g id="line2d_26">
    <path clip-path="url(#pa8ce731728)" d="M 321.292808 243.263377 
L 178.444807 91.199376 
L 178.444807 91.199376 
" style="fill:none;stroke:#000000;stroke-linecap:square;stroke-width:0.1;"/>
   </g>
   <g id="line2d_27">
    <path clip-path="url(#pa8ce731728)" d="M 334.776516 236.086563 
L 191.928517 84.022564 
L 191.928517 84.022564 
" style="fill:none;stroke:#000000;stroke-linecap:square;stroke-width:0.1;"/>
   </g>
   <g id="line2d_28">
    <path clip-path="url(#pa8ce731728)" d="M 347.813723 229.147405 
L 204.965724 77.083405 
L 204.965724 77.083405 
" style="fill:none;stroke:#000000;stroke-linecap:square;stroke-width:0.1;"/>
   </g>
   <g id="line2d_29">
    <path clip-path="url(#pa8ce731728)" d="M 360.190359 222.559841 
L 217.34236 70.495842 
L 217.34236 70.495842 
" style="fill:none;stroke:#000000;stroke-linecap:square;stroke-width:0.1;"/>
   </g>
   <g id="line2d_30">
    <path clip-path="url(#pa8ce731728)" d="M 371.703197 216.43204 
L 228.855198 64.36804 
L 228.855198 64.36804 
" style="fill:none;stroke:#000000;stroke-linecap:square;stroke-width:0.1;"/>
   </g>
   <g id="line2d_31">
    <path clip-path="url(#pa8ce731728)" d="M 382.163196 210.864621 
L 239.315196 58.800622 
L 239.315196 58.800622 
" style="fill:none;stroke:#000000;stroke-linecap:square;stroke-width:0.1;"/>
   </g>
   <g id="line2d_32">
    <path clip-path="url(#pa8ce731728)" d="M 391.398599 205.949004 
L 248.550599 53.885004 
L 248.550599 53.885004 
" style="fill:none;stroke:#000000;stroke-linecap:square;stroke-width:0.1;"/>
   </g>
   <g id="line2d_33">
    <path clip-path="url(#pa8ce731728)" d="M 399.257753 201.765905 
L 256.409754 49.701906 
L 256.409754 49.701906 
" style="fill:none;stroke:#000000;stroke-linecap:square;stroke-width:0.1;"/>
   </g>
   <g id="line2d_34">
    <path clip-path="url(#pa8ce731728)" d="M 405.611594 198.384022 
L 262.763594 46.320023 
L 262.763594 46.320023 
" style="fill:none;stroke:#000000;stroke-linecap:square;stroke-width:0.1;"/>
   </g>
   <g id="line2d_35">
    <path clip-path="url(#pa8ce731728)" d="M 410.355722 195.858922 
L 267.507722 43.794922 
L 267.507722 43.794922 
" style="fill:none;stroke:#000000;stroke-linecap:square;stroke-width:0.1;"/>
   </g>
   <g id="line2d_36">
    <path clip-path="url(#pa8ce731728)" d="M 413.411863 194.232266 
L 270.563864 42.168266 
L 270.563864 42.168266 
" style="fill:none;stroke:#000000;stroke-linecap:square;stroke-width:0.1;"/>
   </g>
   <g id="line2d_37">
    <path clip-path="url(#pa8ce731728)" d="M 414.72 193.536 
L 271.872 41.472 
L 271.872 41.472 
" style="fill:none;stroke:#000000;stroke-linecap:square;stroke-width:0.1;"/>
   </g>
   <g id="line2d_38">
    <path clip-path="url(#pa8ce731728)" d="M 200.448 307.584 
L 414.72 193.536 
L 414.72 193.536 
" style="fill:none;stroke:#000000;stroke-linecap:square;stroke-width:0.1;"/>
   </g>
   <g id="line2d_39">
    <path clip-path="url(#pa8ce731728)" d="M 199.575909 306.655645 
L 413.847909 192.607645 
L 413.847909 192.607645 
" style="fill:none;stroke:#000000;stroke-linecap:square;stroke-width:0.1;"/>
   </g>
   <g id="line2d_40">
    <path clip-path="url(#pa8ce731728)" d="M 197.538482 304.486771 
L 411.810482 190.438771 
L 411.810482 190.438771 
" style="fill:none;stroke:#000000;stroke-linecap:square;stroke-width:0.1;"/>
   </g>
   <g id="line2d_41">
    <path clip-path="url(#pa8ce731728)" d="M 194.375729 301.119969 
L 408.647729 187.07197 
L 408.647729 187.07197 
" style="fill:none;stroke:#000000;stroke-linecap:square;stroke-width:0.1;"/>
   </g>
   <g id="line2d_42">
    <path clip-path="url(#pa8ce731728)" d="M 190.139836 296.610793 
L 404.411836 182.562793 
L 404.411836 182.562793 
" style="fill:none;stroke:#000000;stroke-linecap:square;stroke-width:0.1;"/>
   </g>
   <g id="line2d_43">
    <path clip-path="url(#pa8ce731728)" d="M 184.900399 291.033328 
L 399.172399 176.985328 
L 399.172399 176.985328 
" style="fill:none;stroke:#000000;stroke-linecap:square;stroke-width:0.1;"/>
   </g>
   <g id="line2d_44">
    <path clip-path="url(#pa8ce731728)" d="M 178.743464 284.479171 
L 393.015464 170.431171 
L 393.015464 170.431171 
" style="fill:none;stroke:#000000;stroke-linecap:square;stroke-width:0.1;"/>
   </g>
   <g id="line2d_45">
    <path clip-path="url(#pa8ce731728)" d="M 171.770132 277.055946 
L 386.042131 163.007947 
L 386.042131 163.007947 
" style="fill:none;stroke:#000000;stroke-linecap:square;stroke-width:0.1;"/>
   </g>
   <g id="line2d_46">
    <path clip-path="url(#pa8ce731728)" d="M 164.094907 268.885545 
L 378.366906 154.837546 
L 378.366906 154.837546 
" style="fill:none;stroke:#000000;stroke-linecap:square;stroke-width:0.1;"/>
   </g>
   <g id="line2d_47">
    <path clip-path="url(#pa8ce731728)" d="M 155.843817 260.102127 
L 370.115816 146.054127 
L 370.115816 146.054127 
" style="fill:none;stroke:#000000;stroke-linecap:square;stroke-width:0.1;"/>
   </g>
   <g id="line2d_48">
    <path clip-path="url(#pa8ce731728)" d="M 147.152345 250.849915 
L 361.424344 136.801915 
L 361.424344 136.801915 
" style="fill:none;stroke:#000000;stroke-linecap:square;stroke-width:0.1;"/>
   </g>
   <g id="line2d_49">
    <path clip-path="url(#pa8ce731728)" d="M 138.163206 241.280831 
L 352.435205 127.232832 
L 352.435205 127.232832 
" style="fill:none;stroke:#000000;stroke-linecap:square;stroke-width:0.1;"/>
   </g>
   <g id="line2d_50">
    <path clip-path="url(#pa8ce731728)" d="M 129.024 231.552 
L 343.296 117.504 
L 343.296 117.504 
" style="fill:none;stroke:#000000;stroke-linecap:square;stroke-width:0.1;"/>
   </g>
   <g id="line2d_51">
    <path clip-path="url(#pa8ce731728)" d="M 119.884795 221.823168 
L 334.156794 107.775169 
L 334.156794 107.775169 
" style="fill:none;stroke:#000000;stroke-linecap:square;stroke-width:0.1;"/>
   </g>
   <g id="line2d_52">
    <path clip-path="url(#pa8ce731728)" d="M 110.895656 212.254085 
L 325.167655 98.206085 
L 325.167655 98.206085 
" style="fill:none;stroke:#000000;stroke-linecap:square;stroke-width:0.1;"/>
   </g>
   <g id="line2d_53">
    <path clip-path="url(#pa8ce731728)" d="M 102.204184 203.001873 
L 316.476183 88.953873 
L 316.476183 88.953873 
" style="fill:none;stroke:#000000;stroke-linecap:square;stroke-width:0.1;"/>
   </g>
   <g id="line2d_54">
    <path clip-path="url(#pa8ce731728)" d="M 93.953094 194.218454 
L 308.225093 80.170455 
L 308.225093 80.170455 
" style="fill:none;stroke:#000000;stroke-linecap:square;stroke-width:0.1;"/>
   </g>
   <g id="line2d_55">
    <path clip-path="url(#pa8ce731728)" d="M 86.277869 186.048053 
L 300.549868 72.000054 
L 300.549868 72.000054 
" style="fill:none;stroke:#000000;stroke-linecap:square;stroke-width:0.1;"/>
   </g>
   <g id="line2d_56">
    <path clip-path="url(#pa8ce731728)" d="M 79.304536 178.624829 
L 293.576536 64.576829 
L 293.576536 64.576829 
" style="fill:none;stroke:#000000;stroke-linecap:square;stroke-width:0.1;"/>
   </g>
   <g id="line2d_57">
    <path clip-path="url(#pa8ce731728)" d="M 73.147601 172.070672 
L 287.419601 58.022672 
L 287.419601 58.022672 
" style="fill:none;stroke:#000000;stroke-linecap:square;stroke-width:0.1;"/>
   </g>
   <g id="line2d_58">
    <path clip-path="url(#pa8ce731728)" d="M 67.908164 166.493207 
L 282.180164 52.445207 
L 282.180164 52.445207 
" style="fill:none;stroke:#000000;stroke-linecap:square;stroke-width:0.1;"/>
   </g>
   <g id="line2d_59">
    <path clip-path="url(#pa8ce731728)" d="M 63.672271 161.98403 
L 277.944271 47.936031 
L 277.944271 47.936031 
" style="fill:none;stroke:#000000;stroke-linecap:square;stroke-width:0.1;"/>
   </g>
   <g id="line2d_60">
    <path clip-path="url(#pa8ce731728)" d="M 60.509518 158.617229 
L 274.781518 44.569229 
L 274.781518 44.569229 
" style="fill:none;stroke:#000000;stroke-linecap:square;stroke-width:0.1;"/>
   </g>
   <g id="line2d_61">
    <path clip-path="url(#pa8ce731728)" d="M 58.472091 156.448355 
L 272.744091 42.400355 
L 272.744091 42.400355 
" style="fill:none;stroke:#000000;stroke-linecap:square;stroke-width:0.1;"/>
   </g>
   <g id="line2d_62">
    <path clip-path="url(#pa8ce731728)" d="M 57.6 155.52 
L 271.872 41.472 
L 271.872 41.472 
" style="fill:none;stroke:#000000;stroke-linecap:square;stroke-width:0.1;"/>
   </g>
   <g id="patch_3">
    <path d="M 57.6 307.584 
L 57.6 41.472 
" style="fill:none;stroke:#000000;stroke-linecap:square;stroke-linejoin:miter;stroke-width:0.8;"/>
   </g>
   <g id="patch_4">
    <path d="M 414.72 307.584 
L 414.72 41.472 
" style="fill:none;stroke:#000000;stroke-linecap:square;stroke-linejoin:miter;stroke-width:0.8;"/>
   </g>
   <g id="patch_5">
    <path d="M 57.6 307.584 
L 414.72 307.584 
" style="fill:none;stroke:#000000;stroke-linecap:square;stroke-linejoin:miter;stroke-width:0.8;"/>
   </g>
   <g id="patch_6">
    <path d="M 57.6 41.472 
L 414.72 41.472 
" style="fill:none;stroke:#000000;stroke-linecap:square;stroke-linejoin:miter;stroke-width:0.8;"/>
   </g>
   <g id="text_15">
    <g clip-path="url(#pa8ce731728)">
     <!-- 0.107 -->
     <defs>
      <path d="M 8.203125 72.90625 
L 55.078125 72.90625 
L 55.078125 68.703125 
L 28.609375 0 
L 18.3125 0 
L 43.21875 64.59375 
L 8.203125 64.59375 
z
" id="DejaVuSans-37"/>
     </defs>
     <g transform="translate(145.40289 218.360915)rotate(-273.967188)scale(0.08 -0.08)">
      <use xlink:href="#DejaVuSans-30"/>
      <use x="63.623047" xlink:href="#DejaVuSans-2e"/>
      <use x="95.410156" xlink:href="#DejaVuSans-31"/>
      <use x="159.033203" xlink:href="#DejaVuSans-30"/>
      <use x="222.65625" xlink:href="#DejaVuSans-37"/>
     </g>
    </g>
   </g>
   <g id="text_16">
    <g clip-path="url(#pa8ce731728)">
     <!-- 0.198 -->
     <defs>
      <path d="M 10.984375 1.515625 
L 10.984375 10.5 
Q 14.703125 8.734375 18.5 7.8125 
Q 22.3125 6.890625 25.984375 6.890625 
Q 35.75 6.890625 40.890625 13.453125 
Q 46.046875 20.015625 46.78125 33.40625 
Q 43.953125 29.203125 39.59375 26.953125 
Q 35.25 24.703125 29.984375 24.703125 
Q 19.046875 24.703125 12.671875 31.3125 
Q 6.296875 37.9375 6.296875 49.421875 
Q 6.296875 60.640625 12.9375 67.421875 
Q 19.578125 74.21875 30.609375 74.21875 
Q 43.265625 74.21875 49.921875 64.515625 
Q 56.59375 54.828125 56.59375 36.375 
Q 56.59375 19.140625 48.40625 8.859375 
Q 40.234375 -1.421875 26.421875 -1.421875 
Q 22.703125 -1.421875 18.890625 -0.6875 
Q 15.09375 0.046875 10.984375 1.515625 
z
M 30.609375 32.421875 
Q 37.25 32.421875 41.125 36.953125 
Q 45.015625 41.5 45.015625 49.421875 
Q 45.015625 57.28125 41.125 61.84375 
Q 37.25 66.40625 30.609375 66.40625 
Q 23.96875 66.40625 20.09375 61.84375 
Q 16.21875 57.28125 16.21875 49.421875 
Q 16.21875 41.5 20.09375 36.953125 
Q 23.96875 32.421875 30.609375 32.421875 
z
" id="DejaVuSans-39"/>
      <path d="M 31.78125 34.625 
Q 24.75 34.625 20.71875 30.859375 
Q 16.703125 27.09375 16.703125 20.515625 
Q 16.703125 13.921875 20.71875 10.15625 
Q 24.75 6.390625 31.78125 6.390625 
Q 38.8125 6.390625 42.859375 10.171875 
Q 46.921875 13.96875 46.921875 20.515625 
Q 46.921875 27.09375 42.890625 30.859375 
Q 38.875 34.625 31.78125 34.625 
z
M 21.921875 38.8125 
Q 15.578125 40.375 12.03125 44.71875 
Q 8.5 49.078125 8.5 55.328125 
Q 8.5 64.0625 14.71875 69.140625 
Q 20.953125 74.21875 31.78125 74.21875 
Q 42.671875 74.21875 48.875 69.140625 
Q 55.078125 64.0625 55.078125 55.328125 
Q 55.078125 49.078125 51.53125 44.71875 
Q 48 40.375 41.703125 38.8125 
Q 48.828125 37.15625 52.796875 32.3125 
Q 56.78125 27.484375 56.78125 20.515625 
Q 56.78125 9.90625 50.3125 4.234375 
Q 43.84375 -1.421875 31.78125 -1.421875 
Q 19.734375 -1.421875 13.25 4.234375 
Q 6.78125 9.90625 6.78125 20.515625 
Q 6.78125 27.484375 10.78125 32.3125 
Q 14.796875 37.15625 21.921875 38.8125 
z
M 18.3125 54.390625 
Q 18.3125 48.734375 21.84375 45.5625 
Q 25.390625 42.390625 31.78125 42.390625 
Q 38.140625 42.390625 41.71875 45.5625 
Q 45.3125 48.734375 45.3125 54.390625 
Q 45.3125 60.0625 41.71875 63.234375 
Q 38.140625 66.40625 31.78125 66.40625 
Q 25.390625 66.40625 21.84375 63.234375 
Q 18.3125 60.0625 18.3125 54.390625 
z
" id="DejaVuSans-38"/>
     </defs>
     <g transform="translate(184.767135 187.516956)rotate(-75.983098)scale(0.08 -0.08)">
      <use xlink:href="#DejaVuSans-30"/>
      <use x="63.623047" xlink:href="#DejaVuSans-2e"/>
      <use x="95.410156" xlink:href="#DejaVuSans-31"/>
      <use x="159.033203" xlink:href="#DejaVuSans-39"/>
      <use x="222.65625" xlink:href="#DejaVuSans-38"/>
     </g>
    </g>
   </g>
   <g id="text_17">
    <g clip-path="url(#pa8ce731728)">
     <!-- 0.289 -->
     <g transform="translate(219.836496 161.046406)rotate(-60.601074)scale(0.08 -0.08)">
      <use xlink:href="#DejaVuSans-30"/>
      <use x="63.623047" xlink:href="#DejaVuSans-2e"/>
      <use x="95.410156" xlink:href="#DejaVuSans-32"/>
      <use x="159.033203" xlink:href="#DejaVuSans-38"/>
      <use x="222.65625" xlink:href="#DejaVuSans-39"/>
     </g>
    </g>
   </g>
   <g id="text_18">
    <g clip-path="url(#pa8ce731728)">
     <!-- 0.380 -->
     <defs>
      <path d="M 40.578125 39.3125 
Q 47.65625 37.796875 51.625 33 
Q 55.609375 28.21875 55.609375 21.1875 
Q 55.609375 10.40625 48.1875 4.484375 
Q 40.765625 -1.421875 27.09375 -1.421875 
Q 22.515625 -1.421875 17.65625 -0.515625 
Q 12.796875 0.390625 7.625 2.203125 
L 7.625 11.71875 
Q 11.71875 9.328125 16.59375 8.109375 
Q 21.484375 6.890625 26.8125 6.890625 
Q 36.078125 6.890625 40.9375 10.546875 
Q 45.796875 14.203125 45.796875 21.1875 
Q 45.796875 27.640625 41.28125 31.265625 
Q 36.765625 34.90625 28.71875 34.90625 
L 20.21875 34.90625 
L 20.21875 43.015625 
L 29.109375 43.015625 
Q 36.375 43.015625 40.234375 45.921875 
Q 44.09375 48.828125 44.09375 54.296875 
Q 44.09375 59.90625 40.109375 62.90625 
Q 36.140625 65.921875 28.71875 65.921875 
Q 24.65625 65.921875 20.015625 65.03125 
Q 15.375 64.15625 9.8125 62.3125 
L 9.8125 71.09375 
Q 15.4375 72.65625 20.34375 73.4375 
Q 25.25 74.21875 29.59375 74.21875 
Q 40.828125 74.21875 47.359375 69.109375 
Q 53.90625 64.015625 53.90625 55.328125 
Q 53.90625 49.265625 50.4375 45.09375 
Q 46.96875 40.921875 40.578125 39.3125 
z
" id="DejaVuSans-33"/>
     </defs>
     <g transform="translate(249.620101 156.596109)rotate(-51.037497)scale(0.08 -0.08)">
      <use xlink:href="#DejaVuSans-30"/>
      <use x="63.623047" xlink:href="#DejaVuSans-2e"/>
      <use x="95.410156" xlink:href="#DejaVuSans-33"/>
      <use x="159.033203" xlink:href="#DejaVuSans-38"/>
      <use x="222.65625" xlink:href="#DejaVuSans-30"/>
     </g>
    </g>
   </g>
   <g id="text_19">
    <g clip-path="url(#pa8ce731728)">
     <!-- 0.471 -->
     <defs>
      <path d="M 37.796875 64.3125 
L 12.890625 25.390625 
L 37.796875 25.390625 
z
M 35.203125 72.90625 
L 47.609375 72.90625 
L 47.609375 25.390625 
L 58.015625 25.390625 
L 58.015625 17.1875 
L 47.609375 17.1875 
L 47.609375 0 
L 37.796875 0 
L 37.796875 17.1875 
L 4.890625 17.1875 
L 4.890625 26.703125 
z
" id="DejaVuSans-34"/>
     </defs>
     <g transform="translate(245.014334 243.782451)rotate(-89.70534)scale(0.08 -0.08)">
      <use xlink:href="#DejaVuSans-30"/>
      <use x="63.623047" xlink:href="#DejaVuSans-2e"/>
      <use x="95.410156" xlink:href="#DejaVuSans-34"/>
      <use x="159.033203" xlink:href="#DejaVuSans-37"/>
      <use x="222.65625" xlink:href="#DejaVuSans-31"/>
     </g>
    </g>
   </g>
   <g id="text_20">
    <g clip-path="url(#pa8ce731728)">
     <!-- 0.562 -->
     <defs>
      <path d="M 33.015625 40.375 
Q 26.375 40.375 22.484375 35.828125 
Q 18.609375 31.296875 18.609375 23.390625 
Q 18.609375 15.53125 22.484375 10.953125 
Q 26.375 6.390625 33.015625 6.390625 
Q 39.65625 6.390625 43.53125 10.953125 
Q 47.40625 15.53125 47.40625 23.390625 
Q 47.40625 31.296875 43.53125 35.828125 
Q 39.65625 40.375 33.015625 40.375 
z
M 52.59375 71.296875 
L 52.59375 62.3125 
Q 48.875 64.0625 45.09375 64.984375 
Q 41.3125 65.921875 37.59375 65.921875 
Q 27.828125 65.921875 22.671875 59.328125 
Q 17.53125 52.734375 16.796875 39.40625 
Q 19.671875 43.65625 24.015625 45.921875 
Q 28.375 48.1875 33.59375 48.1875 
Q 44.578125 48.1875 50.953125 41.515625 
Q 57.328125 34.859375 57.328125 23.390625 
Q 57.328125 12.15625 50.6875 5.359375 
Q 44.046875 -1.421875 33.015625 -1.421875 
Q 20.359375 -1.421875 13.671875 8.265625 
Q 6.984375 17.96875 6.984375 36.375 
Q 6.984375 53.65625 15.1875 63.9375 
Q 23.390625 74.21875 37.203125 74.21875 
Q 40.921875 74.21875 44.703125 73.484375 
Q 48.484375 72.75 52.59375 71.296875 
z
" id="DejaVuSans-36"/>
     </defs>
     <g transform="translate(282.1251 189.355643)rotate(-46.154726)scale(0.08 -0.08)">
      <use xlink:href="#DejaVuSans-30"/>
      <use x="63.623047" xlink:href="#DejaVuSans-2e"/>
      <use x="95.410156" xlink:href="#DejaVuSans-35"/>
      <use x="159.033203" xlink:href="#DejaVuSans-36"/>
      <use x="222.65625" xlink:href="#DejaVuSans-32"/>
     </g>
    </g>
   </g>
   <g id="text_21">
    <g clip-path="url(#pa8ce731728)">
     <!-- 0.653 -->
     <g transform="translate(321.713557 114.503529)rotate(-287.094349)scale(0.08 -0.08)">
      <use xlink:href="#DejaVuSans-30"/>
      <use x="63.623047" xlink:href="#DejaVuSans-2e"/>
      <use x="95.410156" xlink:href="#DejaVuSans-36"/>
      <use x="159.033203" xlink:href="#DejaVuSans-35"/>
      <use x="222.65625" xlink:href="#DejaVuSans-33"/>
     </g>
    </g>
   </g>
   <g id="text_22">
    <g clip-path="url(#pa8ce731728)">
     <!-- 0.744 -->
     <g transform="translate(364.767546 188.227577)rotate(-297.41808)scale(0.08 -0.08)">
      <use xlink:href="#DejaVuSans-30"/>
      <use x="63.623047" xlink:href="#DejaVuSans-2e"/>
      <use x="95.410156" xlink:href="#DejaVuSans-37"/>
      <use x="159.033203" xlink:href="#DejaVuSans-34"/>
      <use x="222.65625" xlink:href="#DejaVuSans-34"/>
     </g>
    </g>
   </g>
   <g id="text_23">
    <g clip-path="url(#pa8ce731728)">
     <!-- 0.835 -->
     <g transform="translate(349.183766 140.235713)rotate(-300.426061)scale(0.08 -0.08)">
      <use xlink:href="#DejaVuSans-30"/>
      <use x="63.623047" xlink:href="#DejaVuSans-2e"/>
      <use x="95.410156" xlink:href="#DejaVuSans-38"/>
      <use x="159.033203" xlink:href="#DejaVuSans-33"/>
      <use x="222.65625" xlink:href="#DejaVuSans-35"/>
     </g>
    </g>
   </g>
   <g id="text_24">
    <g clip-path="url(#pa8ce731728)">
     <!-- 0.926 -->
     <g transform="translate(361.58316 148.800207)rotate(-304.022996)scale(0.08 -0.08)">
      <use xlink:href="#DejaVuSans-30"/>
      <use x="63.623047" xlink:href="#DejaVuSans-2e"/>
      <use x="95.410156" xlink:href="#DejaVuSans-39"/>
      <use x="159.033203" xlink:href="#DejaVuSans-32"/>
      <use x="222.65625" xlink:href="#DejaVuSans-36"/>
     </g>
    </g>
   </g>
   <g id="text_25">
    <g clip-path="url(#pa8ce731728)">
     <!-- 1.017 -->
     <g transform="translate(379.549012 164.989251)rotate(-304.446054)scale(0.08 -0.08)">
      <use xlink:href="#DejaVuSans-31"/>
      <use x="63.623047" xlink:href="#DejaVuSans-2e"/>
      <use x="95.410156" xlink:href="#DejaVuSans-30"/>
      <use x="159.033203" xlink:href="#DejaVuSans-31"/>
      <use x="222.65625" xlink:href="#DejaVuSans-37"/>
     </g>
    </g>
   </g>
  </g>
 </g>
 <defs>
  <clipPath id="pa8ce731728">
   <rect height="266.112" width="357.12" x="57.6" y="41.472"/>
  </clipPath>
 </defs>
</svg>
