<?xml version="1.0" encoding="utf-8" standalone="no"?>
<!DOCTYPE svg PUBLIC "-//W3C//DTD SVG 1.1//EN"
  "http://www.w3.org/Graphics/SVG/1.1/DTD/svg11.dtd">
<!-- Created with matplotlib (http://matplotlib.org/) -->
<svg height="345pt" version="1.1" viewBox="0 0 460 345" width="460pt" xmlns="http://www.w3.org/2000/svg" xmlns:xlink="http://www.w3.org/1999/xlink">
 <defs>
  <style type="text/css">
*{stroke-linecap:butt;stroke-linejoin:round;}
  </style>
 </defs>
 <g id="figure_1">
  <g id="patch_1">
   <path d="M 0 345.6 
L 460.8 345.6 
L 460.8 0 
L 0 0 
z
" style="fill:#ffffff;"/>
  </g>
  <g id="axes_1">
   <g id="patch_2">
    <path d="M 57.6 307.584 
L 414.72 307.584 
L 414.72 41.472 
L 57.6 41.472 
z
" style="fill:#ffffff;"/>
   </g>
   <g id="Quiver_1">
    <path clip-path="url(#p50cfecf893)" d="M 74.011287 295.488 
L 73.922007 295.333363 
L 73.743447 295.333363 
L 73.654167 295.488 
L 73.743447 295.642637 
L 73.922007 295.642637 
L 74.011287 295.488 
L 73.922007 295.333363 
"/>
    <path clip-path="url(#p50cfecf893)" d="M 75.476617 90.144047 
L 75.387337 89.989409 
L 75.208777 89.989409 
L 75.119497 90.144047 
L 75.208777 90.298684 
L 75.387337 90.298684 
L 75.476617 90.144047 
L 75.387337 89.989409 
"/>
    <path clip-path="url(#p50cfecf893)" d="M 84.247204 187.840738 
L 84.157924 187.6861 
L 83.979364 187.6861 
L 83.890084 187.840738 
L 83.979364 187.995375 
L 84.157924 187.995375 
L 84.247204 187.840738 
L 84.157924 187.6861 
"/>
    <path clip-path="url(#p50cfecf893)" d="M 100.202348 275.80093 
L 100.239797 275.80093 
L 100.202348 275.651134 
L 100.576839 275.838379 
L 100.202348 276.025625 
L 100.239797 275.875829 
L 100.202348 275.875829 
L 100.202348 275.80093 
"/>
    <path clip-path="url(#p50cfecf893)" d="M 110.977606 57.215451 
L 110.888326 57.060813 
L 110.709766 57.060813 
L 110.620486 57.215451 
L 110.709766 57.370088 
L 110.888326 57.370088 
L 110.977606 57.215451 
L 110.888326 57.060813 
"/>
    <path clip-path="url(#p50cfecf893)" d="M 136.58906 122.881289 
L 136.49978 122.726652 
L 136.32122 122.726652 
L 136.23194 122.881289 
L 136.32122 123.035927 
L 136.49978 123.035927 
L 136.58906 122.881289 
L 136.49978 122.726652 
"/>
    <path clip-path="url(#p50cfecf893)" d="M 166.850561 225.996151 
L 194.095305 225.996151 
L 193.916745 225.281911 
L 195.702345 226.174711 
L 193.916745 227.067511 
L 194.095305 226.353271 
L 166.850561 226.353271 
L 166.850561 225.996151 
"/>
    <path clip-path="url(#p50cfecf893)" d="M 200.824265 291.840549 
L 200.734985 291.685912 
L 200.556425 291.685912 
L 200.467145 291.840549 
L 200.556425 291.995187 
L 200.734985 291.995187 
L 200.824265 291.840549 
L 200.734985 291.685912 
"/>
    <path clip-path="url(#p50cfecf893)" d="M 218.472981 73.217621 
L 218.383701 73.062983 
L 218.205141 73.062983 
L 218.115861 73.217621 
L 218.205141 73.372258 
L 218.383701 73.372258 
L 218.472981 73.217621 
L 218.383701 73.062983 
"/>
    <path clip-path="url(#p50cfecf893)" d="M 254.204139 161.215262 
L 254.114859 161.060625 
L 253.936299 161.060625 
L 253.847019 161.215262 
L 253.936299 161.3699 
L 254.114859 161.3699 
L 254.204139 161.215262 
L 254.114859 161.060625 
"/>
    <path clip-path="url(#p50cfecf893)" d="M 289.070474 258.911953 
L 288.981194 258.757316 
L 288.802634 258.757316 
L 288.713354 258.911953 
L 288.802634 259.066591 
L 288.981194 259.066591 
L 289.070474 258.911953 
L 288.981194 258.757316 
"/>
    <path clip-path="url(#p50cfecf893)" d="M 305.647999 53.568 
L 305.558719 53.413363 
L 305.380159 53.413363 
L 305.290879 53.568 
L 305.380159 53.722637 
L 305.558719 53.722637 
L 305.647999 53.568 
L 305.558719 53.413363 
"/>
    <path clip-path="url(#p50cfecf893)" d="M 336.08806 100.198534 
L 335.99878 100.043896 
L 335.82022 100.043896 
L 335.73094 100.198534 
L 335.82022 100.353171 
L 335.99878 100.353171 
L 336.08806 100.198534 
L 335.99878 100.043896 
"/>
    <path clip-path="url(#p50cfecf893)" d="M 361.699514 200.991878 
L 361.610234 200.83724 
L 361.431674 200.83724 
L 361.342394 200.991878 
L 361.431674 201.146515 
L 361.610234 201.146515 
L 361.699514 200.991878 
L 361.610234 200.83724 
"/>
    <path clip-path="url(#p50cfecf893)" d="M 381.242552 282.504845 
L 381.153272 282.350208 
L 380.974712 282.350208 
L 380.885432 282.504845 
L 380.974712 282.659483 
L 381.153272 282.659483 
L 381.242552 282.504845 
L 381.153272 282.350208 
"/>
    <path clip-path="url(#p50cfecf893)" d="M 388.429916 61.195409 
L 388.340636 61.040771 
L 388.162076 61.040771 
L 388.072796 61.195409 
L 388.162076 61.350046 
L 388.340636 61.350046 
L 388.429916 61.195409 
L 388.340636 61.040771 
"/>
    <path clip-path="url(#p50cfecf893)" d="M 397.200503 135.234219 
L 397.111223 135.079581 
L 396.932663 135.079581 
L 396.843383 135.234219 
L 396.932663 135.388856 
L 397.111223 135.388856 
L 397.200503 135.234219 
L 397.111223 135.079581 
"/>
   </g>
   <g id="matplotlib.axis_1">
    <g id="xtick_1">
     <g id="line2d_1">
      <defs>
       <path d="M 0 0 
L 0 3.5 
" id="m6a459a6bbe" style="stroke:#000000;stroke-width:0.8;"/>
      </defs>
      <g>
       <use style="stroke:#000000;stroke-width:0.8;" x="73.832727" xlink:href="#m6a459a6bbe" y="307.584"/>
      </g>
     </g>
     <g id="text_1">
      <!-- −1.00 -->
      <defs>
       <path d="M 10.59375 35.5 
L 73.1875 35.5 
L 73.1875 27.203125 
L 10.59375 27.203125 
z
" id="DejaVuSans-2212"/>
       <path d="M 12.40625 8.296875 
L 28.515625 8.296875 
L 28.515625 63.921875 
L 10.984375 60.40625 
L 10.984375 69.390625 
L 28.421875 72.90625 
L 38.28125 72.90625 
L 38.28125 8.296875 
L 54.390625 8.296875 
L 54.390625 0 
L 12.40625 0 
z
" id="DejaVuSans-31"/>
       <path d="M 10.6875 12.40625 
L 21 12.40625 
L 21 0 
L 10.6875 0 
z
" id="DejaVuSans-2e"/>
       <path d="M 31.78125 66.40625 
Q 24.171875 66.40625 20.328125 58.90625 
Q 16.5 51.421875 16.5 36.375 
Q 16.5 21.390625 20.328125 13.890625 
Q 24.171875 6.390625 31.78125 6.390625 
Q 39.453125 6.390625 43.28125 13.890625 
Q 47.125 21.390625 47.125 36.375 
Q 47.125 51.421875 43.28125 58.90625 
Q 39.453125 66.40625 31.78125 66.40625 
z
M 31.78125 74.21875 
Q 44.046875 74.21875 50.515625 64.515625 
Q 56.984375 54.828125 56.984375 36.375 
Q 56.984375 17.96875 50.515625 8.265625 
Q 44.046875 -1.421875 31.78125 -1.421875 
Q 19.53125 -1.421875 13.0625 8.265625 
Q 6.59375 17.96875 6.59375 36.375 
Q 6.59375 54.828125 13.0625 64.515625 
Q 19.53125 74.21875 31.78125 74.21875 
z
" id="DejaVuSans-30"/>
      </defs>
      <g transform="translate(58.510071 322.182437)scale(0.1 -0.1)">
       <use xlink:href="#DejaVuSans-2212"/>
       <use x="83.789062" xlink:href="#DejaVuSans-31"/>
       <use x="147.412109" xlink:href="#DejaVuSans-2e"/>
       <use x="179.199219" xlink:href="#DejaVuSans-30"/>
       <use x="242.822266" xlink:href="#DejaVuSans-30"/>
      </g>
     </g>
    </g>
    <g id="xtick_2">
     <g id="line2d_2">
      <g>
       <use style="stroke:#000000;stroke-width:0.8;" x="114.414545" xlink:href="#m6a459a6bbe" y="307.584"/>
      </g>
     </g>
     <g id="text_2">
      <!-- −0.75 -->
      <defs>
       <path d="M 8.203125 72.90625 
L 55.078125 72.90625 
L 55.078125 68.703125 
L 28.609375 0 
L 18.3125 0 
L 43.21875 64.59375 
L 8.203125 64.59375 
z
" id="DejaVuSans-37"/>
       <path d="M 10.796875 72.90625 
L 49.515625 72.90625 
L 49.515625 64.59375 
L 19.828125 64.59375 
L 19.828125 46.734375 
Q 21.96875 47.46875 24.109375 47.828125 
Q 26.265625 48.1875 28.421875 48.1875 
Q 40.625 48.1875 47.75 41.5 
Q 54.890625 34.8125 54.890625 23.390625 
Q 54.890625 11.625 47.5625 5.09375 
Q 40.234375 -1.421875 26.90625 -1.421875 
Q 22.3125 -1.421875 17.546875 -0.640625 
Q 12.796875 0.140625 7.71875 1.703125 
L 7.71875 11.625 
Q 12.109375 9.234375 16.796875 8.0625 
Q 21.484375 6.890625 26.703125 6.890625 
Q 35.15625 6.890625 40.078125 11.328125 
Q 45.015625 15.765625 45.015625 23.390625 
Q 45.015625 31 40.078125 35.4375 
Q 35.15625 39.890625 26.703125 39.890625 
Q 22.75 39.890625 18.8125 39.015625 
Q 14.890625 38.140625 10.796875 36.28125 
z
" id="DejaVuSans-35"/>
      </defs>
      <g transform="translate(99.091889 322.182437)scale(0.1 -0.1)">
       <use xlink:href="#DejaVuSans-2212"/>
       <use x="83.789062" xlink:href="#DejaVuSans-30"/>
       <use x="147.412109" xlink:href="#DejaVuSans-2e"/>
       <use x="179.199219" xlink:href="#DejaVuSans-37"/>
       <use x="242.822266" xlink:href="#DejaVuSans-35"/>
      </g>
     </g>
    </g>
    <g id="xtick_3">
     <g id="line2d_3">
      <g>
       <use style="stroke:#000000;stroke-width:0.8;" x="154.996364" xlink:href="#m6a459a6bbe" y="307.584"/>
      </g>
     </g>
     <g id="text_3">
      <!-- −0.50 -->
      <g transform="translate(139.673707 322.182437)scale(0.1 -0.1)">
       <use xlink:href="#DejaVuSans-2212"/>
       <use x="83.789062" xlink:href="#DejaVuSans-30"/>
       <use x="147.412109" xlink:href="#DejaVuSans-2e"/>
       <use x="179.199219" xlink:href="#DejaVuSans-35"/>
       <use x="242.822266" xlink:href="#DejaVuSans-30"/>
      </g>
     </g>
    </g>
    <g id="xtick_4">
     <g id="line2d_4">
      <g>
       <use style="stroke:#000000;stroke-width:0.8;" x="195.578182" xlink:href="#m6a459a6bbe" y="307.584"/>
      </g>
     </g>
     <g id="text_4">
      <!-- −0.25 -->
      <defs>
       <path d="M 19.1875 8.296875 
L 53.609375 8.296875 
L 53.609375 0 
L 7.328125 0 
L 7.328125 8.296875 
Q 12.9375 14.109375 22.625 23.890625 
Q 32.328125 33.6875 34.8125 36.53125 
Q 39.546875 41.84375 41.421875 45.53125 
Q 43.3125 49.21875 43.3125 52.78125 
Q 43.3125 58.59375 39.234375 62.25 
Q 35.15625 65.921875 28.609375 65.921875 
Q 23.96875 65.921875 18.8125 64.3125 
Q 13.671875 62.703125 7.8125 59.421875 
L 7.8125 69.390625 
Q 13.765625 71.78125 18.9375 73 
Q 24.125 74.21875 28.421875 74.21875 
Q 39.75 74.21875 46.484375 68.546875 
Q 53.21875 62.890625 53.21875 53.421875 
Q 53.21875 48.921875 51.53125 44.890625 
Q 49.859375 40.875 45.40625 35.40625 
Q 44.1875 33.984375 37.640625 27.21875 
Q 31.109375 20.453125 19.1875 8.296875 
z
" id="DejaVuSans-32"/>
      </defs>
      <g transform="translate(180.255526 322.182437)scale(0.1 -0.1)">
       <use xlink:href="#DejaVuSans-2212"/>
       <use x="83.789062" xlink:href="#DejaVuSans-30"/>
       <use x="147.412109" xlink:href="#DejaVuSans-2e"/>
       <use x="179.199219" xlink:href="#DejaVuSans-32"/>
       <use x="242.822266" xlink:href="#DejaVuSans-35"/>
      </g>
     </g>
    </g>
    <g id="xtick_5">
     <g id="line2d_5">
      <g>
       <use style="stroke:#000000;stroke-width:0.8;" x="236.16" xlink:href="#m6a459a6bbe" y="307.584"/>
      </g>
     </g>
     <g id="text_5">
      <!-- 0.00 -->
      <g transform="translate(225.027187 322.182437)scale(0.1 -0.1)">
       <use xlink:href="#DejaVuSans-30"/>
       <use x="63.623047" xlink:href="#DejaVuSans-2e"/>
       <use x="95.410156" xlink:href="#DejaVuSans-30"/>
       <use x="159.033203" xlink:href="#DejaVuSans-30"/>
      </g>
     </g>
    </g>
    <g id="xtick_6">
     <g id="line2d_6">
      <g>
       <use style="stroke:#000000;stroke-width:0.8;" x="276.741818" xlink:href="#m6a459a6bbe" y="307.584"/>
      </g>
     </g>
     <g id="text_6">
      <!-- 0.25 -->
      <g transform="translate(265.609006 322.182437)scale(0.1 -0.1)">
       <use xlink:href="#DejaVuSans-30"/>
       <use x="63.623047" xlink:href="#DejaVuSans-2e"/>
       <use x="95.410156" xlink:href="#DejaVuSans-32"/>
       <use x="159.033203" xlink:href="#DejaVuSans-35"/>
      </g>
     </g>
    </g>
    <g id="xtick_7">
     <g id="line2d_7">
      <g>
       <use style="stroke:#000000;stroke-width:0.8;" x="317.323636" xlink:href="#m6a459a6bbe" y="307.584"/>
      </g>
     </g>
     <g id="text_7">
      <!-- 0.50 -->
      <g transform="translate(306.190824 322.182437)scale(0.1 -0.1)">
       <use xlink:href="#DejaVuSans-30"/>
       <use x="63.623047" xlink:href="#DejaVuSans-2e"/>
       <use x="95.410156" xlink:href="#DejaVuSans-35"/>
       <use x="159.033203" xlink:href="#DejaVuSans-30"/>
      </g>
     </g>
    </g>
    <g id="xtick_8">
     <g id="line2d_8">
      <g>
       <use style="stroke:#000000;stroke-width:0.8;" x="357.905455" xlink:href="#m6a459a6bbe" y="307.584"/>
      </g>
     </g>
     <g id="text_8">
      <!-- 0.75 -->
      <g transform="translate(346.772642 322.182437)scale(0.1 -0.1)">
       <use xlink:href="#DejaVuSans-30"/>
       <use x="63.623047" xlink:href="#DejaVuSans-2e"/>
       <use x="95.410156" xlink:href="#DejaVuSans-37"/>
       <use x="159.033203" xlink:href="#DejaVuSans-35"/>
      </g>
     </g>
    </g>
    <g id="xtick_9">
     <g id="line2d_9">
      <g>
       <use style="stroke:#000000;stroke-width:0.8;" x="398.487273" xlink:href="#m6a459a6bbe" y="307.584"/>
      </g>
     </g>
     <g id="text_9">
      <!-- 1.00 -->
      <g transform="translate(387.35446 322.182437)scale(0.1 -0.1)">
       <use xlink:href="#DejaVuSans-31"/>
       <use x="63.623047" xlink:href="#DejaVuSans-2e"/>
       <use x="95.410156" xlink:href="#DejaVuSans-30"/>
       <use x="159.033203" xlink:href="#DejaVuSans-30"/>
      </g>
     </g>
    </g>
    <g id="text_10">
     <!-- X -->
     <defs>
      <path d="M 6.296875 72.90625 
L 16.890625 72.90625 
L 35.015625 45.796875 
L 53.21875 72.90625 
L 63.8125 72.90625 
L 40.375 37.890625 
L 65.375 0 
L 54.78125 0 
L 34.28125 31 
L 13.625 0 
L 2.984375 0 
L 29 38.921875 
z
" id="DejaVuSans-58"/>
     </defs>
     <g transform="translate(232.735 335.860562)scale(0.1 -0.1)">
      <use xlink:href="#DejaVuSans-58"/>
     </g>
    </g>
   </g>
   <g id="matplotlib.axis_2">
    <g id="ytick_1">
     <g id="line2d_10">
      <defs>
       <path d="M 0 0 
L -3.5 0 
" id="mcda8d24f5a" style="stroke:#000000;stroke-width:0.8;"/>
      </defs>
      <g>
       <use style="stroke:#000000;stroke-width:0.8;" x="57.6" xlink:href="#mcda8d24f5a" y="295.488"/>
      </g>
     </g>
     <g id="text_11">
      <!-- −1.00 -->
      <g transform="translate(19.954687 299.287219)scale(0.1 -0.1)">
       <use xlink:href="#DejaVuSans-2212"/>
       <use x="83.789062" xlink:href="#DejaVuSans-31"/>
       <use x="147.412109" xlink:href="#DejaVuSans-2e"/>
       <use x="179.199219" xlink:href="#DejaVuSans-30"/>
       <use x="242.822266" xlink:href="#DejaVuSans-30"/>
      </g>
     </g>
    </g>
    <g id="ytick_2">
     <g id="line2d_11">
      <g>
       <use style="stroke:#000000;stroke-width:0.8;" x="57.6" xlink:href="#mcda8d24f5a" y="265.248"/>
      </g>
     </g>
     <g id="text_12">
      <!-- −0.75 -->
      <g transform="translate(19.954687 269.047219)scale(0.1 -0.1)">
       <use xlink:href="#DejaVuSans-2212"/>
       <use x="83.789062" xlink:href="#DejaVuSans-30"/>
       <use x="147.412109" xlink:href="#DejaVuSans-2e"/>
       <use x="179.199219" xlink:href="#DejaVuSans-37"/>
       <use x="242.822266" xlink:href="#DejaVuSans-35"/>
      </g>
     </g>
    </g>
    <g id="ytick_3">
     <g id="line2d_12">
      <g>
       <use style="stroke:#000000;stroke-width:0.8;" x="57.6" xlink:href="#mcda8d24f5a" y="235.008"/>
      </g>
     </g>
     <g id="text_13">
      <!-- −0.50 -->
      <g transform="translate(19.954687 238.807219)scale(0.1 -0.1)">
       <use xlink:href="#DejaVuSans-2212"/>
       <use x="83.789062" xlink:href="#DejaVuSans-30"/>
       <use x="147.412109" xlink:href="#DejaVuSans-2e"/>
       <use x="179.199219" xlink:href="#DejaVuSans-35"/>
       <use x="242.822266" xlink:href="#DejaVuSans-30"/>
      </g>
     </g>
    </g>
    <g id="ytick_4">
     <g id="line2d_13">
      <g>
       <use style="stroke:#000000;stroke-width:0.8;" x="57.6" xlink:href="#mcda8d24f5a" y="204.768"/>
      </g>
     </g>
     <g id="text_14">
      <!-- −0.25 -->
      <g transform="translate(19.954687 208.567219)scale(0.1 -0.1)">
       <use xlink:href="#DejaVuSans-2212"/>
       <use x="83.789062" xlink:href="#DejaVuSans-30"/>
       <use x="147.412109" xlink:href="#DejaVuSans-2e"/>
       <use x="179.199219" xlink:href="#DejaVuSans-32"/>
       <use x="242.822266" xlink:href="#DejaVuSans-35"/>
      </g>
     </g>
    </g>
    <g id="ytick_5">
     <g id="line2d_14">
      <g>
       <use style="stroke:#000000;stroke-width:0.8;" x="57.6" xlink:href="#mcda8d24f5a" y="174.528"/>
      </g>
     </g>
     <g id="text_15">
      <!-- 0.00 -->
      <g transform="translate(28.334375 178.327219)scale(0.1 -0.1)">
       <use xlink:href="#DejaVuSans-30"/>
       <use x="63.623047" xlink:href="#DejaVuSans-2e"/>
       <use x="95.410156" xlink:href="#DejaVuSans-30"/>
       <use x="159.033203" xlink:href="#DejaVuSans-30"/>
      </g>
     </g>
    </g>
    <g id="ytick_6">
     <g id="line2d_15">
      <g>
       <use style="stroke:#000000;stroke-width:0.8;" x="57.6" xlink:href="#mcda8d24f5a" y="144.288"/>
      </g>
     </g>
     <g id="text_16">
      <!-- 0.25 -->
      <g transform="translate(28.334375 148.087219)scale(0.1 -0.1)">
       <use xlink:href="#DejaVuSans-30"/>
       <use x="63.623047" xlink:href="#DejaVuSans-2e"/>
       <use x="95.410156" xlink:href="#DejaVuSans-32"/>
       <use x="159.033203" xlink:href="#DejaVuSans-35"/>
      </g>
     </g>
    </g>
    <g id="ytick_7">
     <g id="line2d_16">
      <g>
       <use style="stroke:#000000;stroke-width:0.8;" x="57.6" xlink:href="#mcda8d24f5a" y="114.048"/>
      </g>
     </g>
     <g id="text_17">
      <!-- 0.50 -->
      <g transform="translate(28.334375 117.847219)scale(0.1 -0.1)">
       <use xlink:href="#DejaVuSans-30"/>
       <use x="63.623047" xlink:href="#DejaVuSans-2e"/>
       <use x="95.410156" xlink:href="#DejaVuSans-35"/>
       <use x="159.033203" xlink:href="#DejaVuSans-30"/>
      </g>
     </g>
    </g>
    <g id="ytick_8">
     <g id="line2d_17">
      <g>
       <use style="stroke:#000000;stroke-width:0.8;" x="57.6" xlink:href="#mcda8d24f5a" y="83.808"/>
      </g>
     </g>
     <g id="text_18">
      <!-- 0.75 -->
      <g transform="translate(28.334375 87.607219)scale(0.1 -0.1)">
       <use xlink:href="#DejaVuSans-30"/>
       <use x="63.623047" xlink:href="#DejaVuSans-2e"/>
       <use x="95.410156" xlink:href="#DejaVuSans-37"/>
       <use x="159.033203" xlink:href="#DejaVuSans-35"/>
      </g>
     </g>
    </g>
    <g id="ytick_9">
     <g id="line2d_18">
      <g>
       <use style="stroke:#000000;stroke-width:0.8;" x="57.6" xlink:href="#mcda8d24f5a" y="53.568"/>
      </g>
     </g>
     <g id="text_19">
      <!-- 1.00 -->
      <g transform="translate(28.334375 57.367219)scale(0.1 -0.1)">
       <use xlink:href="#DejaVuSans-31"/>
       <use x="63.623047" xlink:href="#DejaVuSans-2e"/>
       <use x="95.410156" xlink:href="#DejaVuSans-30"/>
       <use x="159.033203" xlink:href="#DejaVuSans-30"/>
      </g>
     </g>
    </g>
    <g id="text_20">
     <!-- Y -->
     <defs>
      <path d="M -0.203125 72.90625 
L 10.40625 72.90625 
L 30.609375 42.921875 
L 50.6875 72.90625 
L 61.28125 72.90625 
L 35.5 34.71875 
L 35.5 0 
L 25.59375 0 
L 25.59375 34.71875 
z
" id="DejaVuSans-59"/>
     </defs>
     <g transform="translate(13.875 177.581906)rotate(-90)scale(0.1 -0.1)">
      <use xlink:href="#DejaVuSans-59"/>
     </g>
    </g>
   </g>
   <g id="line2d_19">
    <path clip-path="url(#p50cfecf893)" d="M 73.832727 295.488 
L 73.832727 53.568 
L 73.832727 53.568 
" style="fill:none;stroke:#000000;stroke-linecap:square;stroke-width:0.1;"/>
   </g>
   <g id="line2d_20">
    <path clip-path="url(#p50cfecf893)" d="M 75.298057 295.488 
L 75.298057 53.568 
L 75.298057 53.568 
" style="fill:none;stroke:#000000;stroke-linecap:square;stroke-width:0.1;"/>
   </g>
   <g id="line2d_21">
    <path clip-path="url(#p50cfecf893)" d="M 78.727575 295.488 
L 78.727575 53.568 
L 78.727575 53.568 
" style="fill:none;stroke:#000000;stroke-linecap:square;stroke-width:0.1;"/>
   </g>
   <g id="line2d_22">
    <path clip-path="url(#p50cfecf893)" d="M 84.068644 295.488 
L 84.068644 53.568 
L 84.068644 53.568 
" style="fill:none;stroke:#000000;stroke-linecap:square;stroke-width:0.1;"/>
   </g>
   <g id="line2d_23">
    <path clip-path="url(#p50cfecf893)" d="M 91.256008 295.488 
L 91.256008 53.568 
L 91.256008 53.568 
" style="fill:none;stroke:#000000;stroke-linecap:square;stroke-width:0.1;"/>
   </g>
   <g id="line2d_24">
    <path clip-path="url(#p50cfecf893)" d="M 100.202348 295.488 
L 100.202348 53.568 
L 100.202348 53.568 
" style="fill:none;stroke:#000000;stroke-linecap:square;stroke-width:0.1;"/>
   </g>
   <g id="line2d_25">
    <path clip-path="url(#p50cfecf893)" d="M 110.799046 295.488 
L 110.799046 53.568 
L 110.799046 53.568 
" style="fill:none;stroke:#000000;stroke-linecap:square;stroke-width:0.1;"/>
   </g>
   <g id="line2d_26">
    <path clip-path="url(#p50cfecf893)" d="M 122.917466 295.488 
L 122.917466 53.568 
L 122.917466 53.568 
" style="fill:none;stroke:#000000;stroke-linecap:square;stroke-width:0.1;"/>
   </g>
   <g id="line2d_27">
    <path clip-path="url(#p50cfecf893)" d="M 136.4105 295.488 
L 136.4105 53.568 
L 136.4105 53.568 
" style="fill:none;stroke:#000000;stroke-linecap:square;stroke-width:0.1;"/>
   </g>
   <g id="line2d_28">
    <path clip-path="url(#p50cfecf893)" d="M 151.11436 295.488 
L 151.11436 53.568 
L 151.11436 53.568 
" style="fill:none;stroke:#000000;stroke-linecap:square;stroke-width:0.1;"/>
   </g>
   <g id="line2d_29">
    <path clip-path="url(#p50cfecf893)" d="M 166.850561 295.488 
L 166.850561 53.568 
L 166.850561 53.568 
" style="fill:none;stroke:#000000;stroke-linecap:square;stroke-width:0.1;"/>
   </g>
   <g id="line2d_30">
    <path clip-path="url(#p50cfecf893)" d="M 183.428086 295.488 
L 183.428086 53.568 
L 183.428086 53.568 
" style="fill:none;stroke:#000000;stroke-linecap:square;stroke-width:0.1;"/>
   </g>
   <g id="line2d_31">
    <path clip-path="url(#p50cfecf893)" d="M 200.645705 295.488 
L 200.645705 53.568 
L 200.645705 53.568 
" style="fill:none;stroke:#000000;stroke-linecap:square;stroke-width:0.1;"/>
   </g>
   <g id="line2d_32">
    <path clip-path="url(#p50cfecf893)" d="M 218.294421 295.488 
L 218.294421 53.568 
L 218.294421 53.568 
" style="fill:none;stroke:#000000;stroke-linecap:square;stroke-width:0.1;"/>
   </g>
   <g id="line2d_33">
    <path clip-path="url(#p50cfecf893)" d="M 236.16 295.488 
L 236.16 53.568 
L 236.16 53.568 
" style="fill:none;stroke:#000000;stroke-linecap:square;stroke-width:0.1;"/>
   </g>
   <g id="line2d_34">
    <path clip-path="url(#p50cfecf893)" d="M 254.025579 295.488 
L 254.025579 53.568 
L 254.025579 53.568 
" style="fill:none;stroke:#000000;stroke-linecap:square;stroke-width:0.1;"/>
   </g>
   <g id="line2d_35">
    <path clip-path="url(#p50cfecf893)" d="M 271.674295 295.488 
L 271.674295 53.568 
L 271.674295 53.568 
" style="fill:none;stroke:#000000;stroke-linecap:square;stroke-width:0.1;"/>
   </g>
   <g id="line2d_36">
    <path clip-path="url(#p50cfecf893)" d="M 288.891914 295.488 
L 288.891914 53.568 
L 288.891914 53.568 
" style="fill:none;stroke:#000000;stroke-linecap:square;stroke-width:0.1;"/>
   </g>
   <g id="line2d_37">
    <path clip-path="url(#p50cfecf893)" d="M 305.469439 295.488 
L 305.469439 53.568 
L 305.469439 53.568 
" style="fill:none;stroke:#000000;stroke-linecap:square;stroke-width:0.1;"/>
   </g>
   <g id="line2d_38">
    <path clip-path="url(#p50cfecf893)" d="M 321.20564 295.488 
L 321.20564 53.568 
L 321.20564 53.568 
" style="fill:none;stroke:#000000;stroke-linecap:square;stroke-width:0.1;"/>
   </g>
   <g id="line2d_39">
    <path clip-path="url(#p50cfecf893)" d="M 335.9095 295.488 
L 335.9095 53.568 
L 335.9095 53.568 
" style="fill:none;stroke:#000000;stroke-linecap:square;stroke-width:0.1;"/>
   </g>
   <g id="line2d_40">
    <path clip-path="url(#p50cfecf893)" d="M 349.402534 295.488 
L 349.402534 53.568 
L 349.402534 53.568 
" style="fill:none;stroke:#000000;stroke-linecap:square;stroke-width:0.1;"/>
   </g>
   <g id="line2d_41">
    <path clip-path="url(#p50cfecf893)" d="M 361.520954 295.488 
L 361.520954 53.568 
L 361.520954 53.568 
" style="fill:none;stroke:#000000;stroke-linecap:square;stroke-width:0.1;"/>
   </g>
   <g id="line2d_42">
    <path clip-path="url(#p50cfecf893)" d="M 372.117652 295.488 
L 372.117652 53.568 
L 372.117652 53.568 
" style="fill:none;stroke:#000000;stroke-linecap:square;stroke-width:0.1;"/>
   </g>
   <g id="line2d_43">
    <path clip-path="url(#p50cfecf893)" d="M 381.063992 295.488 
L 381.063992 53.568 
L 381.063992 53.568 
" style="fill:none;stroke:#000000;stroke-linecap:square;stroke-width:0.1;"/>
   </g>
   <g id="line2d_44">
    <path clip-path="url(#p50cfecf893)" d="M 388.251356 295.488 
L 388.251356 53.568 
L 388.251356 53.568 
" style="fill:none;stroke:#000000;stroke-linecap:square;stroke-width:0.1;"/>
   </g>
   <g id="line2d_45">
    <path clip-path="url(#p50cfecf893)" d="M 393.592425 295.488 
L 393.592425 53.568 
L 393.592425 53.568 
" style="fill:none;stroke:#000000;stroke-linecap:square;stroke-width:0.1;"/>
   </g>
   <g id="line2d_46">
    <path clip-path="url(#p50cfecf893)" d="M 397.021943 295.488 
L 397.021943 53.568 
L 397.021943 53.568 
" style="fill:none;stroke:#000000;stroke-linecap:square;stroke-width:0.1;"/>
   </g>
   <g id="line2d_47">
    <path clip-path="url(#p50cfecf893)" d="M 398.487273 295.488 
L 398.487273 53.568 
L 398.487273 53.568 
" style="fill:none;stroke:#000000;stroke-linecap:square;stroke-width:0.1;"/>
   </g>
   <g id="line2d_48">
    <path clip-path="url(#p50cfecf893)" d="M 73.832727 295.488 
L 398.487273 295.488 
L 398.487273 295.488 
" style="fill:none;stroke:#000000;stroke-linecap:square;stroke-width:0.1;"/>
   </g>
   <g id="line2d_49">
    <path clip-path="url(#p50cfecf893)" d="M 73.832727 294.396093 
L 398.487273 294.396093 
L 398.487273 294.396093 
" style="fill:none;stroke:#000000;stroke-linecap:square;stroke-width:0.1;"/>
   </g>
   <g id="line2d_50">
    <path clip-path="url(#p50cfecf893)" d="M 73.832727 291.840549 
L 398.487273 291.840549 
L 398.487273 291.840549 
" style="fill:none;stroke:#000000;stroke-linecap:square;stroke-width:0.1;"/>
   </g>
   <g id="line2d_51">
    <path clip-path="url(#p50cfecf893)" d="M 73.832727 287.860591 
L 398.487273 287.860591 
L 398.487273 287.860591 
" style="fill:none;stroke:#000000;stroke-linecap:square;stroke-width:0.1;"/>
   </g>
   <g id="line2d_52">
    <path clip-path="url(#p50cfecf893)" d="M 73.832727 282.504845 
L 398.487273 282.504845 
L 398.487273 282.504845 
" style="fill:none;stroke:#000000;stroke-linecap:square;stroke-width:0.1;"/>
   </g>
   <g id="line2d_53">
    <path clip-path="url(#p50cfecf893)" d="M 73.832727 275.838379 
L 398.487273 275.838379 
L 398.487273 275.838379 
" style="fill:none;stroke:#000000;stroke-linecap:square;stroke-width:0.1;"/>
   </g>
   <g id="line2d_54">
    <path clip-path="url(#p50cfecf893)" d="M 73.832727 267.94213 
L 398.487273 267.94213 
L 398.487273 267.94213 
" style="fill:none;stroke:#000000;stroke-linecap:square;stroke-width:0.1;"/>
   </g>
   <g id="line2d_55">
    <path clip-path="url(#p50cfecf893)" d="M 73.832727 258.911953 
L 398.487273 258.911953 
L 398.487273 258.911953 
" style="fill:none;stroke:#000000;stroke-linecap:square;stroke-width:0.1;"/>
   </g>
   <g id="line2d_56">
    <path clip-path="url(#p50cfecf893)" d="M 73.832727 248.857466 
L 398.487273 248.857466 
L 398.487273 248.857466 
" style="fill:none;stroke:#000000;stroke-linecap:square;stroke-width:0.1;"/>
   </g>
   <g id="line2d_57">
    <path clip-path="url(#p50cfecf893)" d="M 73.832727 237.900718 
L 398.487273 237.900718 
L 398.487273 237.900718 
" style="fill:none;stroke:#000000;stroke-linecap:square;stroke-width:0.1;"/>
   </g>
   <g id="line2d_58">
    <path clip-path="url(#p50cfecf893)" d="M 73.832727 226.174711 
L 398.487273 226.174711 
L 398.487273 226.174711 
" style="fill:none;stroke:#000000;stroke-linecap:square;stroke-width:0.1;"/>
   </g>
   <g id="line2d_59">
    <path clip-path="url(#p50cfecf893)" d="M 73.832727 213.821781 
L 398.487273 213.821781 
L 398.487273 213.821781 
" style="fill:none;stroke:#000000;stroke-linecap:square;stroke-width:0.1;"/>
   </g>
   <g id="line2d_60">
    <path clip-path="url(#p50cfecf893)" d="M 73.832727 200.991878 
L 398.487273 200.991878 
L 398.487273 200.991878 
" style="fill:none;stroke:#000000;stroke-linecap:square;stroke-width:0.1;"/>
   </g>
   <g id="line2d_61">
    <path clip-path="url(#p50cfecf893)" d="M 73.832727 187.840738 
L 398.487273 187.840738 
L 398.487273 187.840738 
" style="fill:none;stroke:#000000;stroke-linecap:square;stroke-width:0.1;"/>
   </g>
   <g id="line2d_62">
    <path clip-path="url(#p50cfecf893)" d="M 73.832727 174.528 
L 398.487273 174.528 
L 398.487273 174.528 
" style="fill:none;stroke:#000000;stroke-linecap:square;stroke-width:0.1;"/>
   </g>
   <g id="line2d_63">
    <path clip-path="url(#p50cfecf893)" d="M 73.832727 161.215262 
L 398.487273 161.215262 
L 398.487273 161.215262 
" style="fill:none;stroke:#000000;stroke-linecap:square;stroke-width:0.1;"/>
   </g>
   <g id="line2d_64">
    <path clip-path="url(#p50cfecf893)" d="M 73.832727 148.064122 
L 398.487273 148.064122 
L 398.487273 148.064122 
" style="fill:none;stroke:#000000;stroke-linecap:square;stroke-width:0.1;"/>
   </g>
   <g id="line2d_65">
    <path clip-path="url(#p50cfecf893)" d="M 73.832727 135.234219 
L 398.487273 135.234219 
L 398.487273 135.234219 
" style="fill:none;stroke:#000000;stroke-linecap:square;stroke-width:0.1;"/>
   </g>
   <g id="line2d_66">
    <path clip-path="url(#p50cfecf893)" d="M 73.832727 122.881289 
L 398.487273 122.881289 
L 398.487273 122.881289 
" style="fill:none;stroke:#000000;stroke-linecap:square;stroke-width:0.1;"/>
   </g>
   <g id="line2d_67">
    <path clip-path="url(#p50cfecf893)" d="M 73.832727 111.155282 
L 398.487273 111.155282 
L 398.487273 111.155282 
" style="fill:none;stroke:#000000;stroke-linecap:square;stroke-width:0.1;"/>
   </g>
   <g id="line2d_68">
    <path clip-path="url(#p50cfecf893)" d="M 73.832727 100.198534 
L 398.487273 100.198534 
L 398.487273 100.198534 
" style="fill:none;stroke:#000000;stroke-linecap:square;stroke-width:0.1;"/>
   </g>
   <g id="line2d_69">
    <path clip-path="url(#p50cfecf893)" d="M 73.832727 90.144047 
L 398.487273 90.144047 
L 398.487273 90.144047 
" style="fill:none;stroke:#000000;stroke-linecap:square;stroke-width:0.1;"/>
   </g>
   <g id="line2d_70">
    <path clip-path="url(#p50cfecf893)" d="M 73.832727 81.11387 
L 398.487273 81.11387 
L 398.487273 81.11387 
" style="fill:none;stroke:#000000;stroke-linecap:square;stroke-width:0.1;"/>
   </g>
   <g id="line2d_71">
    <path clip-path="url(#p50cfecf893)" d="M 73.832727 73.217621 
L 398.487273 73.217621 
L 398.487273 73.217621 
" style="fill:none;stroke:#000000;stroke-linecap:square;stroke-width:0.1;"/>
   </g>
   <g id="line2d_72">
    <path clip-path="url(#p50cfecf893)" d="M 73.832727 66.551155 
L 398.487273 66.551155 
L 398.487273 66.551155 
" style="fill:none;stroke:#000000;stroke-linecap:square;stroke-width:0.1;"/>
   </g>
   <g id="line2d_73">
    <path clip-path="url(#p50cfecf893)" d="M 73.832727 61.195409 
L 398.487273 61.195409 
L 398.487273 61.195409 
" style="fill:none;stroke:#000000;stroke-linecap:square;stroke-width:0.1;"/>
   </g>
   <g id="line2d_74">
    <path clip-path="url(#p50cfecf893)" d="M 73.832727 57.215451 
L 398.487273 57.215451 
L 398.487273 57.215451 
" style="fill:none;stroke:#000000;stroke-linecap:square;stroke-width:0.1;"/>
   </g>
   <g id="line2d_75">
    <path clip-path="url(#p50cfecf893)" d="M 73.832727 54.659907 
L 398.487273 54.659907 
L 398.487273 54.659907 
" style="fill:none;stroke:#000000;stroke-linecap:square;stroke-width:0.1;"/>
   </g>
   <g id="line2d_76">
    <path clip-path="url(#p50cfecf893)" d="M 73.832727 53.568 
L 398.487273 53.568 
L 398.487273 53.568 
" style="fill:none;stroke:#000000;stroke-linecap:square;stroke-width:0.1;"/>
   </g>
   <g id="patch_3">
    <path d="M 57.6 307.584 
L 57.6 41.472 
" style="fill:none;stroke:#000000;stroke-linecap:square;stroke-linejoin:miter;stroke-width:0.8;"/>
   </g>
   <g id="patch_4">
    <path d="M 414.72 307.584 
L 414.72 41.472 
" style="fill:none;stroke:#000000;stroke-linecap:square;stroke-linejoin:miter;stroke-width:0.8;"/>
   </g>
   <g id="patch_5">
    <path d="M 57.6 307.584 
L 414.72 307.584 
" style="fill:none;stroke:#000000;stroke-linecap:square;stroke-linejoin:miter;stroke-width:0.8;"/>
   </g>
   <g id="patch_6">
    <path d="M 57.6 41.472 
L 414.72 41.472 
" style="fill:none;stroke:#000000;stroke-linecap:square;stroke-linejoin:miter;stroke-width:0.8;"/>
   </g>
  </g>
 </g>
 <defs>
  <clipPath id="p50cfecf893">
   <rect height="266.112" width="357.12" x="57.6" y="41.472"/>
  </clipPath>
 </defs>
</svg>
